<svg width="72" height="78" viewBox="0 0 72 78" fill="none" xmlns="http://www.w3.org/2000/svg">
<path opacity="0.2" d="M0.136165 38.3911C1.85021 18.584 19.2965 3.91675 39.1035 5.63079C58.9106 7.34483 73.5779 24.7911 71.8638 44.5982C70.1498 64.4052 52.7035 79.0725 32.8965 77.3585C13.0894 75.6444 -1.57788 58.1981 0.136165 38.3911Z" fill="url(#paint0_linear)"/>
<path d="M48.4191 23.4593C47.8466 23.6076 47.2623 23.2637 47.1141 22.6912C46.9658 22.1187 47.3097 21.5344 47.8821 21.3862C48.4546 21.2379 49.0389 21.5818 49.1872 22.1542C49.3355 22.7267 48.9916 23.311 48.4191 23.4593Z" fill="#0D2436"/>
<path d="M7.67578 38.2536L15.5774 33.0347L14.8403 30.1892C12.2412 20.1543 18.2902 9.87639 28.3251 7.27721L31.3683 6.48897C32.2564 6.25896 33.1462 6.10022 34.0326 6.00243C34.9796 3.92615 38.426 3.93438 41.0427 4.24342C44.019 4.59447 45.8737 0 45.8737 0C48.6313 3.88363 46.529 6.7071 44.919 8.1076C49.4005 10.4987 52.9094 14.6807 54.2804 19.9737L54.8303 22.0969L63.3432 28.6131C63.7114 28.8947 63.8856 29.361 63.7941 29.8159C63.7016 30.2703 63.3589 30.6319 62.9102 30.7481L57.3241 32.195C57.4806 32.9152 57.6541 33.6302 57.8243 34.3293C59.3992 40.8216 61.0259 47.5307 47.1575 51.4965L48.8433 58.0051L50.7613 58.1539C51.1391 58.1829 51.4816 58.3878 51.6871 58.7074L55.5325 64.6975C55.8943 65.2603 55.7305 66.0093 55.1677 66.3711C55.0569 66.4423 54.939 66.4929 54.8171 66.5245C54.3238 66.6522 53.7837 66.4576 53.4939 66.0055L49.9732 60.5219L22.5341 58.3923L24.9763 73.1125C25.0862 73.7722 24.6402 74.3916 23.9792 74.5061C23.3201 74.615 22.6958 74.1695 22.5866 73.5096L19.8904 57.2644C19.8295 56.8973 19.9409 56.5223 20.1926 56.2477C20.4451 55.9729 20.809 55.8286 21.1796 55.8586L21.4963 55.8833L17.1459 39.0873L10.9191 43.191C10.8065 43.2652 10.6838 43.3195 10.5563 43.3525C10.3781 43.3987 10.1901 43.404 10.0069 43.3664C9.69217 43.3011 9.41559 43.1124 9.2392 42.8437L7.33134 39.9286C6.96487 39.3704 7.11972 38.6221 7.67578 38.2536ZM24.049 56.0805L46.2886 57.8067L44.5115 50.9456C44.3437 50.2976 44.7331 49.637 45.3804 49.4693C56.0203 46.7134 57.0377 42.9923 56.1705 38.0726L52.5386 39.0133C51.8913 39.181 51.2302 38.7925 51.0623 38.1445C50.8945 37.4964 51.2839 36.8358 51.9312 36.6682L55.6623 35.7018C55.599 35.4379 55.535 35.1717 55.4691 34.901C55.2047 33.8125 54.9325 32.6876 54.7177 31.5329C54.6007 30.9075 54.9885 30.2983 55.6044 30.1387L59.8961 29.0271L53.0261 23.7687C52.8116 23.6041 52.6583 23.3727 52.5904 23.1108L51.9358 20.5835C49.6715 11.8415 40.7175 6.57238 31.9764 8.83647L28.9331 9.62471C20.1912 11.889 14.922 20.843 17.1861 29.5842L17.7148 31.6252L22.5269 28.4461C22.6662 28.2206 22.8128 27.9975 22.9952 27.7934C23.73 26.975 24.7161 26.4893 25.8333 26.3743L36.605 19.325C36.7041 19.2602 36.8114 19.2107 36.9253 19.177L42.7243 17.4631C43.2241 17.322 43.7886 17.5144 44.0813 17.9617C44.3739 18.4089 44.3389 18.9952 43.9946 19.4047L40.1027 24.0338C40.0269 24.1244 39.938 24.2033 39.8389 24.2682L31.9087 29.457C32.0646 29.666 32.2174 29.8792 32.357 30.1058C32.7095 30.6743 32.5342 31.4212 31.9657 31.7737C31.3954 32.1258 30.65 31.9501 30.2978 31.3824C29.3617 29.8714 27.9893 28.8981 26.6253 28.7784C26.0942 28.7308 25.3444 28.8024 24.798 29.411C23.9919 30.3114 23.898 32.1775 24.5419 34.5316C25.0693 36.4645 26.4614 38.709 27.8765 39.1191C28.1074 39.1861 28.8116 39.3899 29.8411 38.4501C30.335 37.9993 31.1007 38.0346 31.5522 38.5282C32.003 39.0221 31.9679 39.7886 31.4741 40.2393C30.7157 40.9312 29.9799 41.3045 29.3068 41.4788C28.4884 41.6908 27.762 41.6079 27.2013 41.4461C24.9078 40.7814 23.1337 38.0736 22.3506 35.6589L19.2816 37.6808L24.0475 56.0809L24.049 56.0805ZM30.1638 27.7026L38.3636 22.3371L39.5489 20.9265L37.7824 21.4492L29.186 27.0741C29.5238 27.251 29.8477 27.4675 30.1638 27.7026ZM10.6 40.5001L21.7946 33.1227C21.7416 32.7152 21.715 32.3033 21.7078 31.8889L10.0176 39.6107L10.6 40.5001Z" fill="#0D2436"/>
<defs>
<linearGradient id="paint0_linear" x1="60.2263" y1="69.0213" x2="10.168" y2="14.3691" gradientUnits="userSpaceOnUse">
<stop stop-color="#10A8A6"/>
<stop offset="1" stop-color="#B9E6E6"/>
</linearGradient>
</defs>
</svg>
