<svg width="76" height="78" viewBox="0 0 76 78" fill="none" xmlns="http://www.w3.org/2000/svg">
<path opacity="0.2" d="M0.136165 38.8965C1.85021 19.0894 19.2965 4.42212 39.1035 6.13616C58.9106 7.8502 73.5779 25.2965 71.8638 45.1035C70.1498 64.9106 52.7035 79.5779 32.8965 77.8638C13.0894 76.1498 -1.57788 58.7035 0.136165 38.8965Z" fill="url(#paint0_linear)"/>
<path d="M75.1633 11.4615L68.2093 5.85323C67.6046 5.36555 66.6901 5.45962 66.2888 6.05076L58.4045 15.6596L57.3132 5.04938C57.2386 4.3239 56.5331 3.75494 55.8014 3.8302L45.5584 4.88372L45.1947 1.34698C45.1201 0.62149 44.4146 0.0525355 43.6829 0.127787L22.3739 2.31949C21.6422 2.39474 21.0673 3.09539 21.1419 3.82087L21.5057 7.35761L11.3542 8.40173C10.6225 8.47698 10.0476 9.17762 10.1222 9.90311L15.9891 66.9444C16.0637 67.6699 16.7692 68.2388 17.5009 68.1636L61.9481 63.5921C62.6798 63.5168 63.2547 62.8162 63.18 62.0907L60.1114 32.2551C60.102 32.1644 60.102 32.1644 60.0927 32.0737L75.3592 13.3659C75.852 12.7653 75.768 11.9492 75.1633 11.4615ZM48.3486 41.8963L43.5204 38.0855L62.0813 15.4647L66.9189 19.3661L48.3486 41.8963ZM41.7136 40.2876C41.7043 40.1969 41.7043 40.1969 41.7136 40.2876L41.7957 40.1875L46.6333 44.0889C46.6333 44.0889 46.6426 44.1796 46.5512 44.189L37.9634 49.6545L41.7136 40.2876ZM24.0255 4.89896L42.5909 2.98945L43.2905 9.79088L24.7251 11.7004L24.0255 4.89896ZM60.2965 61.0126L18.5929 65.3019L13.0058 10.9812L21.7855 10.0782L22.1213 13.3429C22.1959 14.0684 22.9014 14.6373 23.633 14.5621L44.9421 12.3704C45.6738 12.2951 46.2487 11.5945 46.174 10.869L45.8383 7.60429L54.618 6.70127L55.8492 18.6718L39.6793 38.4806C39.6793 38.4806 39.6886 38.5713 39.5972 38.5807C39.4236 38.6902 39.2593 38.8904 39.1958 39.1719L33.9262 52.6358C33.7078 53.2081 33.8646 53.8335 34.3591 54.1492C34.6615 54.3931 35.0366 54.4461 35.4025 54.4085C35.5854 54.3897 35.8504 54.2708 36.024 54.1613L48.1655 46.4057C48.3391 46.2962 48.5033 46.096 48.6676 45.8958C48.6676 45.8958 48.759 45.8864 48.7497 45.7957L57.6195 34.9858L60.2965 61.0126ZM68.7257 17.1641L63.8882 13.2627L67.5018 8.85864L72.3394 12.76L68.7257 17.1641Z" fill="#0D2436"/>
<path d="M20.079 21.3428L50.2593 18.2386C50.9909 18.1634 51.5658 17.4627 51.4912 16.7372C51.4166 16.0118 50.7111 15.4428 49.9794 15.5181L19.7992 18.6222C19.0676 18.6974 18.4927 19.3981 18.5673 20.1236C18.6419 20.8491 19.3474 21.418 20.079 21.3428Z" fill="#0D2436"/>
<path d="M20.6107 26.5118L50.7909 23.4077C51.5226 23.3324 52.0975 22.6318 52.0228 21.9063C51.9482 21.1808 51.2427 20.6119 50.5111 20.6871L20.3308 23.7912C19.5992 23.8665 19.0243 24.5671 19.0989 25.2926C19.1735 26.0181 19.879 26.5871 20.6107 26.5118Z" fill="#0D2436"/>
<path d="M29.8838 48.3777L23.0246 49.0832C22.293 49.1584 21.7181 49.859 21.7927 50.5845L22.4922 57.386C22.5669 58.1114 23.2723 58.6804 24.004 58.6051L30.8631 57.8997C31.5948 57.8244 32.1697 57.1238 32.095 56.3983L31.3955 49.5969C31.3209 48.8714 30.6154 48.3024 29.8838 48.3777ZM29.2115 55.3202L25.096 55.7435L24.6763 51.6626L28.7917 51.2393L29.2115 55.3202Z" fill="#0D2436"/>
<path d="M25.7405 44.0383C25.3747 44.0759 24.9996 44.0228 24.6972 43.779L20.2535 40.112C19.6488 39.6243 19.5648 38.8082 20.0576 38.2076C20.5504 37.6071 21.3735 37.5224 21.9782 38.0101L25.4048 40.7736L32.3035 32.3658C32.7963 31.7653 33.6194 31.6806 34.2241 32.1683C34.8288 32.656 34.9127 33.4722 34.42 34.0727L26.6178 43.5815C26.4629 43.8723 26.1064 44.0006 25.7405 44.0383Z" fill="#0D2436"/>
<defs>
<linearGradient id="paint0_linear" x1="60.2263" y1="69.5266" x2="10.168" y2="14.8745" gradientUnits="userSpaceOnUse">
<stop stop-color="#10A8A6"/>
<stop offset="1" stop-color="#B9E6E6"/>
</linearGradient>
</defs>
</svg>
