<svg width="80" height="81" viewBox="0 0 80 81" fill="none" xmlns="http://www.w3.org/2000/svg">
<path opacity="0.2" d="M4.13616 41.0405C5.85021 21.2335 23.2965 6.56617 43.1035 8.28021C62.9106 9.99425 77.5779 27.4405 75.8638 47.2476C74.1498 67.0546 56.7035 81.7219 36.8965 80.0079C17.0894 78.2938 2.42212 60.8475 4.13616 41.0405Z" fill="url(#paint0_linear)"/>
<path d="M39.5998 46.8998C34.9998 46.8998 30.5998 45.0998 27.3998 41.7998C24.0998 38.4998 22.2998 34.1998 22.2998 29.5998C22.2998 24.9998 24.0998 20.5998 27.3998 17.3998C30.6998 14.1998 34.9998 12.2998 39.5998 12.2998C44.1998 12.2998 48.5998 14.0998 51.7998 17.3998C55.0998 20.6998 56.8998 24.9998 56.8998 29.5998C56.8998 34.1998 55.0998 38.5998 51.7998 41.7998C48.5998 45.0998 44.1998 46.8998 39.5998 46.8998ZM39.5998 14.5998C31.2998 14.5998 24.5998 21.2998 24.5998 29.5998C24.5998 37.8998 31.2998 44.5998 39.5998 44.5998C47.8998 44.5998 54.5998 37.8998 54.5998 29.5998C54.5998 21.2998 47.8998 14.5998 39.5998 14.5998Z" fill="#0D2436" stroke="#0D2436" stroke-width="0.5"/>
<path d="M39.5998 57.2C38.4998 57.2 37.3998 56.9 36.4998 56.4C36.2998 56.3 36.0998 56.2 35.8998 56C35.4998 55.8 35.1998 55.5 34.8998 55.2L31.9998 52.4C31.1998 51.6 30.0998 51.1 28.8998 51.1H24.7998C21.0998 51.1 18.0998 48.1 18.0998 44.4V40.3C18.0998 39.1 17.5998 38 16.7998 37.2L13.9998 34.3C11.3998 31.7 11.3998 27.5 13.9998 24.9L16.7998 22C17.5998 21.2 18.0998 20 18.0998 18.9V14.8C18.0998 11.1 21.0998 8.1 24.7998 8.1H28.8998C30.0998 8.1 31.1998 7.6 31.9998 6.8L34.8998 4C36.1998 2.7 37.7998 2 39.5998 2C41.3998 2 43.0998 2.7 44.2998 4L47.1998 6.9C47.9998 7.7 49.0998 8.2 50.2998 8.2H54.3998C58.0998 8.2 61.0998 11.2 61.0998 14.9V19C61.0998 20.2 61.5998 21.3 62.3998 22.1L65.2998 25C67.8998 27.6 67.8998 31.8 65.2998 34.4L62.3998 37.3C61.5998 38.1 61.0998 39.2 61.0998 40.4V44.5C61.0998 48.2 58.0998 51.2 54.3998 51.2H50.2998C49.0998 51.2 47.9998 51.7 47.1998 52.5L44.2998 55.4C43.9998 55.7 43.6998 56 43.2998 56.2C43.0998 56.3 42.8998 56.4 42.6998 56.6C41.7998 56.9 40.6998 57.2 39.5998 57.2ZM24.7998 10.4C22.3998 10.4 20.3998 12.4 20.3998 14.8V18.9C20.3998 20.7 19.6998 22.4 18.3998 23.6L15.4998 26.5C13.7998 28.2 13.7998 31 15.4998 32.7L18.3998 35.6C19.6998 36.9 20.3998 38.5 20.3998 40.3V44.4C20.3998 46.8 22.3998 48.8 24.7998 48.8H28.8998C30.6998 48.8 32.3998 49.5 33.5998 50.8L36.4998 53.7C36.6998 53.9 36.8998 54.1 37.1998 54.2C37.2998 54.3 37.3998 54.4 37.5998 54.4C38.8998 55.1 40.4998 55.1 41.7998 54.4C41.8998 54.3 42.0998 54.2 42.1998 54.2C42.3998 54 42.6998 53.9 42.8998 53.7L45.7998 50.8C47.0998 49.5 48.6998 48.8 50.4998 48.8H54.5998C56.9998 48.8 58.9998 46.8 58.9998 44.4V40.3C58.9998 38.5 59.6998 36.8 60.9998 35.6L63.8998 32.7C65.5998 31 65.5998 28.2 63.8998 26.5L60.9998 23.6C59.6998 22.3 58.9998 20.7 58.9998 18.9V14.8C58.9998 12.4 56.9998 10.4 54.5998 10.4H50.4998C48.6998 10.4 46.9998 9.7 45.7998 8.4L42.8998 5.5C41.1998 3.8 38.3998 3.8 36.6998 5.5L33.7998 8.4C32.4998 9.7 30.8998 10.4 29.0998 10.4H24.7998Z" fill="#0D2436" stroke="#0D2436" stroke-width="0.5"/>
<path d="M25.4998 49.8999L19.6998 64.7999L26.6998 63.6999L31.1998 69.0999L36.3998 55.3999" stroke="#0D2436" stroke-width="2.6" stroke-miterlimit="10" stroke-linecap="round" stroke-linejoin="round"/>
<path d="M53.6998 49.8999L59.3998 64.7999L52.4998 63.6999L47.9998 69.0999L42.7998 55.3999" stroke="#0D2436" stroke-width="2.6" stroke-miterlimit="10" stroke-linecap="round" stroke-linejoin="round"/>
<path d="M34.5999 34.7998L44.5999 24.7998" stroke="#0D2436" stroke-width="2.6" stroke-miterlimit="10" stroke-linecap="round" stroke-linejoin="round"/>
<path d="M44.5999 34.7998L34.5999 24.7998" stroke="#0D2436" stroke-width="2.6" stroke-miterlimit="10" stroke-linecap="round" stroke-linejoin="round"/>
<defs>
<linearGradient id="paint0_linear" x1="64.2263" y1="71.6707" x2="14.168" y2="17.0185" gradientUnits="userSpaceOnUse">
<stop stop-color="#10A8A6"/>
<stop offset="1" stop-color="#B9E6E6"/>
</linearGradient>
</defs>
</svg>
