<svg width="69" height="57" viewBox="0 0 69 57" fill="none" xmlns="http://www.w3.org/2000/svg">
<path opacity="0.2" d="M7.0688 26.5861C8.40194 11.1806 21.9713 -0.227236 37.3768 1.10591C52.7822 2.43905 64.1901 16.0084 62.857 31.4139C61.5238 46.8194 47.9545 58.2272 32.549 56.8941C17.1435 55.561 5.73565 41.9916 7.0688 26.5861Z" fill="url(#paint0_linear)"/>
<path d="M38.1891 43.7428L42.3574 45.4548L43.1127 44.6954L46.9723 44.7849V48.3577C46.9723 48.8043 47.2701 49.1021 47.7167 49.1021C48.1633 49.1021 48.461 48.8043 48.461 48.3577V44.636C48.9821 44.4127 49.2798 43.8172 49.3542 43.2962V36.2994C49.3542 35.704 48.9821 35.1829 48.461 34.8852V34.2897C48.461 33.8431 48.6099 33.4709 48.8332 33.0988C50.7685 30.4936 51.8105 27.2929 51.8105 24.0178V12.9272H67.2184C67.665 12.9272 67.9627 12.6294 67.9627 12.1828V7.49351C67.9627 7.04691 67.665 6.74917 67.2184 6.74917H51.6617C51.2151 5.33493 49.9497 4.29285 48.461 4.29285C47.7911 4.29285 47.1212 4.51616 46.6002 4.88832C46.4513 2.80418 44.8882 1.0922 42.804 0.868894C41.5387 0.720027 40.3477 1.0922 39.4545 1.91097C39.2312 2.13427 39.0079 2.35757 38.7846 2.65531C37.4448 0.720027 34.8396 0.273423 32.9043 1.5388C32.5322 1.83653 32.16 2.2087 31.8623 2.65531C31.7134 2.35757 31.4901 2.13427 31.2668 1.91097C30.3736 1.0922 29.1826 0.720027 27.9917 0.79446C25.7587 1.0922 24.1211 2.95304 24.1956 5.18606V6.74917H8.71332C8.63889 6.74917 8.56445 6.74917 8.49002 6.82361L1.49323 9.20549C1.12106 9.35436 0.897762 9.72653 1.04663 10.1731C1.12106 10.3964 1.26993 10.5453 1.49323 10.6197L8.49002 12.9272C8.56445 12.9272 8.63889 12.9272 8.71332 12.9272H17.6454C17.2732 13.6715 17.1244 14.4903 17.1244 15.3091V19.0308C17.1244 24.9855 20.5483 30.4192 25.9076 32.9499C26.5775 33.2476 27.0241 33.9175 27.0985 34.7363V34.8107C26.6519 35.1085 26.3542 35.6295 26.3542 36.1506V43.2218C26.3542 43.7428 26.6519 44.2639 27.0985 44.5616V48.2833C27.0985 48.7299 27.3962 49.0276 27.8428 49.0276C28.2894 49.0276 28.5872 48.7299 28.5872 48.2833V44.7849H33.4254L34.0208 45.4548L38.1891 43.7428ZM4.09842 9.80096L8.86219 8.16342H24.1956V11.3641H8.86219L4.09842 9.80096ZM33.7975 43.2962H33.4254H27.9173C27.9173 43.2962 27.8428 43.2962 27.8428 43.2218V36.1506C27.8428 36.1506 27.8428 36.0761 27.9173 36.0761H36.9238L38.2636 33.6198L39.6034 36.0761L42.283 36.1506L47.8655 36.0761C47.8655 36.0761 47.94 36.1506 47.8655 36.1506V43.2218C47.8655 43.2218 47.8656 43.2962 47.7911 43.2962H42.5807L42.0597 45.1571L38.5613 43.3706H37.817L34.4674 44.7849L33.7975 43.2962ZM36.8493 34.5874H28.5872C28.5127 33.3221 27.7684 32.1311 26.5775 31.6101C21.7393 29.2282 18.613 24.39 18.613 18.9563V15.2346C18.613 14.3414 18.8363 13.5227 19.3574 12.8528H24.1211V18.0631C24.1211 18.5097 24.4189 18.8075 24.8655 18.8075C25.3121 18.8075 25.6098 18.5097 25.6098 18.0631V12.1084V7.49351C25.6098 7.41908 25.6098 7.41908 25.6098 7.34464V5.18606C25.6098 3.69738 26.6519 2.50644 28.0661 2.28314C29.5548 2.13427 30.8946 3.25078 31.0435 4.81389C31.0435 4.88832 31.0435 4.96276 31.0435 5.03719C31.0435 5.4838 31.3412 5.78153 31.7878 5.78153C32.2344 5.78153 32.5322 5.4838 32.5322 5.03719C32.6066 3.54851 33.872 2.35757 35.4351 2.43201C36.8493 2.50644 37.9658 3.62295 38.0403 5.03719C38.0403 5.4838 38.338 5.78153 38.7846 5.78153C39.2312 5.78153 39.529 5.4838 39.529 5.03719C39.529 4.29285 39.8267 3.54851 40.4222 3.02748C41.0176 2.50644 41.762 2.2087 42.5063 2.35757C43.9206 2.50644 45.0371 3.77182 44.9626 5.26049V7.71681C44.9626 8.16342 45.2604 8.46115 45.707 8.46115C46.1536 8.46115 46.4513 8.16342 46.4513 7.71681V7.49351C46.5257 6.52587 47.3445 5.78153 48.3122 5.78153C49.2798 5.78153 50.0986 6.6003 50.173 7.56795V23.9434C50.173 26.9208 49.4287 29.6004 47.6422 31.9823L47.5678 32.1311C47.1212 32.7266 46.8979 33.4709 46.8979 34.2153V34.6619H39.6778L38.1147 32.6522L36.8493 34.5874ZM66.474 11.4385H51.8105V8.23785H66.474V11.4385Z" fill="#0D2436" stroke="#0D2436" stroke-width="0.7" stroke-miterlimit="10"/>
<path d="M38.4126 32.8009L40.3479 36.7459C40.3479 36.8204 40.4223 36.8204 40.4223 36.8204L44.8139 37.4903C44.9628 37.4903 44.9628 37.6391 44.8883 37.7136L41.6877 40.7654C41.6877 40.7654 41.6132 40.8398 41.6132 40.9142L42.3576 45.3058C42.3576 45.4547 42.2832 45.5291 42.1343 45.4547L38.1893 43.3706C38.1149 43.3706 38.1149 43.3706 38.0404 43.3706L34.0954 45.4547C34.021 45.5291 33.8721 45.4547 33.8721 45.3058L34.6165 40.9142C34.6165 40.8398 34.6165 40.8398 34.542 40.7654L31.3414 37.7136C31.2669 37.6391 31.2669 37.4903 31.4158 37.4903L35.8074 36.8204C35.8818 36.8204 35.8818 36.8204 35.8818 36.7459L37.8171 32.8009C38.1893 32.7265 38.3382 32.7265 38.4126 32.8009Z" stroke="#0D2436" stroke-width="2.5" stroke-miterlimit="10" stroke-linecap="round" stroke-linejoin="round"/>
<path d="M10.2021 7.27075V12.2578" stroke="#0D2436" stroke-width="2.25" stroke-miterlimit="10"/>
<path d="M60.0728 7.27075V12.2578" stroke="#0D2436" stroke-width="2.25" stroke-miterlimit="10"/>
<defs>
<linearGradient id="paint0_linear" x1="53.8056" y1="50.4096" x2="14.8713" y2="7.90236" gradientUnits="userSpaceOnUse">
<stop stop-color="#10A8A6"/>
<stop offset="1" stop-color="#B9E6E6"/>
</linearGradient>
</defs>
</svg>
