<svg width="72" height="80" viewBox="0 0 72 80" fill="none" xmlns="http://www.w3.org/2000/svg">
<path opacity="0.2" d="M0.136165 40.8965C1.85021 21.0894 19.2965 6.42212 39.1035 8.13616C58.9106 9.8502 73.5779 27.2965 71.8638 47.1035C70.1498 66.9106 52.7035 81.5779 32.8965 79.8638C13.0894 78.1498 -1.57788 60.7035 0.136165 40.8965Z" fill="url(#paint0_linear)"/>
<path d="M61.4344 20.9381L53.4353 20.2617C49.9681 19.9686 50.0182 16.8597 50.0638 16.2467L50.7484 8.14976L61.4344 20.9381ZM61.631 47.8858L63.8071 50.4797L66.1439 22.8421L51.0352 4.75832L51.0418 4.68014L50.9647 4.67362L49.7508 3.2206L22.0186 0.875806C19.921 0.698452 15.8467 1.6415 15.4375 6.48211L10.9634 59.3975C10.7844 61.5147 11.7133 65.6243 16.5097 66.0299L56.1036 69.3776C58.1998 69.5548 62.2748 68.6112 62.6841 63.7705L62.9878 60.1788L60.8117 57.5842L60.3056 63.5701C60.0093 67.0734 56.9214 67.0299 56.3024 66.9851L16.712 63.6377C13.2442 63.3445 13.297 60.2186 13.3432 59.5994L17.8173 6.68332C18.1137 3.17735 21.2062 3.22469 21.8162 3.26868L48.5607 5.52995L48.5738 5.54556L47.6861 16.045C47.6584 16.3728 47.6693 16.7557 47.7081 17.1575L25.4014 15.2715C24.7436 15.2159 24.1665 15.7072 24.1107 16.3677C24.0548 17.0281 24.5413 17.6087 25.1991 17.6644L48.4213 19.6278C49.1859 21.1168 50.6261 22.4342 53.233 22.6546L63.6009 23.5312L63.682 23.6279L61.631 47.8858ZM33.3998 35.6151C33.4619 34.8812 33.5941 34.1699 33.7594 33.4731L23.9327 32.6423C23.2749 32.5866 22.6978 33.078 22.642 33.7384C22.5861 34.3989 23.0726 34.9788 23.7305 35.0344L33.3922 35.8513C33.3975 35.773 33.393 35.6953 33.3998 35.6151ZM24.4647 26.3504L36.8205 27.3951C37.517 26.5713 38.3018 25.8322 39.158 25.1821L24.6671 23.9569C24.0092 23.9012 23.4322 24.3926 23.3763 25.0538C23.3205 25.7135 23.8069 26.2948 24.4647 26.3504ZM34.4014 42.2749L23.1984 41.3276C22.5405 41.272 21.9635 41.7627 21.9076 42.4238C21.8518 43.0843 22.3382 43.6649 22.996 43.7205L35.703 44.7949C35.1905 44.0021 34.7544 43.1591 34.4014 42.2749ZM52.9224 52.589L22.464 50.0137C21.8061 49.9581 21.2291 50.4488 21.1733 51.1092C21.1174 51.7704 21.6038 52.3509 22.2616 52.4066L52.7207 54.9819C53.3786 55.0375 53.9556 54.5469 54.0115 53.8857C54.0673 53.2253 53.5802 52.6446 52.9224 52.589ZM46.9872 47.4703C41.1607 46.9776 36.824 41.8083 37.3196 35.9465C37.8152 30.0847 42.9583 25.7168 48.7848 26.2095C54.6113 26.7021 58.9479 31.8722 58.4523 37.7333C57.9568 43.5944 52.8137 47.9629 46.9872 47.4703ZM70.7547 60.897L57.7808 45.4328C57.7595 45.4075 57.733 45.388 57.7103 45.3646C59.4464 43.346 60.597 40.7895 60.8383 37.935C61.4458 30.7495 56.1299 24.4129 48.9877 23.8091C41.8456 23.2052 35.5412 28.5593 34.9337 35.7448C34.3261 42.9302 39.642 49.2668 46.7842 49.8707C49.6214 50.1106 52.3201 49.3987 54.5888 48.0163C54.6085 48.0422 54.6232 48.0717 54.6438 48.0963L67.6176 63.5612C67.9831 63.9969 68.4897 64.2421 69.0126 64.2863C69.5354 64.3305 70.076 64.1738 70.5094 63.8057C71.3756 63.0701 71.4857 61.7677 70.7547 60.897Z" fill="#0D2436" stroke="#0D2436" stroke-width="0.25"/>
<path d="M45.711 42.5652C45.3671 42.5362 45.0305 42.4219 44.7942 42.1443L41.3357 37.9887C40.8631 37.4336 40.9279 36.6664 41.487 36.1986C42.046 35.7307 42.8197 35.796 43.2923 36.3511L45.9703 39.4964L53.7967 32.946C54.3557 32.4782 55.1295 32.5435 55.602 33.0986C56.0746 33.6537 56.0098 34.4209 55.4508 34.8887L46.5995 42.2969C46.4059 42.5381 46.0549 42.5943 45.711 42.5652Z" fill="#0D2436"/>
<defs>
<linearGradient id="paint0_linear" x1="60.2263" y1="71.5266" x2="10.168" y2="16.8745" gradientUnits="userSpaceOnUse">
<stop stop-color="#10A8A6"/>
<stop offset="1" stop-color="#B9E6E6"/>
</linearGradient>
</defs>
</svg>
