<svg width="1121" height="400" viewBox="0 0 1121 400" fill="none" xmlns="http://www.w3.org/2000/svg">
<path fill-rule="evenodd" clip-rule="evenodd" d="M1106.3 285.452C1105.78 286.257 1105.26 287.565 1104.8 289.637C1103.95 293.523 1103.59 297.079 1103.36 299.405C1103.34 299.572 1103.33 299.732 1103.31 299.886C1103.25 300.459 1103.2 300.946 1103.15 301.321C1103.12 301.509 1103.1 301.675 1103.07 301.813C1103.04 301.945 1103 302.077 1102.95 302.183C1102.93 302.234 1102.89 302.309 1102.82 302.373C1102.74 302.445 1102.61 302.519 1102.44 302.496C1102.3 302.476 1102.2 302.391 1102.15 302.339C1102.1 302.284 1102.06 302.221 1102.04 302.168C1101.93 301.967 1101.82 301.62 1101.71 301.162C1101.65 300.948 1101.78 300.732 1102 300.678C1102.15 300.637 1102.32 300.699 1102.41 300.822C1102.44 300.532 1102.48 300.192 1102.52 299.806C1102.53 299.652 1102.55 299.49 1102.57 299.322C1102.8 296.996 1103.16 293.399 1104.02 289.466C1104.49 287.348 1105.04 285.937 1105.63 285.021C1106.23 284.099 1106.88 283.65 1107.52 283.524C1108.16 283.399 1108.71 283.606 1109.08 283.82C1109.27 283.928 1109.42 284.043 1109.53 284.131C1109.58 284.176 1109.62 284.214 1109.65 284.242C1109.66 284.256 1109.67 284.268 1109.68 284.276L1109.69 284.287L1109.7 284.291L1109.7 284.292L1109.7 284.293C1109.7 284.293 1109.7 284.293 1109.41 284.564L1109.7 284.293C1109.85 284.454 1109.84 284.706 1109.68 284.856C1109.52 285.006 1109.27 284.997 1109.12 284.837C1109.12 284.836 1109.12 284.836 1109.12 284.836L1109.12 284.836L1109.11 284.833C1109.11 284.83 1109.1 284.823 1109.09 284.814C1109.08 284.797 1109.05 284.77 1109.01 284.738C1108.93 284.674 1108.82 284.589 1108.69 284.51C1108.41 284.35 1108.06 284.232 1107.68 284.306C1107.3 284.379 1106.82 284.653 1106.3 285.452ZM1109.12 284.836C1109.12 284.836 1109.12 284.836 1109.12 284.836ZM1102.23 301.844C1102.23 301.847 1102.23 301.847 1102.23 301.844Z" fill="#72AAEA"/>
<path fill-rule="evenodd" clip-rule="evenodd" d="M1107.66 289.982C1107.75 290.185 1107.65 290.418 1107.45 290.501L1101.67 292.868C1101.47 292.951 1101.23 292.854 1101.15 292.65C1101.07 292.446 1101.16 292.214 1101.37 292.13L1107.14 289.764C1107.35 289.681 1107.58 289.778 1107.66 289.982Z" fill="#72AAEA"/>
<path fill-rule="evenodd" clip-rule="evenodd" d="M1112.43 287.462C1112.43 287.462 1112.43 287.462 1112.43 287.462L1112.42 287.465L1112.42 287.479C1112.41 287.491 1112.4 287.509 1112.39 287.534C1112.37 287.584 1112.34 287.659 1112.3 287.756C1112.22 287.949 1112.1 288.231 1111.99 288.579C1111.75 289.278 1111.49 290.234 1111.39 291.277C1111.18 293.365 1111.61 295.713 1114.02 297.119C1114.21 297.23 1114.27 297.474 1114.16 297.664C1114.05 297.854 1113.81 297.918 1113.62 297.807C1110.83 296.177 1110.38 293.439 1110.6 291.199C1110.71 290.077 1110.98 289.059 1111.23 288.324C1111.36 287.956 1111.47 287.656 1111.56 287.448C1111.61 287.344 1111.64 287.262 1111.67 287.206C1111.68 287.178 1111.69 287.156 1111.7 287.141L1111.7 287.123L1111.71 287.118L1111.71 287.117C1111.71 287.116 1111.71 287.116 1112.07 287.289L1111.71 287.116C1111.8 286.918 1112.04 286.835 1112.24 286.93C1112.44 287.026 1112.52 287.264 1112.43 287.462Z" fill="#72AAEA"/>
<path fill-rule="evenodd" clip-rule="evenodd" d="M1112.74 289.476C1112.87 289.298 1113.12 289.259 1113.3 289.389L1117.39 292.369C1117.56 292.498 1117.6 292.747 1117.47 292.925C1117.34 293.103 1117.09 293.142 1116.92 293.012L1112.83 290.033C1112.65 289.903 1112.61 289.654 1112.74 289.476Z" fill="#72AAEA"/>
<path fill-rule="evenodd" clip-rule="evenodd" d="M1116.48 288.059C1116.66 288.176 1116.72 288.422 1116.6 288.608L1113.41 293.699C1113.29 293.885 1113.05 293.942 1112.86 293.825C1112.67 293.708 1112.62 293.462 1112.73 293.276L1115.93 288.185C1116.05 287.998 1116.29 287.942 1116.48 288.059Z" fill="#72AAEA"/>
<path fill-rule="evenodd" clip-rule="evenodd" d="M272.263 32.5864C271.521 37.1064 274.584 41.3717 279.104 42.1133C283.624 42.8548 287.889 39.7919 288.631 35.2719C289.373 30.7519 286.31 26.4866 281.79 25.745C277.27 25.0035 273.004 28.0665 272.263 32.5864ZM278.975 42.8995C274.021 42.0866 270.664 37.4116 271.477 32.4574C272.289 27.5033 276.964 24.146 281.919 24.9589C286.873 25.7717 290.23 30.4467 289.417 35.4009C288.604 40.355 283.929 43.7123 278.975 42.8995Z" fill="#72AAEA"/>
<path fill-rule="evenodd" clip-rule="evenodd" d="M290.402 28.2696C285.402 29.2955 282.181 34.1804 283.207 39.1803C284.233 44.1802 289.118 47.4018 294.118 46.3758C299.117 45.3499 302.339 40.465 301.313 35.4651C300.287 30.4652 295.402 27.2437 290.402 28.2696ZM282.426 39.3404C281.312 33.9095 284.811 28.6035 290.242 27.4891C295.673 26.3748 300.979 29.8741 302.094 35.305C303.208 40.7359 299.709 46.0419 294.278 47.1563C288.847 48.2706 283.541 44.7713 282.426 39.3404Z" fill="#72AAEA"/>
<path fill-rule="evenodd" clip-rule="evenodd" d="M288.743 30.21C288.817 30.4172 288.709 30.6451 288.502 30.719L284.502 32.1451C284.295 32.2189 284.067 32.1109 283.993 31.9036C283.92 31.6964 284.028 31.4685 284.235 31.3946L288.234 29.9686C288.442 29.8947 288.669 30.0028 288.743 30.21Z" fill="#72AAEA"/>
<path fill-rule="evenodd" clip-rule="evenodd" d="M289.3 31.8578C289.375 32.0647 289.268 32.293 289.061 32.3678L283.309 34.4472C283.102 34.522 282.874 34.4149 282.799 34.208C282.724 34.0011 282.831 33.7727 283.038 33.6979L288.79 31.6186C288.997 31.5438 289.225 31.6509 289.3 31.8578Z" fill="#72AAEA"/>
<path fill-rule="evenodd" clip-rule="evenodd" d="M289.512 33.8414C289.591 34.0467 289.489 34.2772 289.284 34.3562L282.862 36.8259C282.657 36.9049 282.426 36.8025 282.347 36.5972C282.268 36.3918 282.371 36.1613 282.576 36.0824L288.998 33.6126C289.203 33.5336 289.433 33.6361 289.512 33.8414Z" fill="#72AAEA"/>
<path fill-rule="evenodd" clip-rule="evenodd" d="M289.049 36.5356C289.141 36.7356 289.052 36.972 288.852 37.0635L282.997 39.7404C282.797 39.8318 282.56 39.7438 282.469 39.5437C282.377 39.3436 282.465 39.1073 282.665 39.0158L288.521 36.3389C288.721 36.2474 288.958 36.3355 289.049 36.5356Z" fill="#72AAEA"/>
<path fill-rule="evenodd" clip-rule="evenodd" d="M288.018 38.6361C288.103 38.8393 288.007 39.0724 287.804 39.1569L283.358 41.0052C283.155 41.0897 282.922 40.9935 282.837 40.7903C282.753 40.5872 282.849 40.3541 283.052 40.2696L287.498 38.4213C287.701 38.3368 287.934 38.433 288.018 38.6361Z" fill="#72AAEA"/>
<path fill-rule="evenodd" clip-rule="evenodd" d="M283.935 22.3052C283.668 22.4537 283.392 22.583 283.124 22.6793C282.67 22.8419 282.147 22.9429 281.719 22.7731C281.487 22.6813 281.297 22.5148 281.178 22.2725C281.063 22.0399 281.027 21.763 281.047 21.4589C281.087 20.8383 281.334 20.3724 281.716 20.0634C282.088 19.763 282.551 19.6408 282.984 19.6218C283.418 19.6029 283.855 19.6856 284.21 19.8312C284.387 19.9042 284.555 19.9973 284.694 20.1108C284.808 20.2037 284.918 20.3231 284.988 20.4708C285.125 20.3088 285.366 20.2819 285.535 20.4119C285.708 20.5444 285.742 20.791 285.612 20.9657C285.612 20.9657 285.612 20.9657 285.612 20.9657L285.612 20.9658L285.612 20.9665L285.609 20.9704L285.597 20.9868C285.586 21.0015 285.57 21.0236 285.55 21.0522C285.509 21.1092 285.451 21.1918 285.384 21.2923C285.249 21.4944 285.077 21.7645 284.928 22.044C284.775 22.3298 284.66 22.5982 284.617 22.8029C284.596 22.9045 284.597 22.9557 284.601 22.978C284.77 23.0995 284.818 23.3329 284.707 23.5119C284.59 23.6986 284.344 23.7556 284.158 23.6392C283.755 23.3882 283.777 22.9243 283.837 22.639C283.86 22.5304 283.894 22.4181 283.935 22.3052ZM284.425 21.0186C284.317 21.1057 284.2 21.1935 284.076 21.2795C283.684 21.5509 283.249 21.788 282.855 21.9293C282.439 22.0785 282.156 22.0895 282.012 22.0325C281.958 22.0109 281.921 21.9793 281.893 21.9213C281.86 21.8537 281.828 21.7282 281.842 21.5105C281.87 21.0874 282.026 20.8373 282.217 20.683C282.418 20.5201 282.7 20.4317 283.019 20.4178C283.336 20.4039 283.658 20.4661 283.907 20.5682C284.031 20.619 284.126 20.6755 284.19 20.7279C284.255 20.7805 284.269 20.8132 284.27 20.8151C284.27 20.8152 284.27 20.8152 284.27 20.8152C284.299 20.9016 284.355 20.9714 284.425 21.0186ZM284.606 22.9924C284.606 22.9928 284.604 22.9905 284.603 22.9842C284.606 22.9889 284.607 22.992 284.606 22.9924Z" fill="#72AAEA"/>
<path fill-rule="evenodd" clip-rule="evenodd" d="M300.427 22.9262C300.625 23.0215 300.709 23.2595 300.614 23.4578L299.444 25.8898C299.733 25.7473 300.06 25.6685 300.41 25.7288L300.412 25.7293C300.95 25.8253 301.318 26.1363 301.469 26.5652C301.611 26.9717 301.537 27.4224 301.337 27.792C301.134 28.1662 300.785 28.4923 300.323 28.6451C299.854 28.8001 299.303 28.7656 298.723 28.478C298.526 28.3802 298.446 28.1412 298.543 27.9441C298.641 27.747 298.88 27.6665 299.077 27.7642C299.493 27.9705 299.827 27.9699 300.073 27.8886C300.325 27.8052 300.521 27.6248 300.636 27.4125C300.754 27.1955 300.77 26.9795 300.717 26.829C300.672 26.7012 300.56 26.5653 300.273 26.5137C300.081 26.4809 299.858 26.543 299.599 26.7214C299.341 26.8996 299.088 27.1672 298.861 27.4616C298.635 27.7531 298.447 28.0541 298.314 28.2842C298.249 28.3987 298.197 28.4943 298.162 28.5607C298.145 28.5938 298.132 28.6196 298.124 28.6367L298.114 28.6556L298.112 28.6598L298.112 28.6605C298.016 28.8586 297.778 28.9419 297.58 28.8465C297.382 28.7511 297.299 28.5132 297.394 28.3149L297.395 28.3136L299.896 23.1125C299.991 22.9143 300.229 22.8308 300.427 22.9262Z" fill="#72AAEA"/>
<path fill-rule="evenodd" clip-rule="evenodd" d="M462.789 395.248C462.94 395.088 463.192 395.081 463.352 395.232L467.28 398.945C467.44 399.096 467.447 399.348 467.296 399.508C467.145 399.668 466.892 399.675 466.733 399.524L462.805 395.811C462.645 395.66 462.638 395.408 462.789 395.248Z" fill="#72AAEA"/>
<path fill-rule="evenodd" clip-rule="evenodd" d="M467.228 394.219C467.411 394.342 467.46 394.589 467.337 394.772L464.047 399.687C463.924 399.87 463.677 399.919 463.494 399.797C463.311 399.675 463.262 399.427 463.385 399.244L466.675 394.329C466.797 394.146 467.045 394.097 467.228 394.219Z" fill="#72AAEA"/>
<path fill-rule="evenodd" clip-rule="evenodd" d="M475.179 394.355C475.256 394.561 475.151 394.791 474.945 394.867L471.009 396.333C470.803 396.41 470.574 396.305 470.497 396.099C470.42 395.893 470.525 395.664 470.731 395.587L474.667 394.121C474.873 394.044 475.102 394.149 475.179 394.355Z" fill="#72AAEA"/>
<path fill-rule="evenodd" clip-rule="evenodd" d="M476.396 390.136C476.541 389.971 476.793 389.955 476.958 390.101L479.348 392.212C479.513 392.358 479.529 392.609 479.383 392.774C479.237 392.939 478.986 392.955 478.821 392.809L476.431 390.698C476.266 390.552 476.25 390.3 476.396 390.136Z" fill="#72AAEA"/>
<path fill-rule="evenodd" clip-rule="evenodd" d="M481.028 387.475C481.239 387.537 481.361 387.758 481.299 387.969L478.272 398.358C478.21 398.569 477.989 398.691 477.778 398.629C477.567 398.568 477.445 398.347 477.507 398.135L480.534 387.746C480.596 387.535 480.817 387.414 481.028 387.475Z" fill="#72AAEA"/>
<path fill-rule="evenodd" clip-rule="evenodd" d="M1069.45 366.155C1069.53 366.104 1069.61 366.079 1069.7 366.085L1083.7 367.065C1083.9 367.079 1084.06 367.242 1084.07 367.443L1084.95 385.193C1084.96 385.329 1084.89 385.458 1084.78 385.537L1074.51 392.883C1074.43 392.937 1074.34 392.963 1074.25 392.956L1061.56 392.032C1061.37 392.018 1061.22 391.875 1061.2 391.689L1058.71 373.812C1058.69 373.662 1058.75 373.514 1058.88 373.428L1069.45 366.155ZM1069.79 366.89L1059.53 373.945L1061.94 391.261L1074.16 392.151L1084.14 385.016L1083.29 367.835L1069.79 366.89Z" fill="#72AAEA"/>
<path fill-rule="evenodd" clip-rule="evenodd" d="M1071.6 383.942C1071.67 383.887 1071.76 383.861 1071.86 383.868L1084.58 384.816C1084.8 384.832 1084.97 385.023 1084.95 385.243C1084.93 385.462 1084.74 385.627 1084.52 385.61L1071.94 384.673L1061.82 391.958C1061.64 392.086 1061.4 392.046 1061.27 391.867C1061.14 391.689 1061.18 391.44 1061.36 391.311L1071.6 383.942Z" fill="#72AAEA"/>
<path fill-rule="evenodd" clip-rule="evenodd" d="M1069.63 366.087C1069.85 366.061 1070.05 366.217 1070.07 366.435L1072.22 384.217C1072.25 384.436 1072.09 384.634 1071.88 384.661C1071.66 384.687 1071.46 384.531 1071.43 384.313L1069.28 366.531C1069.26 366.312 1069.41 366.114 1069.63 366.087Z" fill="#72AAEA"/>
<path fill-rule="evenodd" clip-rule="evenodd" d="M1083.99 367.225C1084.13 367.401 1084.09 367.651 1083.91 367.782L1073.31 375.693C1073.23 375.754 1073.13 375.781 1073.03 375.77L1059.06 374.152C1058.84 374.127 1058.68 373.929 1058.71 373.711C1058.73 373.492 1058.93 373.336 1059.15 373.361L1072.96 374.96L1083.44 367.144C1083.61 367.012 1083.86 367.048 1083.99 367.225Z" fill="#72AAEA"/>
<path fill-rule="evenodd" clip-rule="evenodd" d="M1073.04 374.977C1073.26 374.961 1073.45 375.127 1073.47 375.346L1074.67 392.531C1074.69 392.75 1074.52 392.941 1074.3 392.956C1074.08 392.971 1073.89 392.806 1073.88 392.586L1072.67 375.402C1072.66 375.182 1072.82 374.992 1073.04 374.977Z" fill="#72AAEA"/>
<path fill-rule="evenodd" clip-rule="evenodd" d="M106.113 366.007C106.288 365.652 106.716 365.506 107.071 365.68L120.146 372.103C120.501 372.277 120.647 372.706 120.473 373.061C120.299 373.415 119.87 373.561 119.516 373.387L106.44 366.964C106.086 366.79 105.939 366.361 106.113 366.007Z" fill="#72AAEA"/>
<path fill-rule="evenodd" clip-rule="evenodd" d="M115.8 360.725C116.181 360.83 116.405 361.223 116.3 361.604L112.552 375.266C112.448 375.647 112.054 375.872 111.673 375.767C111.292 375.663 111.068 375.269 111.173 374.888L114.921 361.226C115.025 360.845 115.419 360.621 115.8 360.725Z" fill="#72AAEA"/>
<path fill-rule="evenodd" clip-rule="evenodd" d="M117.428 354.748L116.949 354.217C116.656 354.481 116.632 354.933 116.896 355.227C117.159 355.519 117.609 355.544 117.903 355.283L117.91 355.277C117.917 355.271 117.931 355.26 117.95 355.245C117.988 355.215 118.046 355.172 118.121 355.124C118.275 355.026 118.475 354.924 118.688 354.87C118.897 354.817 119.095 354.816 119.282 354.887C119.465 354.956 119.711 355.12 119.97 355.531C120.179 355.862 120.265 356.34 120.215 356.957C120.165 357.566 119.988 358.234 119.76 358.871C119.534 359.504 119.268 360.081 119.057 360.501C118.952 360.71 118.861 360.879 118.797 360.994C118.766 361.051 118.741 361.095 118.724 361.124L118.706 361.156L118.701 361.164L118.701 361.165L118.701 361.165C118.701 361.165 118.701 361.165 118.701 361.165C118.546 361.427 118.573 361.758 118.769 361.99C118.965 362.223 119.287 362.306 119.571 362.198L124.821 360.195C125.19 360.054 125.375 359.641 125.235 359.272C125.094 358.903 124.68 358.717 124.311 358.858L120.77 360.209C120.884 359.942 121 359.654 121.107 359.352C121.357 358.652 121.576 357.854 121.64 357.074C121.704 356.301 121.621 355.466 121.18 354.767C120.788 354.148 120.315 353.747 119.786 353.548C119.261 353.35 118.754 353.378 118.338 353.483C117.928 353.586 117.584 353.77 117.352 353.918C117.233 353.994 117.137 354.064 117.07 354.117C117.036 354.144 117.008 354.166 116.988 354.183L116.963 354.204L116.955 354.212L116.952 354.214L116.951 354.216L116.95 354.216C116.95 354.216 116.949 354.217 117.428 354.748Z" fill="#72AAEA"/>
<path fill-rule="evenodd" clip-rule="evenodd" d="M303.65 321.211C298.742 323.174 296.354 328.744 298.317 333.653C300.28 338.561 305.85 340.949 310.758 338.986C315.667 337.023 318.055 331.453 316.092 326.545C314.129 321.636 308.559 319.248 303.65 321.211ZM297.882 333.827C295.823 328.678 298.328 322.835 303.477 320.776C308.625 318.718 314.468 321.222 316.527 326.371C318.586 331.519 316.081 337.362 310.932 339.421C305.784 341.48 299.941 338.975 297.882 333.827Z" fill="#72AAEA"/>
<path fill-rule="evenodd" clip-rule="evenodd" d="M314.406 316.24C313.131 317.202 311.562 318.759 309.858 320.76C309.774 320.858 309.626 320.87 309.528 320.786C309.429 320.702 309.418 320.555 309.501 320.456C311.216 318.443 312.81 316.858 314.124 315.866C314.779 315.371 315.377 315.016 315.892 314.833C316.402 314.652 316.883 314.623 317.255 314.868L317.255 314.868C317.536 315.054 317.698 315.363 317.774 315.732C317.849 316.1 317.845 316.552 317.777 317.067C317.64 318.099 317.238 319.439 316.617 320.991C315.373 324.098 313.232 328.099 310.489 332.261L310.489 332.261C307.745 336.422 304.913 339.967 302.548 342.335C301.366 343.518 300.292 344.416 299.397 344.948C298.951 345.214 298.537 345.396 298.168 345.471C297.799 345.546 297.451 345.519 297.169 345.332L297.169 345.332C296.798 345.087 296.635 344.633 296.601 344.093C296.566 343.546 296.658 342.857 296.855 342.059C297.249 340.461 298.078 338.372 299.252 336.004C299.309 335.888 299.45 335.841 299.566 335.899C299.681 335.956 299.729 336.097 299.671 336.212C298.504 338.565 297.692 340.62 297.309 342.171C297.118 342.948 297.038 343.585 297.068 344.063C297.099 344.547 297.238 344.817 297.427 344.941C297.571 345.036 297.778 345.072 298.074 345.012C298.372 344.951 298.735 344.797 299.158 344.546C300.004 344.042 301.046 343.175 302.216 342.004C304.553 339.665 307.366 336.146 310.098 332.004C312.829 327.859 314.953 323.887 316.182 320.817C316.797 319.28 317.183 317.981 317.313 317.006C317.378 316.517 317.376 316.123 317.315 315.826C317.254 315.53 317.14 315.353 316.996 315.259C316.808 315.134 316.506 315.112 316.049 315.274C315.598 315.434 315.044 315.758 314.406 316.24Z" fill="#72AAEA"/>
<path fill-rule="evenodd" clip-rule="evenodd" d="M290.608 327.362C290.366 327.543 290.254 327.721 290.229 327.891L290.229 327.892C290.196 328.107 290.294 328.377 290.607 328.707C290.916 329.033 291.404 329.382 292.061 329.743C293.373 330.463 295.307 331.2 297.681 331.884C297.805 331.92 297.877 332.05 297.841 332.174C297.805 332.298 297.676 332.37 297.551 332.334C295.163 331.646 293.191 330.897 291.836 330.153C291.16 329.782 290.624 329.406 290.267 329.029C289.913 328.656 289.702 328.247 289.766 327.823C289.815 327.488 290.026 327.211 290.329 326.986C290.631 326.762 291.042 326.575 291.538 326.419C292.532 326.107 293.917 325.905 295.586 325.812C298.928 325.627 303.458 325.879 308.388 326.609C313.319 327.339 317.729 328.41 320.874 329.555C322.445 330.126 323.712 330.721 324.572 331.307C325.002 331.6 325.341 331.898 325.565 332.201C325.789 332.504 325.911 332.83 325.861 333.164C325.793 333.626 325.419 333.978 324.904 334.243C324.382 334.511 323.659 334.721 322.78 334.878C321.02 335.191 318.578 335.298 315.721 335.19C315.592 335.185 315.491 335.077 315.496 334.948C315.501 334.818 315.609 334.718 315.739 334.722C318.58 334.83 320.985 334.722 322.698 334.417C323.557 334.264 324.227 334.064 324.69 333.826C325.16 333.584 325.363 333.331 325.398 333.096L325.398 333.096C325.423 332.925 325.368 332.722 325.189 332.479C325.008 332.236 324.715 331.972 324.308 331.694C323.495 331.14 322.269 330.561 320.714 329.995C317.606 328.864 313.229 327.799 308.32 327.073C303.411 326.346 298.913 326.097 295.611 326.28C293.959 326.371 292.618 326.57 291.679 326.865C291.208 327.013 290.852 327.181 290.608 327.362Z" fill="#72AAEA"/>
<path fill-rule="evenodd" clip-rule="evenodd" d="M295.432 312.85C295.128 312.757 294.938 312.782 294.821 312.858C294.731 312.916 294.652 313.023 294.601 313.213C294.55 313.405 294.533 313.664 294.558 313.993C294.609 314.651 294.824 315.539 295.195 316.62C295.935 318.778 297.276 321.653 299.071 324.892C299.134 325.005 299.093 325.147 298.98 325.21C298.867 325.273 298.724 325.232 298.662 325.119C296.86 321.867 295.504 318.966 294.752 316.772C294.376 315.677 294.146 314.745 294.091 314.029C294.064 313.671 294.079 313.354 294.149 313.092C294.219 312.828 294.351 312.604 294.567 312.465L294.567 312.464C294.85 312.281 295.204 312.29 295.569 312.402C295.937 312.515 296.357 312.745 296.816 313.066C297.736 313.71 298.862 314.757 300.117 316.119C302.63 318.846 305.694 322.866 308.714 327.533C311.738 332.2 314.153 336.641 315.613 340.05C316.342 341.753 316.838 343.208 317.049 344.311C317.154 344.861 317.191 345.338 317.144 345.719C317.097 346.098 316.96 346.424 316.676 346.607L316.676 346.607C316.303 346.848 315.81 346.76 315.302 346.524C314.779 346.282 314.162 345.848 313.475 345.26C312.097 344.08 310.395 342.24 308.541 339.931C308.46 339.83 308.477 339.683 308.577 339.602C308.678 339.521 308.826 339.537 308.907 339.638C310.752 341.937 312.434 343.752 313.779 344.904C314.454 345.482 315.033 345.883 315.499 346.099C315.979 346.322 316.266 346.315 316.422 346.214C316.539 346.139 316.64 345.976 316.679 345.661C316.718 345.349 316.69 344.927 316.589 344.399C316.387 343.345 315.907 341.925 315.182 340.234C313.736 336.857 311.335 332.44 308.321 327.788L308.321 327.788C305.311 323.136 302.263 319.139 299.773 316.437C298.526 315.084 297.427 314.065 296.547 313.45C296.106 313.141 295.733 312.943 295.432 312.85Z" fill="#72AAEA"/>
<path d="M318.507 319.306C318.015 320.051 317.018 320.257 316.273 319.765C315.529 319.273 315.322 318.276 315.814 317.531C316.306 316.787 317.303 316.581 318.048 317.072C318.792 317.564 318.994 318.562 318.507 319.306Z" fill="#72AAEA"/>
<path d="M313.173 343.981C312.681 344.725 311.684 344.931 310.939 344.439C310.195 343.948 309.988 342.95 310.48 342.206C310.972 341.461 311.969 341.255 312.714 341.747C313.454 342.238 313.66 343.236 313.173 343.981Z" fill="#72AAEA"/>
<path d="M304.566 327.249C304.074 327.993 303.077 328.199 302.332 327.708C301.588 327.216 301.382 326.218 301.873 325.474C302.365 324.729 303.362 324.523 304.107 325.015C304.852 325.507 305.058 326.504 304.566 327.249Z" fill="#72AAEA"/>
<path fill-rule="evenodd" clip-rule="evenodd" d="M39.3014 195.219C39.3039 195.061 39.3896 194.919 39.5263 194.847L48.5431 190.101C48.6797 190.03 48.8465 190.038 48.9807 190.124L57.8413 195.79C57.9758 195.876 58.0571 196.026 58.0545 196.184L57.8873 206.612C57.8847 206.77 57.799 206.912 57.6623 206.984L48.6455 211.73C48.5088 211.802 48.3418 211.793 48.2075 211.707L39.3503 206.029C39.2162 205.943 39.135 205.793 39.1375 205.635L39.3014 195.219ZM40.1732 195.52L40.0174 205.425L48.4407 210.825L57.0155 206.311L57.1746 196.394L48.7483 191.006L40.1732 195.52Z" fill="#72AAEA"/>
<path fill-rule="evenodd" clip-rule="evenodd" d="M37.8645 228.783C37.7465 228.565 37.8228 228.297 38.0348 228.185L47.0808 223.421C47.2179 223.349 47.3854 223.358 47.5201 223.444L56.4016 229.136C56.6098 229.269 56.6776 229.544 56.553 229.75C56.4283 229.956 56.1585 230.015 55.9503 229.882L47.2864 224.329L38.4621 228.977C38.2501 229.089 37.9825 229.002 37.8645 228.783Z" fill="#72AAEA"/>
<path fill-rule="evenodd" clip-rule="evenodd" d="M21.2633 194.661C21.2657 194.503 21.3515 194.361 21.4882 194.289L30.505 189.543C30.6417 189.471 30.8087 189.48 30.943 189.566L39.8001 195.243C39.9343 195.329 40.0155 195.48 40.013 195.638L39.8491 206.053C39.8466 206.211 39.7608 206.353 39.6241 206.425L30.6074 211.171C30.4707 211.243 30.3038 211.234 30.1695 211.148L21.3167 205.478C21.1824 205.392 21.1012 205.242 21.1037 205.084L21.2633 194.661ZM22.1352 194.961L21.9834 204.874L30.4024 210.266L38.9773 205.753L39.1331 195.847L30.7098 190.448L22.1352 194.961Z" fill="#72AAEA"/>
<path fill-rule="evenodd" clip-rule="evenodd" d="M30.8561 179.38C30.8586 179.222 30.9443 179.081 31.081 179.009L40.0978 174.263C40.2344 174.191 40.4012 174.199 40.5354 174.285L49.396 179.951C49.5305 180.037 49.6118 180.187 49.6092 180.345L49.4419 190.773C49.4394 190.931 49.3537 191.073 49.217 191.145L40.2002 195.891C40.0635 195.963 39.8965 195.954 39.7622 195.868L30.905 190.19C30.7709 190.104 30.6897 189.954 30.6922 189.796L30.8561 179.38ZM31.7279 179.681L31.5721 189.586L39.9953 194.986L48.5702 190.472L48.7293 180.555L40.303 175.167L31.7279 179.681Z" fill="#72AAEA"/>
<path d="M40.3714 196.729C41.0389 196.378 41.2793 195.536 40.9084 194.85C40.5376 194.163 39.6959 193.891 39.0284 194.243C38.3609 194.594 38.1205 195.435 38.4913 196.122C38.8622 196.808 39.7039 197.08 40.3714 196.729Z" fill="#72AAEA"/>
<path d="M12.4183 190.285C13.0857 189.933 13.3262 189.092 12.9553 188.405C12.5845 187.719 11.7427 187.447 11.0753 187.798C10.4078 188.15 10.1673 188.991 10.5382 189.678C10.909 190.364 11.7508 190.636 12.4183 190.285Z" fill="#72AAEA"/>
<path d="M54.9703 229.981C54.6006 229.297 54.8419 228.452 55.5074 228.102C56.1729 227.752 57.0177 228.025 57.3875 228.709C57.7572 229.394 57.5158 230.238 56.8504 230.588C56.1849 230.939 55.3401 230.666 54.9703 229.981Z" fill="#72AAEA"/>
<path d="M38.9173 229.985C39.5848 229.633 39.8252 228.792 39.4543 228.106C39.0835 227.419 38.2418 227.147 37.5743 227.499C36.9068 227.85 36.6664 228.691 37.0372 229.378C37.4081 230.064 38.2498 230.336 38.9173 229.985Z" fill="#72AAEA"/>
<path d="M58.2648 175.672C57.895 174.987 58.1364 174.143 58.8018 173.793C59.4673 173.442 60.3121 173.715 60.6819 174.4C61.0516 175.084 60.8103 175.928 60.1448 176.279C59.4836 176.637 58.6387 176.364 58.2648 175.672Z" fill="#72AAEA"/>
<path d="M47.9656 225.16C48.6331 224.808 48.8735 223.967 48.5027 223.28C48.1318 222.594 47.2901 222.322 46.6226 222.673C45.9551 223.025 45.7147 223.866 46.0856 224.553C46.4564 225.239 47.2981 225.511 47.9656 225.16Z" fill="#72AAEA"/>
<path d="M48.192 181.043C47.8223 180.358 48.0636 179.514 48.7291 179.164C49.3945 178.813 50.2394 179.086 50.6091 179.771C50.9789 180.455 50.7375 181.3 50.072 181.65C49.4108 182.008 48.566 181.735 48.192 181.043Z" fill="#72AAEA"/>
<path d="M46.9361 211.961C46.5664 211.276 46.8078 210.432 47.4732 210.082C48.1387 209.731 48.9835 210.004 49.3533 210.689C49.723 211.373 49.4817 212.218 48.8162 212.568C48.1507 212.918 47.3059 212.645 46.9361 211.961Z" fill="#72AAEA"/>
<path fill-rule="evenodd" clip-rule="evenodd" d="M49.0278 180.595C48.9092 180.373 48.9864 180.101 49.2003 179.988L59.248 174.649C59.462 174.536 59.7316 174.623 59.8502 174.845C59.9689 175.067 59.8916 175.338 59.6777 175.452L49.63 180.79C49.4161 180.904 49.1465 180.817 49.0278 180.595Z" fill="#72AAEA"/>
<path fill-rule="evenodd" clip-rule="evenodd" d="M48.0502 210.885C48.2904 210.905 48.4755 211.118 48.4636 211.361L47.8454 223.958C47.8335 224.2 47.6291 224.38 47.3889 224.359C47.1486 224.339 46.9635 224.126 46.9754 223.883L47.5937 211.286C47.6056 211.044 47.81 210.864 48.0502 210.885Z" fill="#72AAEA"/>
<path fill-rule="evenodd" clip-rule="evenodd" d="M11.3635 188.722C11.4808 188.514 11.7461 188.448 11.956 188.574L21.9775 194.59C22.1875 194.716 22.2626 194.987 22.1454 195.195C22.0281 195.403 21.7628 195.469 21.5529 195.343L11.5314 189.327C11.3214 189.201 11.2463 188.93 11.3635 188.722Z" fill="#72AAEA"/>
<path fill-rule="evenodd" clip-rule="evenodd" d="M12.5814 0.796695C6.5551 0.796695 1.67462 5.67754 1.67462 11.6955C1.67462 13.0721 1.92834 14.3859 2.39679 15.5992L2.39769 15.6016C3.05802 17.3445 4.16426 18.8738 5.57103 20.0499L5.57194 20.0507C7.21684 21.4343 9.27601 22.3409 11.5428 22.5562C11.8806 22.5868 12.2268 22.6022 12.5814 22.6022C15.4636 22.6022 18.0914 21.4805 20.0437 19.6358L20.0453 19.6343C22.1583 17.6596 23.4802 14.832 23.4802 11.6955C23.4802 9.32014 22.7194 7.1226 21.4282 5.33182L21.4277 5.33102C20.375 3.86351 18.961 2.67225 17.3163 1.88062L17.3147 1.87988C15.8787 1.18106 14.2731 0.796695 12.5814 0.796695ZM0.87793 11.6955C0.87793 5.23717 6.11547 0 12.5814 0C14.3948 0 16.1191 0.412196 17.6626 1.16312C19.4272 2.01265 20.9447 3.2909 22.0749 4.86642C23.4603 6.78814 24.2769 9.14749 24.2769 11.6955C24.2769 15.0596 22.8584 18.0954 20.59 20.2157C18.4953 22.1946 15.674 23.3989 12.5814 23.3989C12.2033 23.3989 11.8328 23.3825 11.4698 23.3495L11.4682 23.3493C9.03498 23.1184 6.82427 22.145 5.05956 20.6608C3.55094 19.3994 2.36305 17.7583 1.65309 15.885C1.14987 14.5811 0.87793 13.1705 0.87793 11.6955Z" fill="#72AAEA"/>
<path fill-rule="evenodd" clip-rule="evenodd" d="M20.3173 12.3885C19.5756 12.3885 18.9788 12.9885 18.9788 13.7349C18.9788 14.4789 19.5812 15.0813 20.3252 15.0813C21.0692 15.0813 21.6716 14.4789 21.6716 13.7349C21.6716 12.9933 21.0636 12.3885 20.3173 12.3885ZM18.1821 13.7349C18.1821 12.5533 19.1309 11.5918 20.3173 11.5918C21.4989 11.5918 22.4683 12.5485 22.4683 13.7349C22.4683 14.9189 21.5092 15.878 20.3252 15.878C19.1412 15.878 18.1821 14.9189 18.1821 13.7349Z" fill="#72AAEA"/>
<path fill-rule="evenodd" clip-rule="evenodd" d="M2.52779 15.9285C3.15244 17.4254 4.10964 18.7529 5.30279 19.8184C5.69643 19.3868 5.93712 18.8129 5.93712 18.181C5.93712 16.8323 4.84148 15.7352 3.4833 15.7352C3.14122 15.7352 2.81755 15.8031 2.52779 15.9285ZM1.8148 15.405C2.30255 15.1013 2.87786 14.9385 3.4833 14.9385C5.28003 14.9385 6.73381 16.3908 6.73381 18.181C6.73381 19.181 6.27871 20.072 5.57071 20.662C5.4228 20.7853 5.2079 20.7851 5.06019 20.6616C3.55105 19.3999 2.36281 17.7583 1.65284 15.8843C1.58542 15.7063 1.65327 15.5056 1.8148 15.405Z" fill="#72AAEA"/>
<path fill-rule="evenodd" clip-rule="evenodd" d="M16.1106 17.7108C13.7342 17.7108 11.8084 19.6428 11.8084 22.0209C11.8084 22.2108 11.8208 22.397 11.8453 22.5796C12.0865 22.5948 12.3317 22.6025 12.5812 22.6025C15.3547 22.6025 17.8926 21.5638 19.8197 19.8417C19.0762 18.5684 17.6955 17.7108 16.1106 17.7108ZM11.0117 22.0209C11.0117 19.2045 13.2925 16.9141 16.1106 16.9141C18.1165 16.9141 19.8449 18.0731 20.6741 19.7489C20.7518 19.9058 20.7179 20.0949 20.5907 20.2151C18.4958 22.1945 15.6742 23.3992 12.5812 23.3992C12.2032 23.3992 11.8326 23.3827 11.4696 23.3497C11.2954 23.3339 11.1519 23.2063 11.1159 23.0351C11.0463 22.7045 11.0117 22.3663 11.0117 22.0209Z" fill="#72AAEA"/>
<path fill-rule="evenodd" clip-rule="evenodd" d="M9.84079 2.41388C8.62638 2.41388 7.64191 3.39835 7.64191 4.61276C7.64191 5.82717 8.62638 6.81164 9.84079 6.81164C11.0552 6.81164 12.0397 5.82717 12.0397 4.61276C12.0397 3.39835 11.0552 2.41388 9.84079 2.41388ZM6.84521 4.61276C6.84521 2.95835 8.18638 1.61719 9.84079 1.61719C11.4952 1.61719 12.8364 2.95835 12.8364 4.61276C12.8364 6.26717 11.4952 7.60833 9.84079 7.60833C8.18638 7.60833 6.84521 6.26717 6.84521 4.61276Z" fill="#72AAEA"/>
<path fill-rule="evenodd" clip-rule="evenodd" d="M11.0437 11.1854C10.6025 11.1854 10.2391 11.5488 10.2391 11.99C10.2391 12.4313 10.6025 12.7947 11.0437 12.7947C11.485 12.7947 11.8484 12.4313 11.8484 11.99C11.8484 11.5488 11.485 11.1854 11.0437 11.1854ZM9.44238 11.99C9.44238 11.1088 10.1625 10.3887 11.0437 10.3887C11.925 10.3887 12.6451 11.1088 12.6451 11.99C12.6451 12.8713 11.925 13.5914 11.0437 13.5914C10.1625 13.5914 9.44238 12.8713 9.44238 11.99Z" fill="#72AAEA"/>
<path fill-rule="evenodd" clip-rule="evenodd" d="M17.2973 1.1723C17.4101 1.1103 17.5459 1.10663 17.6619 1.16246C19.427 2.01202 20.9448 3.29051 22.0752 4.86638C22.1486 4.96876 22.1693 5.09986 22.1309 5.21987C22.0925 5.33989 21.9996 5.43467 21.8804 5.47545C21.5291 5.59563 21.1499 5.64827 20.7715 5.64827C18.7179 5.64827 17.0669 3.98683 17.0669 1.93568C17.0669 1.77707 17.0757 1.62608 17.0935 1.47485C17.1086 1.347 17.1845 1.2343 17.2973 1.1723ZM17.8726 2.16809C17.9901 3.67255 19.2385 4.85158 20.7715 4.85158C20.8673 4.85158 20.9614 4.8474 21.0532 4.839C20.1791 3.75715 19.0989 2.84798 17.8726 2.16809Z" fill="#72AAEA"/>
<path fill-rule="evenodd" clip-rule="evenodd" d="M748.421 373.827C748.633 373.885 748.757 374.105 748.698 374.317L745.961 384.183L751.915 390.696C752.063 390.859 752.052 391.111 751.889 391.259C751.727 391.407 751.475 391.396 751.327 391.234L745.224 384.557C745.131 384.456 745.097 384.314 745.134 384.182L747.931 374.104C747.989 373.892 748.209 373.768 748.421 373.827Z" fill="#72AAEA"/>
<path fill-rule="evenodd" clip-rule="evenodd" d="M751.499 378.05C751.64 377.881 751.891 377.859 752.06 378L759.039 383.84C759.208 383.981 759.23 384.232 759.089 384.401C758.947 384.57 758.696 384.592 758.528 384.451L751.548 378.611C751.38 378.47 751.357 378.219 751.499 378.05Z" fill="#72AAEA"/>
<path fill-rule="evenodd" clip-rule="evenodd" d="M756.758 376.503C756.962 376.586 757.06 376.818 756.977 377.022L753.957 384.439C753.874 384.643 753.642 384.741 753.438 384.658C753.234 384.575 753.136 384.342 753.219 384.139L756.239 376.721C756.322 376.518 756.554 376.42 756.758 376.503Z" fill="#72AAEA"/>
<path fill-rule="evenodd" clip-rule="evenodd" d="M761.503 382.934C761.723 382.928 761.907 383.1 761.914 383.32L761.515 383.332C761.914 383.32 761.914 383.32 761.914 383.32L761.914 383.321L761.914 383.323L761.914 383.329L761.914 383.35C761.914 383.367 761.915 383.392 761.915 383.424C761.915 383.486 761.914 383.575 761.909 383.682C761.901 383.894 761.879 384.184 761.826 384.486C761.774 384.785 761.688 385.118 761.54 385.404C761.393 385.689 761.157 385.977 760.785 386.088C760.574 386.151 760.352 386.031 760.289 385.82C760.226 385.61 760.346 385.388 760.557 385.325C760.639 385.3 760.736 385.224 760.832 385.038C760.928 384.854 760.996 384.611 761.041 384.349C761.086 384.092 761.105 383.84 761.113 383.649C761.117 383.554 761.118 383.477 761.118 383.423C761.118 383.396 761.118 383.376 761.118 383.362L761.117 383.348L761.117 383.345C761.117 383.345 761.117 383.345 761.117 383.345M761.503 382.934C761.283 382.941 761.111 383.125 761.117 383.345Z" fill="#72AAEA"/>
<path fill-rule="evenodd" clip-rule="evenodd" d="M762.08 375.75C762.211 375.573 762.461 375.536 762.637 375.667L766.852 378.798C767.029 378.93 767.065 379.179 766.934 379.356C766.803 379.532 766.553 379.569 766.377 379.438L762.162 376.307C761.986 376.176 761.949 375.926 762.08 375.75Z" fill="#72AAEA"/>
<path fill-rule="evenodd" clip-rule="evenodd" d="M768.282 373.03C768.494 373.089 768.619 373.308 768.56 373.52L764.401 388.498C764.342 388.71 764.123 388.834 763.911 388.775C763.699 388.716 763.574 388.497 763.633 388.285L767.792 373.307C767.851 373.095 768.07 372.971 768.282 373.03Z" fill="#72AAEA"/>
<path fill-rule="evenodd" clip-rule="evenodd" d="M768.119 367.913C768.284 367.767 768.536 367.783 768.682 367.948L775.438 375.596C775.533 375.703 775.563 375.854 775.516 375.989L772.632 384.355C772.56 384.563 772.333 384.673 772.125 384.602C771.917 384.53 771.807 384.303 771.879 384.095L774.687 375.949L768.085 368.475C767.939 368.31 767.955 368.058 768.119 367.913Z" fill="#72AAEA"/>
<path fill-rule="evenodd" clip-rule="evenodd" d="M854.601 4.72891C854.74 4.7003 854.883 4.74765 854.978 4.85326L866.833 18.0864C866.908 18.1701 866.944 18.2816 866.932 18.3934C866.921 18.5052 866.862 18.6069 866.772 18.6734L845.141 34.5356C845.001 34.6383 844.811 34.6384 844.671 34.536C844.53 34.4335 844.473 34.2521 844.528 34.0875L854.304 4.99219C854.349 4.85779 854.462 4.75752 854.601 4.72891ZM854.841 5.89437L845.684 33.15L865.946 18.2908L854.841 5.89437Z" fill="#72AAEA"/>
<path fill-rule="evenodd" clip-rule="evenodd" d="M864.096 15.0478C864.24 15.2141 864.222 15.4657 864.056 15.6097L861.69 17.658L863.928 20.2168C864.073 20.3824 864.056 20.6341 863.89 20.7789C863.725 20.9237 863.473 20.9069 863.328 20.7413L860.827 17.8812C860.757 17.8014 860.722 17.6971 860.729 17.5913C860.736 17.4856 860.786 17.3871 860.866 17.3177L863.535 15.0073C863.701 14.8633 863.952 14.8815 864.096 15.0478Z" fill="#72AAEA"/>
<path fill-rule="evenodd" clip-rule="evenodd" d="M867.812 339.343C867.943 339.276 868.101 339.288 868.221 339.372L883.223 349.912C883.34 349.995 883.404 350.133 883.391 350.275C883.377 350.418 883.289 350.542 883.159 350.601L867.822 357.564C867.698 357.621 867.553 357.609 867.439 357.534C867.324 357.459 867.257 357.331 867.259 357.194L867.594 339.691C867.597 339.543 867.681 339.41 867.812 339.343ZM868.376 340.455L868.068 356.578L882.195 350.164L868.376 340.455Z" fill="#72AAEA"/>
<path fill-rule="evenodd" clip-rule="evenodd" d="M867.807 339.345C868.002 339.243 868.243 339.318 868.345 339.513L875.651 353.447C875.753 353.642 875.678 353.883 875.483 353.985C875.288 354.087 875.047 354.012 874.945 353.817L867.639 339.883C867.537 339.688 867.612 339.448 867.807 339.345Z" fill="#72AAEA"/>
<path fill-rule="evenodd" clip-rule="evenodd" d="M875.73 350.175C875.926 350.08 876.162 350.16 876.26 350.355L877.455 352.737C877.553 352.933 877.474 353.173 877.277 353.271C877.081 353.37 876.841 353.291 876.743 353.094L875.724 351.063L874.301 351.752C874.103 351.848 873.864 351.765 873.768 351.567C873.673 351.369 873.755 351.131 873.953 351.035L875.73 350.175Z" fill="#72AAEA"/>
<path fill-rule="evenodd" clip-rule="evenodd" d="M1055.53 107C1055.81 107.303 1055.79 107.772 1055.48 108.048C1047.12 115.655 1043.65 127.802 1047.64 139.138C1051.88 151.154 1063.22 158.631 1075.28 158.516C1075.69 158.512 1076.02 158.84 1076.03 159.25C1076.03 159.659 1075.7 159.995 1075.29 159.999C1062.62 160.12 1050.7 152.263 1046.25 139.631L1046.25 139.631C1042.05 127.713 1045.7 114.945 1054.48 106.951C1054.79 106.675 1055.26 106.697 1055.53 107Z" fill="#72AAEA"/>
<path fill-rule="evenodd" clip-rule="evenodd" d="M1103.39 138.401C1103.78 138.533 1103.99 138.955 1103.85 139.342C1100.94 147.867 1094.28 155.027 1085.13 158.265C1084.74 158.401 1084.32 158.199 1084.18 157.813C1084.05 157.427 1084.25 157.003 1084.63 156.867C1093.34 153.786 1099.67 146.976 1102.45 138.862C1102.58 138.474 1103 138.268 1103.39 138.401Z" fill="#72AAEA"/>
<path fill-rule="evenodd" clip-rule="evenodd" d="M1102.36 119.877C1097.04 104.765 1080.48 96.8264 1065.37 102.148C1064.99 102.284 1064.56 102.081 1064.43 101.695C1064.29 101.308 1064.49 100.885 1064.88 100.749C1080.77 95.1553 1098.17 103.5 1103.76 119.384C1103.9 119.77 1103.7 120.194 1103.31 120.33C1102.92 120.466 1102.5 120.263 1102.36 119.877Z" fill="#72AAEA"/>
<path fill-rule="evenodd" clip-rule="evenodd" d="M1089.07 107.337C1089.3 106.997 1089.76 106.908 1090.1 107.137C1094.74 110.262 1098.46 114.853 1100.46 120.541C1105.41 134.602 1098.02 150.003 1083.97 154.958L1083.97 154.959C1073.43 158.665 1062.13 155.446 1055.04 147.67C1054.77 147.367 1054.79 146.898 1055.09 146.622C1055.39 146.346 1055.86 146.368 1056.14 146.671C1062.84 154.022 1073.52 157.061 1083.48 153.56C1096.75 148.876 1103.74 134.32 1099.06 121.034L1099.06 121.033C1097.17 115.658 1093.65 111.321 1089.27 108.366C1088.93 108.137 1088.84 107.676 1089.07 107.337Z" fill="#72AAEA"/>
<path fill-rule="evenodd" clip-rule="evenodd" d="M1066.53 105.44C1071.52 103.682 1076.68 103.567 1081.43 104.82ZM1066.04 104.042C1071.31 102.182 1076.77 102.059 1081.81 103.386C1082.2 103.491 1082.44 103.896 1082.34 104.292C1082.23 104.688 1081.83 104.925 1081.43 104.82M1066.04 104.042L1066.04 104.042ZM1066.53 105.44C1053.26 110.124 1046.27 124.68 1050.95 137.966C1051.09 138.353 1050.89 138.776 1050.5 138.912C1050.11 139.048 1049.69 138.846 1049.55 138.46C1044.6 124.399 1051.99 108.998 1066.04 104.042" fill="#72AAEA"/>
<path fill-rule="evenodd" clip-rule="evenodd" d="M1064.59 112.668C1064.94 112.452 1065.39 112.56 1065.61 112.908L1075.63 129.118C1075.8 129.38 1075.78 129.716 1075.59 129.96L1066.46 141.824C1066.21 142.149 1065.74 142.209 1065.42 141.96C1065.09 141.71 1065.03 141.244 1065.28 140.92L1074.1 129.462L1064.35 113.688C1064.13 113.34 1064.24 112.883 1064.59 112.668Z" fill="#72AAEA"/>
</svg>
