<svg xmlns="http://www.w3.org/2000/svg" width="226" height="35" fill="none"><path fill="#F6F6F6" d="M47.82 34.6H5.24a5 5 0 01-4.98-5.02V5.15A4.88 4.88 0 015.24.26h42.58c2.75 0 4.85 2.25 4.98 5.02v24.44a5.06 5.06 0 01-4.98 4.88z"/><path fill="#1B2C6E" d="M32.15 13.45a5.4 5.4 0 00-1.9-.33c-2.1 0-3.58 1.07-3.59 2.6-.01 1.12 1.05 1.75 1.86 2.12.83.39 1.1.63 1.1.98 0 .52-.66.76-1.27.76-.84 0-1.3-.12-2-.41l-.26-.13-.3 1.76c.51.22 1.43.4 2.38.42 2.23 0 3.69-1.06 3.7-2.69.02-.9-.56-1.57-1.77-2.13-.74-.36-1.2-.6-1.2-.98 0-.32.4-.67 1.22-.67.54-.01 1.08.09 1.59.3l.2.09.29-1.7-.05.01zm5.44-.19h-1.64c-.5 0-.9.14-1.11.65l-3.15 7.2h2.22l.45-1.18h2.72c.06.28.26 1.18.26 1.18h1.97l-1.72-7.85zm-13.94-.06h2.12l-1.33 7.85h-2.12l1.33-7.86zm-5.4 4.32l.23 1.1 2.07-5.36h2.25l-3.34 7.84H17.2l-1.83-6.64a.45.45 0 00-.2-.26 9.06 9.06 0 00-2.08-.78l.03-.16h3.42c.46.02.83.16.96.66l.74 3.6zm16.72.8l.85-2.2c-.02.03.17-.44.28-.74l.14.68.5 2.26h-1.77z"/><path fill="#F6F6F6" d="M105.86 34.34H63.28c-2.75 0-4.85-2.25-4.98-5.02V5.02A5 5 0 0163.28 0h42.58a5 5 0 014.98 5.02v24.43a5.15 5.15 0 01-4.98 4.89z"/><path fill="#231F20" d="M100.23 29.45c.13 0 0 0 0 0zm0-.13s.13 0 0 0c.13 0 .13.13 0 0 0 .13 0 .13 0 .13l.13.13h-.13l-.14-.13v.13l.14-.26c-.14 0 0 0 0 0zm0 .4s.13 0 0 0c.13 0 .13-.14.13-.14v-.26s0-.13-.13-.13c0 0 0 0-.14 0h-.13c-.13 0-.13.13-.13.26 0 0 0 .13.13.13a.4.4 0 00.27.14zm0-.53s.13 0 0 0c.13 0 .13 0 .13.13l.13.13v.13s0 0-.13.14c0 0 0 0-.13 0h-.14c-.13 0-.26 0-.26-.14v-.13c0-.13 0-.13.13-.26.14 0 .27 0 .27 0zm-25.03-.93c0-.52.26-.92.79-.92.52 0 .78.4.78.92 0 .53-.26.8-.78.8-.4 0-.79-.4-.79-.8zm2.23 0v-1.32h-.66v.27c-.26-.27-.52-.4-.78-.4-.79 0-1.31.53-1.31 1.45 0 .8.65 1.46 1.3 1.46.4 0 .66-.14.8-.4v.4h.65v-1.46zm19.65 0c0-.52.26-.92.79-.92.52 0 .78.4.78.92 0 .53-.26.8-.78.8-.53 0-.79-.4-.79-.8zm2.23 0v-2.5h-.53v1.45c-.26-.27-.52-.4-.91-.4-.79 0-1.31.53-1.31 1.45 0 .8.52 1.46 1.3 1.46.4 0 .66-.14.92-.4v.4h.53c0-.14 0-1.46 0-1.46zm-14.67-.92c.39 0 .65.26.65.66h-1.44c.13-.4.4-.66.79-.66zm0-.53c-.8 0-1.31.53-1.31 1.45 0 .93.52 1.46 1.3 1.46.4 0 .8-.14 1.05-.4l-.26-.4c-.26.14-.52.27-.78.27-.4 0-.66-.13-.8-.66h1.97v-.27c.14-.92-.39-1.45-1.17-1.45zm7.07 1.45c0-.52.26-.92.79-.92.52 0 .78.4.78.92 0 .53-.26.8-.78.8-.53 0-.79-.4-.79-.8zm2.1 0v-1.32h-.53v.27c-.26-.27-.52-.4-.91-.4-.8 0-1.31.53-1.31 1.45 0 .8.52 1.46 1.3 1.46.4 0 .66-.14.92-.4v.4h.53v-1.46zm-5.38 0c0 .8.53 1.46 1.45 1.46.39 0 .65-.14.91-.27l-.26-.53c-.26.14-.52.14-.79.14-.39 0-.78-.4-.78-.93s.4-.92.78-.92a1 1 0 01.66.26l.26-.53a1.4 1.4 0 00-.92-.4c-.78.27-1.3.93-1.3 1.72zm7.47-1.45a.72.72 0 00-.65.4v-.27h-.53v2.64h.53v-1.45c0-.4.13-.66.52-.66.13 0 .26 0 .4.13l.13-.52c-.14-.27-.27-.27-.4-.27zm-15.59.27c-.4-.27-.65-.27-1.05-.27-.65 0-1.04.4-1.04.93 0 .4.39.66.91.79h.26c.27 0 .53.13.53.26 0 .27-.26.27-.66.27-.39 0-.65-.14-.91-.27l-.27.4c.27.26.66.4 1.18.4.79 0 1.18-.4 1.18-.93s-.39-.8-.91-.8h-.27c-.26 0-.39-.12-.39-.26 0-.26.13-.26.52-.26.4 0 .66.13.8.26-.14 0 .12-.52.12-.52zm7.47-.27a.72.72 0 00-.66.4v-.27h-.65v2.64h.52v-1.45c0-.4.27-.66.53-.66.13 0 .26 0 .4.13l.12-.52c0-.27-.13-.27-.26-.27zm-4.98.13h-.92v-.79h-.65v.8h-.53v.52h.53v1.19c0 .66.26 1.06.92 1.06.26 0 .52-.14.78-.27l-.13-.53c-.13.14-.4.14-.52.14-.26 0-.4-.14-.4-.4v-1.19h.92v-.53zm-8.65 2.64v-1.71c0-.66-.39-1.06-1.04-1.06-.4 0-.79.13-.92.53a1.1 1.1 0 00-.92-.53c-.26 0-.65.13-.78.4v-.27h-.53v2.64h.66v-1.45c0-.53.26-.8.65-.8.4 0 .53.27.53.67v1.45h.65V28c0-.53.26-.8.66-.8.39 0 .65.27.65.67v1.45l.4.26z"/><path fill="#F79410" d="M100.62 20.6v-.4h-.13l-.13.27-.13-.26h-.14v.4h.14v-.27l.13.26h.13l.13-.26v.26c-.13 0-.13 0 0 0zm-.66 0v-.4h.14v-.12h-.4v.13h.13l.13.4z"/><path fill="#FF5F00" d="M80.18 6.34h8.78v15.98h-8.78V6.34z"/><path fill="#EB001B" d="M80.7 14.26c0-3.17 1.45-6.07 3.8-8.05a10.1 10.1 0 00-14.15 1.71 10.3 10.3 0 001.7 14.27 9.98 9.98 0 0012.45 0 10.05 10.05 0 01-3.8-7.93z"/><path fill="#F79E1B" d="M100.88 14.26A10.05 10.05 0 0184.5 22.2a10.3 10.3 0 000-15.98 9.98 9.98 0 0114.15 1.71 10.37 10.37 0 012.23 6.34z"/><mask id="a" width="54" height="35" x="115" y="0" maskUnits="userSpaceOnUse"><path fill="#F6F6F6" d="M120.53 34.34h42.58c2.75 0 4.85-2.25 4.98-5.02V5.02A5 5 0 00163.11 0h-42.58c-2.75 0-4.84 2.25-4.97 5.02v24.43a4.97 4.97 0 004.97 4.89z"/></mask><g mask="url(#a)"><path fill="url(#paint0_radial)" d="M115 0h54v34h-54V0z"/><path fill="#fff" d="M120.4 13.34l-1.05-2.51-1.04 2.51h2.1zm22.28-.92c-.27.13-.4.13-.8.13h-1.7v-1.46h1.84c.26 0 .52 0 .66.14.26.13.26.26.26.52 0 .27 0 .53-.26.67zm12.83.92l-1.04-2.51-1.05 2.51h2.1zm-23.84 2.77h-1.57v-4.88L128 16.1h-1.3l-2.24-4.88v4.88h-3.01l-.52-1.45h-3.02l-.52 1.45h-1.57l2.62-6.2h2.1l2.48 5.94V9.77h2.36l1.97 4.23 1.83-4.23h2.49v6.34zm6.03 0h-4.98V9.77h4.98v1.32h-3.41v1.06h3.4v1.32h-3.4v1.19h3.54l-.13 1.45zm6.94-4.62c0 1.06-.65 1.45-1.05 1.72.4.13.66.4.79.53.26.26.26.52.26 1.18v1.2h-1.44v-.8c0-.4 0-.92-.26-1.19-.26-.26-.53-.26-1.05-.26h-1.7v2.24h-1.45V9.77h3.41c.79 0 1.31 0 1.84.27.39.4.65.79.65 1.45zm2.36 4.62h-1.57V9.77H147v6.34zm17.55 0h-2.1l-2.74-4.75v4.75h-3.02l-.52-1.45h-3.01l-.53 1.45h-1.96c-.79 0-1.7-.13-2.1-.66-.52-.53-.79-1.19-.79-2.37 0-.93.13-1.72.79-2.38.52-.53 1.18-.8 2.23-.8h1.44v1.33h-1.44c-.53 0-.79.13-1.18.4-.26.26-.4.79-.4 1.45 0 .66.14 1.18.4 1.45.26.26.65.4 1.05.4h.65l2.1-4.9h2.23l2.48 5.95v-6.2h2.23l2.62 4.35V9.77h1.57v6.34zm-48.86 1.2h2.48l.53-1.46h1.3l.53 1.45h4.98v-1.05l.4 1.05h2.62l.39-1.05v1.05h12.31v-2.24h.27c.13 0 .26 0 .26.26v1.98h6.42v-.53a5.2 5.2 0 002.36.53h2.75l.52-1.45h1.31l.53 1.45h5.24v-1.32l.78 1.32h4.2V8.58h-4.07v1.06l-.65-1.06h-4.2v1.06l-.52-1.06h-5.76c-.92 0-1.84.14-2.5.53v-.53h-3.92v.53c-.4-.4-1.05-.53-1.7-.53h-14.42l-.91 2.25-1.05-2.25h-4.59v1.06l-.52-1.06h-3.8l-1.84 4.1c.27 0 .27 4.62.27 4.62zm52.53 4.61h-2.75c-.26 0-.4 0-.65.14-.13.13-.27.26-.27.4 0 .26.13.39.27.39.13 0 .39.13.52.13h.79c.78 0 1.3.13 1.7.53.13 0 .13.13.13.13l.26-1.72zm0 4.1c-.39.53-1.05.8-1.96.8h-2.88v-1.33h2.88c.26 0 .52 0 .52-.13.13-.13.13-.27.13-.4s0-.26-.13-.4c-.13-.13-.26-.13-.52-.13-1.44 0-3.15 0-3.15-1.98 0-.92.53-1.85 2.1-1.85h3.01v-1.18h-2.75c-.78 0-1.44.26-1.83.52v-.52h-4.06c-.66 0-1.45.13-1.7.52v-.52h-7.21v.4a3.67 3.67 0 00-1.97-.54H144v.53c-.4-.4-1.45-.53-2.1-.53h-5.37l-1.18 1.32-1.18-1.32h-8V28h7.87l1.3-1.32 1.19 1.32h4.84v-1.98h.53c.65 0 1.44 0 2.1-.27v2.38h3.92V25.9h.27c.26 0 .26 0 .26.26v1.98h12.05c.79 0 1.57-.26 1.97-.53v.53h3.8c.78 0 1.57-.13 2.23-.4l-.27-1.71zm-5.9-2.51c.27.26.4.66.4 1.32 0 1.32-.79 1.98-2.36 1.98h-2.88V25.5h2.88c.26 0 .53 0 .66-.13s.13-.27.13-.4 0-.26-.13-.4c-.13-.13-.27-.13-.53-.13-1.44 0-3.14 0-3.14-1.98 0-.92.52-1.85 2.1-1.85h3v1.32h-2.61c-.26 0-.4 0-.53.14-.13.13-.26.26-.26.4 0 .26.13.39.26.39s.4.13.53.13h.78c.92 0 1.44.13 1.7.53zm-13.23-.4c-.26.14-.39.14-.78.14h-1.84v-1.46h1.84c.26 0 .52 0 .65.13.13.14.26.27.26.53.14.27 0 .53-.13.66zm.8.8c.38.13.65.4.78.52.26.27.26.53.26 1.2v1.18h-1.57v-.8c0-.39 0-.92-.27-1.18-.26-.26-.52-.26-1.04-.26h-1.58v2.24h-1.44v-6.2h3.4c.8 0 1.32 0 1.84.26.4.26.79.66.79 1.45a1.98 1.98 0 01-1.18 1.59zm1.96-3.3h4.97v1.31h-3.53v1.2h3.4v1.31h-3.4v1.2h3.53v1.31h-4.97V20.6zm-10.1 2.77h-1.96v-1.59h1.97c.52 0 .92.27.92.8 0 .52-.27.79-.92.79zm-3.4 2.9l-2.23-2.5 2.23-2.52v5.02zm-5.76-.79h-3.67V24.3h3.27v-1.32h-3.27V21.8h3.67l1.57 1.85-1.57 1.85zm11.79-2.9c0 1.71-1.31 2.1-2.62 2.1h-1.84v2.12h-2.88l-1.83-2.11-1.84 2.11h-5.9v-6.2h6.03l1.84 2.1 1.83-2.1h4.72c1.05 0 2.49.26 2.49 1.98z"/></g><path fill="#F6F6F6" d="M220.76 0h-42.58a5.06 5.06 0 00-4.98 4.89v24.43a5.08 5.08 0 004.98 5.02h8c25.54-4.62 39.43-14.53 39.43-14.53V5.01c0-2.76-2.1-5.01-4.85-5.01z"/><path fill="#F48120" d="M220.76 34.34c2.75 0 4.85-2.25 4.98-5.02v-9.5s-13.89 9.9-39.44 14.52h34.46z"/><path fill="#231F20" d="M178.54 13.1h-2.14v7.47h2.14a4 4 0 002.69-.86 3.72 3.72 0 001.36-2.86c-.01-2.22-1.67-3.75-4.05-3.75zm1.73 5.6c-.47.41-1.06.6-2.01.6h-.4v-4.94h.4c.94 0 1.52.16 2 .6.51.45.81 1.14.81 1.86 0 .72-.3 1.44-.8 1.89zM184.73 13.1h-1.47v7.47h1.47V13.1zM188.31 15.96c-.87-.32-1.13-.54-1.13-.93 0-.48.46-.83 1.1-.83.43 0 .8.18 1.17.61l.77-1A3.33 3.33 0 00188 13c-1.33 0-2.35.92-2.35 2.15 0 1.03.47 1.56 1.84 2.05.58.2.86.34 1.01.42a.9.9 0 01.44.77c0 .61-.48 1.06-1.13 1.06-.7 0-1.26-.35-1.6-1l-.95.92c.67.99 1.5 1.42 2.6 1.42 1.52 0 2.6-1 2.6-2.45.03-1.23-.48-1.77-2.15-2.37zM190.94 16.83c0 2.2 1.74 3.9 3.97 3.9.63 0 1.18-.12 1.83-.44v-1.7c-.59.58-1.1.8-1.76.8-1.48 0-2.53-1.05-2.53-2.57a2.49 2.49 0 012.46-2.57c.7 0 1.23.25 1.83.85v-1.72a3.95 3.95 0 00-5.8 3.45zM208.4 18.1l-2-5h-1.61l3.19 7.66h.8L212 13.1h-1.58l-2.03 5zM212.69 20.57h4.16V19.3h-2.7v-2.02h2.6v-1.26h-2.6v-1.66h2.7V13.1h-4.16v7.47zM222.66 15.3c0-1.4-.97-2.2-2.67-2.2h-2.17v7.47h1.46v-3h.2l2.02 3h1.8l-2.36-3.15c1.1-.22 1.72-.98 1.72-2.12zm-2.95 1.23h-.43v-2.26h.45c.92 0 1.41.38 1.41 1.11 0 .75-.5 1.15-1.43 1.15z"/><path fill="url(#paint1_linear)" d="M205.24 16.86a4 4 0 01-4 3.98 4 4 0 01-4.02-3.98 4 4 0 014.01-3.98 4 4 0 014.01 3.98z"/><mask id="b" width="9" height="9" x="197" y="12" maskUnits="userSpaceOnUse"><path fill="url(#paint2_linear)" d="M205.24 16.86a4 4 0 01-4 3.98 4 4 0 01-4.02-3.98 4 4 0 014.01-3.98 4 4 0 014.01 3.98z"/></mask><g mask="url(#b)"><path fill="url(#paint3_linear)" d="M205.24 16.86a4 4 0 01-4 3.98 4 4 0 01-4.02-3.98 4 4 0 014.01-3.98 4 4 0 014.01 3.98z" opacity=".65"/></g><g opacity=".5"><path fill="#231F20" d="M205.34 16.87a4.06 4.06 0 01-4.08 4.05 4.06 4.06 0 01-4.08-4.05 4.06 4.06 0 014.08-4.04 4.05 4.05 0 014.08 4.04z" opacity=".5"/><path fill="#242021" d="M201.26 12.81a4.06 4.06 0 014.08 4.05 4.06 4.06 0 01-4.08 4.04 4.06 4.06 0 01-4.08-4.04 4.05 4.05 0 014.08-4.05z" opacity=".5"/><path fill="#252122" d="M201.26 12.83a4.06 4.06 0 014.08 4.04 4.06 4.06 0 01-4.08 4.05 4.05 4.05 0 110-8.1z" opacity=".5"/><path fill="#252223" d="M201.26 12.83a4.06 4.06 0 014.08 4.04 4.06 4.06 0 01-4.08 4.05 4.06 4.06 0 01-4.08-4.05 4.05 4.05 0 014.08-4.04z" opacity=".5"/><path fill="#262223" d="M201.26 12.83a4.06 4.06 0 014.08 4.04 4.06 4.06 0 01-4.08 4.05 4.06 4.06 0 01-4.08-4.05 4.06 4.06 0 014.08-4.04z" opacity=".5"/><path fill="#272324" d="M201.26 12.83a4.06 4.06 0 014.08 4.04 4.06 4.06 0 01-4.08 4.05 4.06 4.06 0 01-4.08-4.05 4.07 4.07 0 014.08-4.04z" opacity=".5"/><path fill="#282425" d="M201.26 12.83a4.06 4.06 0 014.08 4.04 4.06 4.06 0 01-4.08 4.05 4.06 4.06 0 01-4.08-4.05 4.07 4.07 0 014.08-4.04z" opacity=".5"/><path fill="#292526" d="M201.27 12.84a4.06 4.06 0 014.08 4.05 4.06 4.06 0 01-4.08 4.04 4.05 4.05 0 110-8.09z" opacity=".5"/><path fill="#292627" d="M201.27 12.84a4.06 4.06 0 014.08 4.05 4.06 4.06 0 01-4.08 4.04 4.05 4.05 0 110-8.09z" opacity=".5"/><path fill="#2A2728" d="M201.27 12.84c2.26 0 4.08 1.8 4.08 4.05a4.06 4.06 0 01-4.08 4.04 4.05 4.05 0 01-4.08-4.04 4.06 4.06 0 014.08-4.05z" opacity=".5"/><path fill="#2B2728" d="M201.27 12.84a4.05 4.05 0 110 8.1 4.05 4.05 0 110-8.1z" opacity=".5"/><path fill="#2C2829" d="M201.27 12.86a4.05 4.05 0 110 8.09 4.05 4.05 0 01-4.08-4.05 4.06 4.06 0 014.08-4.04z" opacity=".5"/><path fill="#2D292A" d="M201.27 12.86a4.05 4.05 0 110 8.09 4.05 4.05 0 01-4.08-4.05 4.06 4.06 0 014.08-4.04z" opacity=".5"/><path fill="#2D2A2B" d="M201.29 12.86a4.05 4.05 0 110 8.09 4.05 4.05 0 110-8.1z" opacity=".5"/><path fill="#2E2B2C" d="M201.29 12.86a4.05 4.05 0 110 8.09 4.05 4.05 0 01-4.08-4.05 4.06 4.06 0 014.08-4.04z" opacity=".5"/><path fill="#2F2C2D" d="M201.29 12.86a4.05 4.05 0 110 8.09 4.05 4.05 0 01-4.08-4.05 4.06 4.06 0 014.08-4.04z" opacity=".5"/><path fill="#302C2D" d="M201.29 12.87a4.05 4.05 0 110 8.09 4.05 4.05 0 01-4.08-4.05 4.06 4.06 0 014.08-4.04z" opacity=".5"/><path fill="#312D2E" d="M201.29 12.87a4.05 4.05 0 110 8.09 4.05 4.05 0 01-4.08-4.05 4.06 4.06 0 014.08-4.04z" opacity=".5"/><path fill="#322E2F" d="M201.29 12.87a4.05 4.05 0 110 8.09 4.05 4.05 0 01-4.08-4.05 4.07 4.07 0 014.08-4.04z" opacity=".5"/><path fill="#322F30" d="M201.3 12.87c2.24 0 4.08 1.8 4.08 4.04a4.05 4.05 0 01-4.08 4.05 4.05 4.05 0 01-4.08-4.05 4.06 4.06 0 014.08-4.04z" opacity=".5"/><path fill="#333031" d="M201.3 12.87c2.24 0 4.08 1.8 4.08 4.04a4.06 4.06 0 01-4.08 4.05 4.05 4.05 0 01-4.08-4.05 4.06 4.06 0 014.08-4.04z" opacity=".5"/><path fill="#343132" d="M201.3 12.88c2.24 0 4.08 1.8 4.08 4.05a4.06 4.06 0 01-4.08 4.04 4.06 4.06 0 01-4.08-4.04 4.05 4.05 0 014.08-4.05z" opacity=".5"/><path fill="#353132" d="M201.3 12.88c2.24 0 4.08 1.8 4.08 4.05a4.06 4.06 0 01-4.08 4.04 4.06 4.06 0 01-4.08-4.04 4.06 4.06 0 014.08-4.05z" opacity=".5"/><path fill="#363233" d="M201.3 12.88c2.24 0 4.08 1.8 4.08 4.05a4.06 4.06 0 01-4.08 4.04 4.06 4.06 0 01-4.08-4.04 4.07 4.07 0 014.08-4.05z" opacity=".5"/><path fill="#363334" d="M201.3 12.88c2.24 0 4.08 1.8 4.08 4.05a4.06 4.06 0 01-4.08 4.04 4.06 4.06 0 01-4.08-4.04 4.08 4.08 0 014.08-4.05z" opacity=".5"/><path fill="#373435" d="M201.31 12.9c2.25 0 4.08 1.8 4.08 4.04a4.06 4.06 0 01-4.08 4.05 4.06 4.06 0 01-4.07-4.05 4.05 4.05 0 014.07-4.04z" opacity=".5"/><path fill="#383536" d="M201.31 12.9c2.25 0 4.08 1.8 4.08 4.04a4.06 4.06 0 01-4.08 4.05 4.06 4.06 0 01-4.07-4.05 4.05 4.05 0 014.07-4.04z" opacity=".5"/><path fill="#393637" d="M201.31 12.9c2.25 0 4.08 1.8 4.08 4.04a4.06 4.06 0 01-4.08 4.05 4.06 4.06 0 01-4.07-4.05 4.05 4.05 0 014.07-4.04z" opacity=".5"/><path fill="#3A3638" d="M201.31 12.9c2.25 0 4.08 1.8 4.08 4.04a4.06 4.06 0 01-4.08 4.05 4.06 4.06 0 01-4.07-4.05 4.06 4.06 0 014.07-4.04z" opacity=".5"/><path fill="#3A3738" d="M201.31 12.9c2.25 0 4.08 1.8 4.08 4.04a4.06 4.06 0 01-4.08 4.05 4.06 4.06 0 01-4.07-4.05 4.08 4.08 0 014.07-4.04z" opacity=".5"/><path fill="#3B3839" d="M201.31 12.9c2.25 0 4.08 1.81 4.08 4.05a4.06 4.06 0 01-4.08 4.05 4.06 4.06 0 01-4.07-4.05 4.07 4.07 0 014.07-4.04z" opacity=".5"/><path fill="#3C393A" d="M201.33 12.9c2.24 0 4.07 1.81 4.07 4.05a4.05 4.05 0 01-4.07 4.04 4.06 4.06 0 01-4.08-4.04 4.05 4.05 0 014.08-4.04z" opacity=".5"/><path fill="#3D3A3B" d="M201.33 12.9c2.24 0 4.06 1.81 4.06 4.04a4.05 4.05 0 01-4.06 4.03 4.03 4.03 0 110-8.06z" opacity=".5"/><path fill="#3E3B3C" d="M201.33 12.9c2.24 0 4.06 1.81 4.06 4.04a4.05 4.05 0 01-4.06 4.03 4.04 4.04 0 110-8.06z" opacity=".5"/><path fill="#3E3B3D" d="M201.33 12.9c2.24 0 4.06 1.81 4.06 4.04a4.05 4.05 0 01-4.06 4.03 4.05 4.05 0 01-4.07-4.03 4.06 4.06 0 014.07-4.03z" opacity=".5"/><path fill="#3F3C3D" d="M201.33 12.92c2.24 0 4.06 1.8 4.06 4.03a4.05 4.05 0 01-4.06 4.04 4.05 4.05 0 01-4.07-4.04 4.05 4.05 0 014.07-4.03z" opacity=".5"/><path fill="#403D3E" d="M201.33 12.92c2.24 0 4.06 1.8 4.06 4.03a4.05 4.05 0 01-4.06 4.04 4.05 4.05 0 01-4.07-4.04 4.05 4.05 0 014.07-4.03z" opacity=".5"/><path fill="#413E3F" d="M201.34 12.92c2.25 0 4.06 1.8 4.06 4.03a4.05 4.05 0 01-4.06 4.04 4.03 4.03 0 110-8.06z" opacity=".5"/><path fill="#423F40" d="M201.34 12.92c2.25 0 4.06 1.8 4.06 4.03a4.05 4.05 0 01-4.06 4.04 4.03 4.03 0 110-8.06z" opacity=".5"/><path fill="#424041" d="M201.34 12.94c2.25 0 4.06 1.8 4.06 4.03a4.05 4.05 0 01-4.06 4.03 4.05 4.05 0 01-4.06-4.03 4.05 4.05 0 014.06-4.03z" opacity=".5"/><path fill="#434042" d="M201.34 12.94c2.25 0 4.06 1.8 4.06 4.03a4.05 4.05 0 01-4.06 4.03 4.05 4.05 0 01-4.06-4.03 4.05 4.05 0 014.06-4.03z" opacity=".5"/><path fill="#444142" d="M201.34 12.94c2.25 0 4.06 1.8 4.06 4.03a4.05 4.05 0 01-4.06 4.03 4.05 4.05 0 01-4.06-4.03 4.05 4.05 0 014.06-4.03z" opacity=".5"/><path fill="#454243" d="M201.34 12.94c2.25 0 4.06 1.8 4.06 4.03a4.05 4.05 0 01-4.06 4.03 4.05 4.05 0 01-4.06-4.03 4.05 4.05 0 014.06-4.03z" opacity=".5"/><path fill="#464344" d="M201.34 12.94c2.25 0 4.06 1.8 4.06 4.03a4.05 4.05 0 01-4.06 4.03 4.05 4.05 0 01-4.06-4.03 4.05 4.05 0 014.06-4.03z" opacity=".5"/><path fill="#464445" d="M201.35 12.95c2.25 0 4.07 1.8 4.07 4.03a4.05 4.05 0 01-4.06 4.03 4.05 4.05 0 01-4.07-4.03 4.05 4.05 0 014.06-4.03z" opacity=".5"/><path fill="#474546" d="M201.35 12.95c2.25 0 4.07 1.8 4.07 4.03a4.05 4.05 0 01-4.06 4.03 4.05 4.05 0 01-4.07-4.03 4.05 4.05 0 014.06-4.03z" opacity=".5"/><path fill="#484547" d="M201.35 12.95c2.25 0 4.07 1.8 4.07 4.03a4.05 4.05 0 01-4.06 4.03 4.05 4.05 0 01-4.07-4.03 4.05 4.05 0 014.06-4.03z" opacity=".5"/><path fill="#494648" d="M201.35 12.95c2.25 0 4.07 1.8 4.07 4.03a4.05 4.05 0 01-4.06 4.03 4.05 4.05 0 01-4.07-4.03 4.05 4.05 0 014.06-4.03z" opacity=".5"/><path fill="#4A4748" d="M201.35 12.96c2.25 0 4.07 1.8 4.07 4.04a4.05 4.05 0 01-4.06 4.03 4.04 4.04 0 110-8.06z" opacity=".5"/><path fill="#4A4849" d="M201.35 12.96c2.25 0 4.07 1.8 4.07 4.04a4.05 4.05 0 01-4.06 4.03 4.05 4.05 0 01-4.07-4.03 4.05 4.05 0 014.06-4.04z" opacity=".5"/><path fill="#4B494A" d="M201.37 12.96c2.24 0 4.06 1.8 4.06 4.04a4.05 4.05 0 01-4.06 4.03A4.05 4.05 0 01197.3 17a4.05 4.05 0 014.07-4.04z" opacity=".5"/><path fill="#4C4A4B" d="M201.37 12.96c2.24 0 4.06 1.8 4.06 4.04a4.05 4.05 0 01-4.06 4.03A4.05 4.05 0 01197.3 17a4.05 4.05 0 014.07-4.04z" opacity=".5"/><path fill="#4D4A4C" d="M201.37 12.96c2.24 0 4.06 1.8 4.06 4.04a4.05 4.05 0 01-4.06 4.03A4.05 4.05 0 01197.3 17a4.05 4.05 0 014.07-4.04z" opacity=".5"/><path fill="#4E4B4D" d="M201.37 12.98c2.24 0 4.06 1.8 4.06 4.03a4.05 4.05 0 01-4.06 4.03 4.04 4.04 0 110-8.06z" opacity=".5"/><path fill="#4F4C4D" d="M201.37 12.98c2.24 0 4.06 1.8 4.06 4.03a4.05 4.05 0 01-4.06 4.03 4.05 4.05 0 01-4.07-4.03 4.05 4.05 0 014.07-4.03z" opacity=".5"/><path fill="#4F4D4E" d="M201.37 12.98c2.24 0 4.06 1.8 4.06 4.03a4.05 4.05 0 01-4.06 4.03 4.05 4.05 0 01-4.07-4.03 4.06 4.06 0 014.07-4.03z" opacity=".5"/><path fill="#504E4F" d="M201.38 12.98c2.25 0 4.07 1.8 4.07 4.03a4.05 4.05 0 01-4.07 4.03 4.05 4.05 0 01-4.06-4.03 4.05 4.05 0 014.06-4.03z" opacity=".5"/><path fill="#514F50" d="M201.38 12.98c2.25 0 4.07 1.8 4.07 4.03a4.05 4.05 0 01-4.07 4.03 4.05 4.05 0 01-4.06-4.03 4.05 4.05 0 014.06-4.03z" opacity=".5"/><path fill="#524F51" d="M201.38 13c2.25 0 4.07 1.8 4.07 4.02a4.05 4.05 0 01-4.07 4.03 4.05 4.05 0 01-4.06-4.03 4.05 4.05 0 014.06-4.03z" opacity=".5"/><path fill="#535052" d="M201.38 13c2.25 0 4.07 1.8 4.07 4.02a4.05 4.05 0 01-4.07 4.03 4.05 4.05 0 01-4.06-4.03 4.05 4.05 0 014.06-4.03z" opacity=".5"/><path fill="#535152" d="M201.38 13c2.25 0 4.07 1.8 4.07 4.02a4.05 4.05 0 01-4.07 4.03 4.05 4.05 0 01-4.06-4.03 4.06 4.06 0 014.06-4.03z" opacity=".5"/><path fill="#545253" d="M201.38 13c2.25 0 4.07 1.8 4.07 4.02a4.05 4.05 0 01-4.07 4.03 4.05 4.05 0 01-4.06-4.03 4.07 4.07 0 014.06-4.03z" opacity=".5"/><path fill="#555354" d="M201.4 13c2.24 0 4.06 1.81 4.06 4.04a4.05 4.05 0 01-4.06 4.03 4.04 4.04 0 110-8.06z" opacity=".5"/><path fill="#565455" d="M201.4 13c2.24 0 4.06 1.81 4.06 4.04a4.05 4.05 0 01-4.06 4.03 4.05 4.05 0 01-4.07-4.03A4.05 4.05 0 01201.4 13z" opacity=".5"/><path fill="#575456" d="M201.4 13c2.24 0 4.06 1.81 4.06 4.04a4.05 4.05 0 01-4.06 4.03 4.05 4.05 0 01-4.07-4.03A4.05 4.05 0 01201.4 13z" opacity=".5"/><path fill="#575557" d="M201.4 13c2.24 0 4.06 1.81 4.06 4.04a4.05 4.05 0 01-4.06 4.03 4.05 4.05 0 01-4.07-4.03A4.06 4.06 0 01201.4 13z" opacity=".5"/><path fill="#585657" d="M201.4 13c2.24 0 4.05 1.81 4.05 4.02a4.03 4.03 0 01-4.05 4.02 4.03 4.03 0 01-4.06-4.02c0-2.21 1.81-4.02 4.06-4.02z" opacity=".5"/><path fill="#595758" d="M201.4 13.02c2.24 0 4.05 1.8 4.05 4.02a4.03 4.03 0 01-4.05 4.01 4.03 4.03 0 01-4.06-4.01 4.03 4.03 0 014.06-4.02z" opacity=".5"/><path fill="#5A5859" d="M201.4 13.02c2.25 0 4.06 1.8 4.06 4.02a4.03 4.03 0 01-4.05 4.01 4.02 4.02 0 110-8.04z" opacity=".5"/><path fill="#5B595A" d="M201.4 13.02c2.25 0 4.06 1.8 4.06 4.02a4.03 4.03 0 01-4.05 4.01 4.02 4.02 0 110-8.04z" opacity=".5"/><path fill="#5B5A5B" d="M201.4 13.02c2.25 0 4.06 1.8 4.06 4.02a4.03 4.03 0 01-4.05 4.01 4.02 4.02 0 110-8.04z" opacity=".5"/><path fill="#5C5A5C" d="M201.4 13.02c2.25 0 4.06 1.8 4.06 4.02a4.03 4.03 0 01-4.05 4.01 4.03 4.03 0 01-4.05-4.01c0-2.22 1.8-4.02 4.05-4.02z" opacity=".5"/><path fill="#5D5B5D" d="M201.4 13.03c2.25 0 4.06 1.8 4.06 4.02a4.03 4.03 0 01-4.05 4.02 4.03 4.03 0 01-4.05-4.02 4.03 4.03 0 014.05-4.02z" opacity=".5"/><path fill="#5E5C5D" d="M201.4 13.03c2.25 0 4.06 1.8 4.06 4.02a4.03 4.03 0 01-4.05 4.02 4.03 4.03 0 01-4.05-4.02 4.04 4.04 0 014.05-4.02z" opacity=".5"/><path fill="#5F5D5E" d="M201.4 13.03c2.25 0 4.06 1.8 4.06 4.02a4.03 4.03 0 01-4.05 4.02 4.03 4.03 0 01-4.05-4.02 4.04 4.04 0 014.05-4.02z" opacity=".5"/><path fill="#5F5E5F" d="M201.42 13.03c2.25 0 4.05 1.8 4.05 4.02a4.03 4.03 0 01-4.05 4.02 4.02 4.02 0 110-8.04z" opacity=".5"/><path fill="#605F60" d="M201.42 13.04c2.25 0 4.05 1.81 4.05 4.02a4.03 4.03 0 01-4.05 4.02 4.03 4.03 0 110-8.04z" opacity=".5"/><path fill="#615F61" d="M201.42 13.04c2.25 0 4.05 1.81 4.05 4.02a4.03 4.03 0 01-4.05 4.02 4.03 4.03 0 110-8.04z" opacity=".5"/><path fill="#626062" d="M201.42 13.04c2.25 0 4.05 1.81 4.05 4.02a4.03 4.03 0 01-4.05 4.02 4.03 4.03 0 01-4.05-4.02 4.04 4.04 0 014.05-4.02z" opacity=".5"/><path fill="#636162" d="M201.42 13.04c2.25 0 4.05 1.81 4.05 4.02a4.03 4.03 0 01-4.05 4.02 4.03 4.03 0 01-4.05-4.02 4.04 4.04 0 014.05-4.02z" opacity=".5"/><path fill="#636263" d="M201.42 13.04c2.25 0 4.05 1.81 4.05 4.02a4.03 4.03 0 01-4.05 4.02 4.03 4.03 0 01-4.05-4.02 4.04 4.04 0 014.05-4.02z" opacity=".5"/><path fill="#646364" d="M201.44 13.06c2.24 0 4.05 1.8 4.05 4.02a4.03 4.03 0 01-4.05 4.02 4.03 4.03 0 110-8.04z" opacity=".5"/><path fill="#656465" d="M201.44 13.06c2.23 0 4.05 1.8 4.05 4.02a4.04 4.04 0 01-8.1 0c0-2.23 1.8-4.02 4.05-4.02z" opacity=".5"/><path fill="#666466" d="M201.44 13.06c2.23 0 4.05 1.8 4.05 4.02a4.04 4.04 0 01-8.1 0c0-2.22 1.8-4.02 4.05-4.02z" opacity=".5"/><path fill="#676567" d="M201.44 13.06c2.23 0 4.05 1.8 4.05 4.02a4.04 4.04 0 01-8.1 0 4.04 4.04 0 014.05-4.02z" opacity=".5"/><path fill="#686667" d="M201.44 13.06c2.23 0 4.05 1.8 4.05 4.02a4.04 4.04 0 01-4.05 4.02 4.03 4.03 0 01-4.05-4.02 4.04 4.04 0 014.05-4.02z" opacity=".5"/><path fill="#686768" d="M201.44 13.07c2.23 0 4.05 1.8 4.05 4.02 0 2.21-1.8 4.02-4.05 4.02a4.03 4.03 0 01-4.05-4.02 4.04 4.04 0 014.05-4.02z" opacity=".5"/><path fill="#696869" d="M201.45 13.07c2.23 0 4.05 1.8 4.05 4.02 0 2.21-1.8 4.02-4.05 4.02a4.03 4.03 0 110-8.04z" opacity=".5"/><path fill="#6A696A" d="M201.45 13.07c2.23 0 4.05 1.8 4.05 4.02 0 2.21-1.8 4.02-4.05 4.02a4.03 4.03 0 01-4.05-4.02c0-2.21 1.8-4.02 4.05-4.02z" opacity=".5"/><path fill="#6B696B" d="M201.45 13.07c2.23 0 4.05 1.8 4.05 4.02 0 2.21-1.8 4.02-4.05 4.02a4.03 4.03 0 01-4.05-4.02 4.04 4.04 0 014.05-4.02z" opacity=".5"/><path fill="#6C6A6C" d="M201.45 13.09c2.23 0 4.05 1.79 4.05 4.01 0 2.22-1.8 4.02-4.05 4.02a4.03 4.03 0 01-4.05-4.02 4.03 4.03 0 014.05-4.01z" opacity=".5"/><path fill="#6C6B6D" d="M201.45 13.09c2.23 0 4.05 1.79 4.05 4.01 0 2.22-1.8 4.02-4.05 4.02a4.03 4.03 0 01-4.05-4.02 4.03 4.03 0 014.05-4.01z" opacity=".5"/><path fill="#6D6C6D" d="M201.45 13.09c2.23 0 4.05 1.79 4.05 4.01 0 2.22-1.8 4.02-4.05 4.02a4.03 4.03 0 01-4.05-4.02 4.04 4.04 0 014.05-4.01z" opacity=".5"/><path fill="#6E6D6E" d="M201.46 13.09c2.23 0 4.05 1.79 4.05 4.01 0 2.22-1.8 4.02-4.05 4.02a4.03 4.03 0 01-4.05-4.02c0-2.2 1.81-4.01 4.05-4.01z" opacity=".5"/><path fill="#6F6E6F" d="M201.46 13.09c2.23 0 4.05 1.79 4.05 4.01 0 2.22-1.8 4.02-4.05 4.02a4.03 4.03 0 01-4.05-4.02c0-2.2 1.81-4.01 4.05-4.01z" opacity=".5"/><path fill="#706E70" d="M201.46 13.1c2.23 0 4.05 1.8 4.05 4.02 0 2.21-1.8 4.02-4.05 4.02a4.03 4.03 0 01-4.05-4.02 4.03 4.03 0 014.05-4.02z" opacity=".5"/><path fill="#706F71" d="M201.46 13.1c2.23 0 4.05 1.8 4.05 4.02 0 2.21-1.8 4.02-4.05 4.02a4.03 4.03 0 01-4.05-4.02 4.03 4.03 0 014.05-4.02z" opacity=".5"/><path fill="#717072" d="M201.46 13.1c2.23 0 4.05 1.8 4.05 4.02 0 2.21-1.8 4.02-4.05 4.02a4.03 4.03 0 01-4.05-4.02 4.04 4.04 0 014.05-4.02z" opacity=".5"/><path fill="#727172" d="M201.46 13.1c2.23 0 4.05 1.8 4.05 4.02 0 2.21-1.8 4.02-4.05 4.02a4.03 4.03 0 01-4.05-4.02 4.05 4.05 0 014.05-4.02z" opacity=".5"/><path fill="#737273" d="M201.48 13.1c2.23 0 4.05 1.8 4.05 4.02 0 2.21-1.8 4.02-4.05 4.02a4.03 4.03 0 01-4.05-4.02c0-2.22 1.8-4.02 4.05-4.02z" opacity=".5"/><path fill="#747374" d="M201.48 13.11c2.23 0 4.05 1.8 4.05 4 0 2.22-1.8 4.03-4.05 4.03a4 4 0 110-8.02z" opacity=".5"/><path fill="#747375" d="M201.48 13.11c2.23 0 4.03 1.8 4.03 4 0 2.22-1.8 4.01-4.03 4.01a4.01 4.01 0 110-8z" opacity=".5"/><path fill="#757476" d="M201.48 13.11c2.23 0 4.03 1.8 4.03 4 0 2.22-1.8 4.01-4.03 4.01a4.02 4.02 0 01-4.04-4c0-2.22 1.8-4 4.04-4z" opacity=".5"/><path fill="#767577" d="M201.48 13.11c2.23 0 4.03 1.8 4.03 4 0 2.22-1.8 4.01-4.03 4.01a4.02 4.02 0 01-4.04-4c0-2.2 1.8-4 4.04-4z" opacity=".5"/><path fill="#777677" d="M201.48 13.13c2.23 0 4.03 1.79 4.03 4s-1.8 4-4.03 4a4.02 4.02 0 01-4.04-4c0-2.21 1.8-4 4.04-4z" opacity=".5"/><path fill="#787778" d="M201.48 13.13c2.23 0 4.03 1.79 4.03 4s-1.8 4-4.03 4a4.02 4.02 0 01-4.04-4c0-2.21 1.8-4 4.04-4z" opacity=".5"/><path fill="#787879" d="M201.5 13.13c2.22 0 4.03 1.79 4.03 4s-1.8 4-4.04 4a4.01 4.01 0 110-8z" opacity=".5"/><path fill="#79787A" d="M201.5 13.13c2.22 0 4.03 1.79 4.03 4s-1.8 4-4.04 4a4.02 4.02 0 01-4.03-4c0-2.21 1.8-4 4.03-4z" opacity=".5"/><path fill="#7A797B" d="M201.5 13.13c2.22 0 4.03 1.79 4.03 4s-1.8 4-4.04 4a4.02 4.02 0 01-4.03-4c0-2.2 1.8-4 4.03-4z" opacity=".5"/><path fill="#7B7A7C" d="M201.5 13.14c2.22 0 4.03 1.8 4.03 4 0 2.22-1.8 4-4.04 4a4.02 4.02 0 01-4.03-4c0-2.2 1.8-4 4.03-4z" opacity=".5"/><path fill="#7C7B7C" d="M201.5 13.14c2.22 0 4.03 1.8 4.03 4 0 2.22-1.8 4-4.04 4a4.02 4.02 0 01-4.03-4c0-2.2 1.8-4 4.03-4z" opacity=".5"/><path fill="#7C7C7D" d="M201.5 13.14c2.22 0 4.03 1.8 4.03 4 0 2.22-1.8 4-4.04 4a4.02 4.02 0 01-4.03-4c0-2.2 1.8-4 4.03-4z" opacity=".5"/><path fill="#7D7D7E" d="M201.5 13.14c2.24 0 4.04 1.8 4.04 4 0 2.22-1.8 4-4.03 4a4.01 4.01 0 110-8z" opacity=".5"/><path fill="#7E7D7F" d="M201.5 13.15c2.24 0 4.04 1.8 4.04 4 0 2.22-1.8 4.01-4.03 4.01a4.02 4.02 0 01-4.04-4c0-2.21 1.8-4 4.03-4z" opacity=".5"/><path fill="#7F7E80" d="M201.5 13.15c2.24 0 4.04 1.8 4.04 4 0 2.22-1.8 4.01-4.03 4.01a4.02 4.02 0 01-4.04-4c0-2.21 1.8-4 4.03-4z" opacity=".5"/><path fill="#807F81" d="M201.5 13.15c2.24 0 4.04 1.8 4.04 4 0 2.22-1.8 4.01-4.03 4.01a4.02 4.02 0 01-4.04-4c0-2.21 1.8-4 4.03-4z" opacity=".5"/><path fill="#808082" d="M201.5 13.15c2.24 0 4.04 1.8 4.04 4 0 2.22-1.8 4.01-4.03 4.01a4.02 4.02 0 01-4.04-4c0-2.21 1.8-4 4.03-4z" opacity=".5"/><path fill="#818182" d="M201.5 13.15c2.24 0 4.04 1.8 4.04 4 0 2.22-1.8 4.01-4.03 4.01a4.02 4.02 0 01-4.04-4c0-2.21 1.82-4 4.03-4z" opacity=".5"/><path fill="#828283" d="M201.52 13.17c2.23 0 4.04 1.79 4.04 4s-1.81 4-4.04 4a4.02 4.02 0 01-4.04-4c0-2.21 1.8-4 4.04-4z" opacity=".5"/><path fill="#838284" d="M201.52 13.17c2.23 0 4.04 1.79 4.04 4s-1.81 4-4.04 4a4.02 4.02 0 01-4.04-4c0-2.21 1.8-4 4.04-4z" opacity=".5"/><path fill="#848385" d="M201.52 13.17c2.23 0 4.04 1.79 4.04 4s-1.81 4-4.04 4a4.02 4.02 0 01-4.04-4c0-2.21 1.8-4 4.04-4z" opacity=".5"/><path fill="#858486" d="M201.52 13.17c2.23 0 4.04 1.79 4.04 4s-1.81 4-4.04 4a4.02 4.02 0 01-4.04-4c0-2.21 1.8-4 4.04-4z" opacity=".5"/><path fill="#858587" d="M201.52 13.17c2.23 0 4.04 1.79 4.04 4s-1.81 4-4.04 4a4.02 4.02 0 01-4.04-4c0-2.21 1.8-4 4.04-4z" opacity=".5"/><path fill="#868687" d="M201.52 13.18c2.23 0 4.04 1.8 4.04 4 0 2.22-1.81 4.01-4.04 4.01a4.02 4.02 0 01-4.04-4c.02-2.22 1.82-4 4.04-4z" opacity=".5"/><path fill="#878788" d="M201.53 13.18c2.23 0 4.04 1.8 4.04 4 0 2.22-1.8 4.01-4.04 4.01a4.02 4.02 0 01-4.03-4c0-2.22 1.8-4 4.03-4z" opacity=".5"/><path fill="#888789" d="M201.53 13.18c2.23 0 4.04 1.8 4.04 4 0 2.22-1.8 4.01-4.04 4.01a4.02 4.02 0 01-4.03-4c0-2.22 1.8-4 4.03-4z" opacity=".5"/><path fill="#89888A" d="M201.53 13.18c2.23 0 4.04 1.8 4.04 4 0 2.22-1.8 4.01-4.04 4.01a4.02 4.02 0 01-4.03-4c0-2.22 1.8-4 4.03-4z" opacity=".5"/><path fill="#89898B" d="M201.53 13.2c2.23 0 4.04 1.79 4.04 4s-1.8 4-4.04 4a4.01 4.01 0 110-8z" opacity=".5"/><path fill="#8A8A8C" d="M201.53 13.2c2.23 0 4.04 1.79 4.04 4s-1.8 4-4.04 4a4.02 4.02 0 01-4.03-4c0-2.21 1.8-4 4.03-4z" opacity=".5"/><path fill="#8B8B8C" d="M201.53 13.2c2.23 0 4.04 1.79 4.04 4s-1.8 4-4.04 4a4.02 4.02 0 01-4.03-4c0-2.21 1.82-4 4.03-4z" opacity=".5"/><path fill="#8C8C8D" d="M201.55 13.2c2.23 0 4.03 1.79 4.03 4s-1.8 4-4.03 4a4.02 4.02 0 01-4.04-4c0-2.21 1.8-4 4.04-4z" opacity=".5"/><path fill="#8D8C8E" d="M201.55 13.2c2.23 0 4.03 1.79 4.03 4s-1.8 4-4.03 4a4.02 4.02 0 01-4.04-4c0-2.21 1.8-4 4.04-4z" opacity=".5"/><path fill="#8D8D8F" d="M201.55 13.2c2.23 0 4.03 1.8 4.03 4.01 0 2.22-1.8 4-4.03 4a4.01 4.01 0 110-8z" opacity=".5"/><path fill="#8E8E90" d="M201.55 13.2c2.23 0 4.03 1.8 4.03 4.01 0 2.22-1.8 4-4.03 4a4.02 4.02 0 01-4.04-4c0-2.21 1.8-4 4.04-4z" opacity=".5"/><path fill="#8F8F91" d="M201.55 13.2c2.23 0 4.03 1.8 4.03 4 0 2.21-1.8 4-4.03 4a4 4 0 01-4.03-4c0-2.2 1.8-4 4.03-4z" opacity=".5"/><path fill="#909092" d="M201.55 13.2a4 4 0 014.02 4 4 4 0 01-4.02 3.99 4 4 0 01-4.03-4c0-2.19 1.8-3.98 4.03-3.98z" opacity=".5"/><path fill="#919192" d="M201.56 13.2a4 4 0 014.02 4 4 4 0 01-4.02 3.99 4 4 0 110-7.98z" opacity=".5"/><path fill="#919293" d="M201.56 13.22a4 4 0 014.02 4 4 4 0 01-4.02 3.98 4 4 0 110-7.98z" opacity=".5"/><path fill="#929294" d="M201.56 13.22a4 4 0 014.02 4 4 4 0 01-4.02 3.98 4 4 0 110-7.98z" opacity=".5"/><path fill="#939395" d="M201.56 13.22a4 4 0 014.02 4 4 4 0 01-4.02 3.98 4 4 0 01-4.02-3.99 4 4 0 014.02-3.99z" opacity=".5"/><path fill="#949496" d="M201.56 13.22a4 4 0 014.02 4 4 4 0 01-4.02 3.98 4 4 0 01-4.02-3.99c0-2.2 1.8-3.99 4.02-3.99z" opacity=".5"/><path fill="#959597" d="M201.56 13.24a4 4 0 014.02 3.99 4 4 0 01-4.02 3.99 4 4 0 01-4.02-4 4 4 0 014.02-3.98z" opacity=".5"/><path fill="#959697" d="M201.56 13.24a4 4 0 014.02 3.99 4 4 0 01-4.02 3.99 4 4 0 01-4.02-4c0-2.2 1.8-3.98 4.02-3.98z" opacity=".5"/><path fill="#969798" d="M201.57 13.24a4 4 0 014.03 3.99 4 4 0 01-4.03 3.99 4 4 0 110-7.98z" opacity=".5"/><path fill="#979799" d="M201.57 13.24c2.22 0 4.03 1.79 4.03 3.99s-1.8 3.99-4.03 3.99a4.01 4.01 0 01-4.02-4 4 4 0 014.02-3.98z" opacity=".5"/><path fill="#98989A" d="M201.57 13.24c2.22 0 4.03 1.79 4.03 3.99s-1.8 3.99-4.03 3.99a4.01 4.01 0 01-4.02-4 4 4 0 014.02-3.98z" opacity=".5"/><path fill="#99999B" d="M201.57 13.25c2.22 0 4.03 1.79 4.03 3.99s-1.8 3.99-4.03 3.99a4.01 4.01 0 01-4.02-4 4 4 0 014.02-3.98z" opacity=".5"/><path fill="#999A9C" d="M201.57 13.25c2.22 0 4.03 1.79 4.03 3.99s-1.8 3.99-4.03 3.99a4.01 4.01 0 01-4.02-4c0-2.19 1.8-3.98 4.02-3.98z" opacity=".5"/><path fill="#9A9B9C" d="M201.57 13.25c2.22 0 4.03 1.79 4.03 3.99s-1.8 3.99-4.03 3.99a4.01 4.01 0 01-4.02-4c0-2.19 1.8-3.98 4.02-3.98z" opacity=".5"/><path fill="#9B9C9D" d="M201.59 13.25c2.21 0 4.02 1.79 4.02 3.99s-1.8 3.99-4.02 3.99a4.01 4.01 0 01-4.03-4 4 4 0 014.03-3.98z" opacity=".5"/><path fill="#9C9C9E" d="M201.59 13.25c2.21 0 4.02 1.79 4.02 3.99s-1.8 3.99-4.02 3.99a4.01 4.01 0 01-4.03-4 4 4 0 014.03-3.98z" opacity=".5"/><path fill="#9D9D9F" d="M201.59 13.26c2.21 0 4.02 1.8 4.02 4s-1.8 3.98-4.02 3.98a4.01 4.01 0 01-4.03-3.99 4 4 0 014.03-3.99z" opacity=".5"/><path fill="#9E9EA0" d="M201.59 13.26c2.21 0 4.02 1.8 4.02 4s-1.8 3.98-4.02 3.98a4.01 4.01 0 01-4.03-3.99c0-2.2 1.81-3.99 4.03-3.99z" opacity=".5"/><path fill="#9E9FA1" d="M201.59 13.26c2.21 0 4.02 1.8 4.02 4s-1.8 3.98-4.02 3.98a4.01 4.01 0 01-4.03-3.99c0-2.2 1.81-3.99 4.03-3.99z" opacity=".5"/><path fill="#9FA0A1" d="M201.59 13.26c2.21 0 4.02 1.8 4.02 4s-1.8 3.98-4.02 3.98a4.01 4.01 0 01-4.03-3.99c0-2.2 1.81-3.99 4.03-3.99z" opacity=".5"/><path fill="#A0A1A2" d="M201.6 13.28c2.22 0 4.02 1.79 4.02 3.99s-1.8 3.99-4.02 3.99a4 4 0 110-7.98z" opacity=".5"/><path fill="#A1A1A3" d="M201.6 13.28c2.22 0 4.02 1.79 4.02 3.99s-1.8 3.99-4.02 3.99a4 4 0 110-7.98z" opacity=".5"/><path fill="#A2A2A4" d="M201.6 13.28c2.22 0 4.02 1.79 4.02 3.99s-1.8 3.99-4.02 3.99a4.01 4.01 0 01-4.02-4c0-2.2 1.8-3.98 4.02-3.98z" opacity=".5"/><path fill="#A2A3A5" d="M201.6 13.28c2.22 0 4.02 1.79 4.02 3.99s-1.8 3.99-4.02 3.99a4.01 4.01 0 01-4.02-4c0-2.2 1.8-3.98 4.02-3.98z" opacity=".5"/><path fill="#A3A4A6" d="M201.6 13.28c2.22 0 4.02 1.79 4.02 3.99s-1.8 3.99-4.02 3.99a4.01 4.01 0 01-4.02-4c0-2.2 1.8-3.98 4.02-3.98z" opacity=".5"/><path fill="#A4A5A7" d="M201.6 13.29c2.22 0 4.02 1.8 4.02 4 0 2.19-1.8 3.98-4.02 3.98a4.01 4.01 0 01-4.02-3.99c.01-2.21 1.8-3.99 4.02-3.99z" opacity=".5"/><path fill="#A5A6A7" d="M201.62 13.29a4 4 0 014.02 4 4 4 0 01-4.02 3.98 4 4 0 110-7.98z" opacity=".5"/><path fill="#A6A6A8" d="M201.62 13.29a4 4 0 014.02 4 4 4 0 01-4.02 3.98 4.01 4.01 0 01-4.03-3.99c0-2.2 1.8-3.99 4.03-3.99z" opacity=".5"/><path fill="#A6A7A9" d="M201.62 13.29a4 4 0 014.02 4 4 4 0 01-4.02 3.98 4 4 0 01-4.03-3.99c0-2.2 1.8-3.99 4.03-3.99z" opacity=".5"/><path fill="#A7A8AA" d="M201.62 13.3a4 4 0 014.02 4 4 4 0 01-4.02 3.99 4 4 0 01-4.03-4 4 4 0 014.03-3.99z" opacity=".5"/><path fill="#A8A9AB" d="M201.62 13.3a4 4 0 014.02 4 4 4 0 01-4.02 3.99 4 4 0 01-4.03-4c.01-2.2 1.8-3.99 4.03-3.99z" opacity=".5"/><path fill="#A9AAAC" d="M201.62 13.3a4 4 0 014.02 4 4 4 0 01-4.02 3.99 4 4 0 01-4.03-4c.01-2.2 1.8-3.99 4.03-3.99z" opacity=".5"/><path fill="#AAABAC" d="M201.63 13.3a4 4 0 014.02 4 4 4 0 01-4.02 3.99 4 4 0 01-4.03-4 4 4 0 014.03-3.99z" opacity=".5"/><path fill="#AAABAD" d="M201.63 13.3a4 4 0 014.02 4 4 4 0 01-4.02 3.99 4 4 0 01-4.03-4c0-2.2 1.81-3.99 4.03-3.99z" opacity=".5"/><path fill="#ABACAE" d="M201.63 13.32a4 4 0 110 7.96 4 4 0 110-7.96z" opacity=".5"/><path fill="#ACADAF" d="M201.63 13.32a4 4 0 014 3.97 4 4 0 01-4 3.98 4 4 0 01-4.01-3.98 4 4 0 014-3.97z" opacity=".5"/><path fill="#ADAEB0" d="M201.63 13.32a4 4 0 014 3.97 4 4 0 01-4 3.98 4 4 0 01-4.01-3.98 4 4 0 014-3.97z" opacity=".5"/><path fill="#AEAFB1" d="M201.63 13.32a4 4 0 014 3.97 4 4 0 01-4 3.98 4 4 0 01-4.01-3.98 4 4 0 014-3.97z" opacity=".5"/><path fill="#AEB0B1" d="M201.63 13.32a4 4 0 014 3.97 4 4 0 01-4 3.98 4 4 0 01-4.01-3.98 4 4 0 014-3.97z" opacity=".5"/><path fill="#AFB0B2" d="M201.64 13.33a4 4 0 014.01 3.98 4 4 0 01-4 3.98 3.98 3.98 0 110-7.95z" opacity=".5"/><path fill="#B0B1B3" d="M201.64 13.33a4 4 0 014.01 3.98 4 4 0 01-4 3.98c-2.22 0-4.02-1.78-4.02-3.98s1.8-3.98 4.01-3.98z" opacity=".5"/><path fill="#B1B2B4" d="M201.64 13.33a4 4 0 014.01 3.98 4 4 0 01-4 3.98c-2.22 0-4.02-1.78-4.02-3.98s1.8-3.98 4.01-3.98z" opacity=".5"/><path fill="#B2B3B5" d="M201.64 13.33a4 4 0 014.01 3.98 4 4 0 01-4 3.98c-2.22 0-4.02-1.78-4.02-3.98a4 4 0 014.01-3.98z" opacity=".5"/><path fill="#B2B4B6" d="M201.64 13.34a4 4 0 014.01 3.98 4 4 0 01-4 3.98c-2.22 0-4.02-1.78-4.02-3.98s1.8-3.98 4.01-3.98z" opacity=".5"/><path fill="#B3B5B7" d="M201.64 13.34a4 4 0 014.01 3.98 4 4 0 01-4 3.98c-2.22 0-4.02-1.78-4.02-3.98a4 4 0 014.01-3.98z" opacity=".5"/><path fill="#B4B5B7" d="M201.66 13.34c2.21 0 4 1.78 4 3.98s-1.79 3.98-4 3.98a3.98 3.98 0 110-7.95z" opacity=".5"/><path fill="#B5B6B8" d="M201.66 13.34c2.21 0 4 1.78 4 3.98s-1.79 3.98-4 3.98a4 4 0 01-4.01-3.98 4 4 0 014-3.98z" opacity=".5"/><path fill="#B6B7B9" d="M201.66 13.34c2.21 0 4 1.78 4 3.98s-1.79 3.98-4 3.98a4 4 0 01-4.01-3.98 4 4 0 014-3.98z" opacity=".5"/><path fill="#B6B8BA" d="M201.66 13.36c2.21 0 4 1.78 4 3.97 0 2.2-1.79 3.98-4 3.98a4 4 0 01-4.01-3.98 4 4 0 014-3.97z" opacity=".5"/><path fill="#B7B9BB" d="M201.66 13.36c2.21 0 4 1.78 4 3.97 0 2.2-1.79 3.98-4 3.98a4 4 0 01-4.01-3.98 4 4 0 014-3.97z" opacity=".5"/><path fill="#B8BABC" d="M201.66 13.36c2.21 0 4 1.78 4 3.97 0 2.2-1.79 3.98-4 3.98a4 4 0 01-4.01-3.98 4 4 0 014-3.97z" opacity=".5"/><path fill="#B9BABC" d="M201.67 13.36a4 4 0 014 3.97 4 4 0 01-4 3.98 4 4 0 01-4.01-3.98 4 4 0 014-3.97z" opacity=".5"/><path fill="#BABBBD" d="M201.67 13.36a4 4 0 014 3.97 4 4 0 01-4 3.98 4 4 0 01-4.01-3.98 4 4 0 014-3.97z" opacity=".5"/><path fill="#BBBCBE" d="M201.67 13.37a4 4 0 014 3.98 4 4 0 01-4 3.98 4 4 0 01-4.01-3.98 4 4 0 014-3.98z" opacity=".5"/><path fill="#BBBDBF" d="M201.67 13.37a4 4 0 014 3.98 4 4 0 01-4 3.98 4 4 0 01-4.01-3.98 4 4 0 014-3.98z" opacity=".5"/><path fill="#BCBEC0" d="M201.67 13.37a4 4 0 014 3.98 4 4 0 01-4 3.98 4 4 0 01-4.01-3.98 4 4 0 014-3.98z" opacity=".5"/><path fill="#BDBFC1" d="M201.67 13.37a4 4 0 014 3.98 4 4 0 01-4 3.98 4 4 0 01-4.01-3.98 4 4 0 014-3.98z" opacity=".5"/><path fill="#BEBFC1" d="M201.68 13.38a4 4 0 014.01 3.98 4 4 0 01-4 3.98c-2.22 0-4.02-1.78-4.02-3.98s1.8-3.98 4.01-3.98z" opacity=".5"/><path fill="#BFC0C2" d="M201.68 13.38a4 4 0 014.01 3.98 4 4 0 01-4 3.98c-2.22 0-4.02-1.78-4.02-3.98s1.8-3.98 4.01-3.98z" opacity=".5"/><path fill="#BFC1C3" d="M201.68 13.38a4 4 0 014.01 3.98 4 4 0 01-4 3.98c-2.22 0-4.02-1.78-4.02-3.98s1.8-3.98 4.01-3.98z" opacity=".5"/><path fill="#C0C2C4" d="M201.68 13.38a4 4 0 014.01 3.98 4 4 0 01-4 3.98c-2.22 0-4.02-1.78-4.02-3.98s1.8-3.98 4.01-3.98z" opacity=".5"/><path fill="#C1C3C5" d="M201.68 13.38a4 4 0 014.01 3.98 4 4 0 01-4 3.98c-2.22 0-4.02-1.78-4.02-3.98a4 4 0 014.01-3.98z" opacity=".5"/><path fill="#C2C4C6" d="M201.68 13.4a4 4 0 014.01 3.98 4 4 0 01-4 3.97c-2.22 0-4.02-1.78-4.02-3.97a4 4 0 014.01-3.98z" opacity=".5"/><path fill="#C3C4C6" d="M201.7 13.4c2.21 0 4 1.78 4 3.98s-1.79 3.97-4 3.97a4 4 0 01-4.01-3.97 4 4 0 014-3.98z" opacity=".5"/><path fill="#C3C5C7" d="M201.7 13.4c2.21 0 4 1.78 4 3.98s-1.79 3.97-4 3.97a4 4 0 01-4.01-3.97 4 4 0 014-3.98z" opacity=".5"/><path fill="#C4C6C8" d="M201.7 13.4c2.21 0 4 1.78 4 3.98s-1.79 3.97-4 3.97a4 4 0 01-4.01-3.97 4 4 0 014-3.98z" opacity=".5"/><path fill="#C5C7C9" d="M205.7 17.38c0 2.2-1.79 3.97-4 3.97a4 4 0 01-4.01-3.97 4 4 0 014-3.98c2.22 0 4.02 1.78 4.02 3.98z" opacity=".5"/><path fill="#C5C7C9" d="M201.7 13.41c2.21 0 4 1.78 4 3.98s-1.79 3.98-4 3.98a4 4 0 01-4.01-3.98 4 4 0 014-3.98z" opacity=".995"/><path fill="#C6C8CA" d="M201.7 13.41c2.21 0 4 1.78 4 3.98s-1.79 3.98-4 3.98a4 4 0 01-4.01-3.98 4 4 0 014-3.98z" opacity=".99"/><path fill="#C6C8CA" d="M201.7 13.41c2.21 0 4 1.78 4 3.98s-1.79 3.98-4 3.98a4 4 0 01-4.01-3.98 4 4 0 014-3.98z" opacity=".985"/><path fill="#C6C8CA" d="M201.71 13.41a4 4 0 014.01 3.98 4 4 0 01-4.01 3.98 4 4 0 01-4-3.98 4 4 0 014-3.98z" opacity=".98"/><path fill="#C6C8CA" d="M201.71 13.41a4 4 0 014.01 3.98 4 4 0 01-4.01 3.98 4 4 0 01-4-3.98 4 4 0 014-3.98z" opacity=".975"/><path fill="#C7C9CB" d="M201.71 13.41a4 4 0 014.01 3.98 4 4 0 01-4.01 3.98 4 4 0 01-4-3.98 4 4 0 014-3.98z" opacity=".97"/><path fill="#C7C9CB" d="M201.71 13.43a4 4 0 014.01 3.97 4 4 0 01-4.01 3.98c-2.22 0-4-1.78-4-3.98a4 4 0 014-3.97z" opacity=".965"/><path fill="#C7C9CB" d="M201.71 13.43a4 4 0 014.01 3.97 4 4 0 01-4.01 3.98c-2.22 0-4-1.78-4-3.98a4 4 0 014-3.97z" opacity=".96"/><path fill="#C8CACB" d="M201.71 13.43a4 4 0 014.01 3.97 4 4 0 01-4.01 3.98c-2.22 0-4-1.78-4-3.98a4 4 0 014-3.97z" opacity=".955"/><path fill="#C8CACC" d="M201.71 13.43a4 4 0 014.01 3.97 4 4 0 01-4.01 3.98c-2.22 0-4-1.78-4-3.98a4 4 0 014-3.97z" opacity=".95"/><path fill="#C8CACC" d="M201.72 13.43a4 4 0 014.01 3.97 4 4 0 01-4 3.98c-2.22 0-4.01-1.78-4.01-3.98s1.79-3.97 4-3.97z" opacity=".945"/><path fill="#C8CACC" d="M201.72 13.44a4 4 0 014.01 3.98 4 4 0 01-4 3.97 3.98 3.98 0 110-7.95z" opacity=".94"/><path fill="#C9CBCC" d="M201.72 13.44a4 4 0 014.01 3.98 4 4 0 01-4 3.97c-2.22 0-4.01-1.77-4.01-3.97s1.79-3.98 4-3.98z" opacity=".935"/><path fill="#C9CBCD" d="M201.72 13.44a4 4 0 014.01 3.98 4 4 0 01-4 3.97c-2.22 0-4.01-1.77-4.01-3.97s1.79-3.98 4-3.98z" opacity=".93"/><path fill="#C9CBCD" d="M201.72 13.44a4 4 0 014.01 3.98 4 4 0 01-4 3.97c-2.22 0-4.01-1.77-4.01-3.97a4 4 0 014-3.98z" opacity=".925"/><path fill="#CACBCD" d="M201.72 13.44a4 4 0 014.01 3.98 4 4 0 01-4 3.97c-2.22 0-4.01-1.77-4.01-3.97a4 4 0 014-3.98z" opacity=".92"/><path fill="#CACCCE" d="M201.72 13.44a4 4 0 014.01 3.98 4 4 0 01-4 3.97c-2.22 0-4.01-1.77-4.01-3.97a4 4 0 014-3.98z" opacity=".915"/><path fill="#CACCCE" d="M201.74 13.45c2.22 0 4 1.78 4 3.98s-1.78 3.98-4 3.98a3.98 3.98 0 110-7.95z" opacity=".91"/><path fill="#CACCCE" d="M201.74 13.45c2.22 0 4 1.78 4 3.98s-1.78 3.98-4 3.98a4 4 0 01-4.01-3.98 4 4 0 014-3.98z" opacity=".905"/><path fill="#CBCDCE" d="M201.74 13.45c2.22 0 4 1.78 4 3.98s-1.78 3.98-4 3.98a4 4 0 01-4.01-3.98 4 4 0 014-3.98z" opacity=".9"/><path fill="#CBCDCF" d="M201.74 13.45c2.22 0 4 1.78 4 3.98s-1.78 3.98-4 3.98a4 4 0 01-4.01-3.98 4 4 0 014-3.98z" opacity=".895"/><path fill="#CBCDCF" d="M201.74 13.45c2.22 0 4 1.78 4 3.98s-1.78 3.98-4 3.98a4 4 0 01-4.01-3.98 4 4 0 014-3.98z" opacity=".89"/><path fill="#CCCDCF" d="M201.74 13.45c2.22 0 4 1.78 4 3.98s-1.78 3.98-4 3.98a4 4 0 01-4.01-3.98 4 4 0 014-3.98z" opacity=".886"/><path fill="#CCCECF" d="M201.74 13.47c2.22 0 4 1.77 4 3.97s-1.78 3.98-4 3.98a4 4 0 01-4.01-3.98 4 4 0 014-3.97z" opacity=".881"/><path fill="#CCCED0" d="M201.75 13.47a4 4 0 014.01 3.97 4 4 0 01-4 3.98 4 4 0 01-4.02-3.98 4 4 0 014.01-3.97z" opacity=".876"/><path fill="#CDCED0" d="M201.75 13.47a4 4 0 014.01 3.97 4 4 0 01-4 3.98 4 4 0 01-4.02-3.98 4 4 0 014.01-3.97z" opacity=".871"/><path fill="#CDCFD0" d="M201.75 13.47a4 4 0 014.01 3.97 4 4 0 01-4 3.98 4 4 0 01-4.02-3.98 4 4 0 014.01-3.97z" opacity=".866"/><path fill="#CDCFD1" d="M201.75 13.47a4 4 0 014.01 3.97 4 4 0 01-4 3.98 4 4 0 01-4.02-3.98 4 4 0 014.01-3.97z" opacity=".861"/><path fill="#CDCFD1" d="M201.75 13.47a4 4 0 014.01 3.97 4 4 0 01-4 3.98 4 4 0 01-4.02-3.98 4 4 0 014.01-3.97z" opacity=".856"/><path fill="#CECFD1" d="M201.75 13.48a4 4 0 014.01 3.98c0 2.2-1.8 3.97-4 3.97a4 4 0 01-4.02-3.97 4 4 0 014.01-3.98z" opacity=".851"/><path fill="#CED0D1" d="M201.75 13.48a4 4 0 014.01 3.98c0 2.2-1.8 3.97-4 3.97a4 4 0 01-4.02-3.97 4 4 0 014.01-3.98z" opacity=".846"/><path fill="#CED0D2" d="M201.75 13.48a4 4 0 014.01 3.98c0 2.2-1.8 3.97-4 3.97a4 4 0 01-4.02-3.97 4 4 0 014.01-3.98z" opacity=".841"/><path fill="#CFD0D2" d="M201.76 13.48a4 4 0 014.02 3.98 4 4 0 01-4.02 3.97c-2.21 0-4-1.77-4-3.97s1.79-3.98 4-3.98z" opacity=".836"/><path fill="#CFD0D2" d="M201.76 13.48a4 4 0 014.02 3.98 4 4 0 01-4.02 3.97c-2.21 0-4-1.77-4-3.97s1.79-3.98 4-3.98z" opacity=".831"/><path fill="#CFD1D2" d="M201.76 13.48a4 4 0 014.02 3.98 4 4 0 01-4.02 3.97c-2.21 0-4-1.77-4-3.97s1.79-3.98 4-3.98z" opacity=".826"/><path fill="#CFD1D3" d="M201.76 13.5a4 4 0 014.02 3.97 4 4 0 01-4.02 3.98c-2.21 0-4-1.78-4-3.98s1.79-3.98 4-3.98z" opacity=".821"/><path fill="#D0D1D3" d="M201.76 13.5a4 4 0 014.02 3.97 4 4 0 01-4.02 3.98c-2.21 0-4-1.78-4-3.98a4 4 0 014-3.98z" opacity=".816"/><path fill="#D0D2D3" d="M201.76 13.5a4 4 0 014.02 3.97 4 4 0 01-4.02 3.98c-2.21 0-4-1.78-4-3.98a4 4 0 014-3.98z" opacity=".811"/><path fill="#D0D2D3" d="M201.76 13.5a4 4 0 014.02 3.97 4 4 0 01-4.02 3.98c-2.21 0-4-1.78-4-3.98a4 4 0 014-3.98z" opacity=".806"/><path fill="#D1D2D4" d="M201.78 13.5c2.22 0 4 1.77 4 3.97s-1.78 3.98-4 3.98a4 4 0 01-4.01-3.98 4 4 0 014-3.98z" opacity=".801"/><path fill="#D1D2D4" d="M201.78 13.5c2.22 0 4 1.77 4 3.97s-1.78 3.98-4 3.98a4 4 0 01-4.01-3.98 4 4 0 014-3.98z" opacity=".796"/><path fill="#D1D3D4" d="M201.78 13.5c2.22 0 4 1.79 4 3.98 0 2.2-1.78 3.98-4 3.98a4 4 0 01-4.01-3.98 4 4 0 014-3.97z" opacity=".791"/><path fill="#D1D3D5" d="M201.78 13.5c2.22 0 4 1.79 4 3.98 0 2.2-1.78 3.98-4 3.98a4 4 0 01-4.01-3.98 4 4 0 014-3.97z" opacity=".786"/><path fill="#D2D3D5" d="M201.78 13.5c2.22 0 4 1.79 4 3.98 0 2.2-1.78 3.98-4 3.98a4 4 0 01-4.01-3.98 4 4 0 014-3.97z" opacity=".781"/><path fill="#D2D4D5" d="M201.78 13.5c2.22 0 4 1.79 4 3.98 0 2.2-1.78 3.98-4 3.98a4 4 0 01-4.01-3.98 4 4 0 014-3.97z" opacity=".776"/><path fill="#D2D4D5" d="M201.78 13.5c2.22 0 4 1.79 4 3.98 0 2.2-1.78 3.98-4 3.98a4 4 0 01-4.01-3.98 4 4 0 014-3.97z" opacity=".771"/><path fill="#D3D4D6" d="M201.8 13.5a4 4 0 014 3.98 4 4 0 01-4 3.98 4 4 0 01-4.02-3.98 4 4 0 014.01-3.97z" opacity=".766"/><path fill="#D3D4D6" d="M201.8 13.52a4 4 0 014 3.98 4 4 0 01-4 3.97 4 4 0 01-4.02-3.97 4 4 0 014.01-3.98z" opacity=".761"/><path fill="#D3D5D6" d="M201.8 13.52a4 4 0 014 3.98 4 4 0 01-4 3.97 4 4 0 01-4.02-3.97 4 4 0 014.01-3.98z" opacity=".756"/><path fill="#D3D5D6" d="M201.8 13.52a4 4 0 014 3.98 4 4 0 01-4 3.97 4 4 0 01-4.02-3.97 4 4 0 014.01-3.98z" opacity=".751"/><path fill="#D4D5D7" d="M201.8 13.52a4 4 0 014 3.98 4 4 0 01-4 3.97 4 4 0 01-4.02-3.97 4 4 0 014.01-3.98z" opacity=".746"/><path fill="#D4D5D7" d="M201.8 13.52a4 4 0 014 3.98 4 4 0 01-4 3.97 4 4 0 01-4.02-3.97 4 4 0 014.01-3.98z" opacity=".741"/><path fill="#D4D6D7" d="M201.8 13.52a4 4 0 014 3.98 4 4 0 01-4 3.97 4 4 0 01-4.02-3.97 4 4 0 014.01-3.98z" opacity=".736"/><path fill="#D5D6D8" d="M201.8 13.53a4 4 0 014.02 3.98 4 4 0 01-4.01 3.98c-2.22 0-4.01-1.78-4.01-3.98s1.79-3.98 4-3.98z" opacity=".731"/><path fill="#D5D6D8" d="M201.8 13.53a4 4 0 014.02 3.98 4 4 0 01-4.01 3.98c-2.22 0-4.01-1.78-4.01-3.98s1.79-3.98 4-3.98z" opacity=".726"/><path fill="#D5D7D8" d="M201.8 13.53a4 4 0 014.02 3.98 4 4 0 01-4.01 3.98c-2.22 0-4.01-1.78-4.01-3.98s1.79-3.98 4-3.98z" opacity=".721"/><path fill="#D5D7D8" d="M201.8 13.53a4 4 0 014.02 3.98 4 4 0 01-4.01 3.98c-2.22 0-4.01-1.78-4.01-3.98s1.79-3.98 4-3.98z" opacity=".716"/><path fill="#D6D7D9" d="M201.8 13.53a4 4 0 014.02 3.98 4 4 0 01-4.01 3.98c-2.22 0-4.01-1.78-4.01-3.98a4 4 0 014-3.98z" opacity=".711"/><path fill="#D6D7D9" d="M201.8 13.53a4 4 0 014.02 3.98 4 4 0 01-4.01 3.98c-2.22 0-4.01-1.78-4.01-3.98a4 4 0 014-3.98z" opacity=".707"/><path fill="#D6D8D9" d="M201.8 13.55a4 4 0 014.02 3.97 4 4 0 01-4.01 3.98c-2.22 0-4.01-1.78-4.01-3.98a4 4 0 014-3.97z" opacity=".702"/><path fill="#D7D8D9" d="M201.82 13.55c2.22 0 4 1.78 4 3.97 0 2.2-1.78 3.98-4 3.98-2.22 0-4-1.78-4-3.98s1.78-3.97 4-3.97z" opacity=".697"/><path fill="#D7D8DA" d="M201.82 13.55c2.22 0 4 1.78 4 3.97 0 2.2-1.78 3.98-4 3.98-2.22 0-4-1.78-4-3.98s1.78-3.97 4-3.97z" opacity=".692"/><path fill="#D7D9DA" d="M201.82 13.55c2.22 0 4 1.78 4 3.97 0 2.2-1.78 3.98-4 3.98-2.22 0-4-1.78-4-3.98s1.78-3.97 4-3.97z" opacity=".687"/><path fill="#D7D9DA" d="M201.82 13.55c2.22 0 4 1.78 4 3.97 0 2.2-1.78 3.98-4 3.98-2.22 0-4-1.78-4-3.98s1.78-3.97 4-3.97z" opacity=".682"/><path fill="#D8D9DA" d="M201.82 13.55c2.22 0 4 1.78 4 3.97 0 2.2-1.78 3.98-4 3.98-2.22 0-4-1.78-4-3.98a4 4 0 014-3.97z" opacity=".677"/><path fill="#D8D9DB" d="M201.82 13.56c2.22 0 4 1.78 4 3.98s-1.78 3.98-4 3.98c-2.22 0-4-1.78-4-3.98a4 4 0 014-3.98z" opacity=".672"/><path fill="#D8DADB" d="M201.82 13.56c2.22 0 4 1.78 4 3.98s-1.78 3.98-4 3.98c-2.22 0-4-1.78-4-3.98a4 4 0 014-3.98z" opacity=".667"/><path fill="#D9DADB" d="M201.83 13.56c2.22 0 4.01 1.78 4.01 3.98s-1.79 3.98-4 3.98a4 4 0 01-4.02-3.98 4 4 0 014.01-3.98z" opacity=".662"/><path fill="#D9DADC" d="M201.83 13.56c2.22 0 4.01 1.78 4.01 3.98s-1.79 3.98-4 3.98a4 4 0 01-4.02-3.98 4 4 0 014.01-3.98z" opacity=".657"/><path fill="#D9DBDC" d="M201.83 13.56c2.22 0 4.01 1.78 4.01 3.98s-1.79 3.98-4 3.98a4 4 0 01-4.02-3.98 4 4 0 014.01-3.98z" opacity=".652"/><path fill="#D9DBDC" d="M201.83 13.56c2.22 0 4.01 1.78 4.01 3.98s-1.79 3.98-4 3.98a4 4 0 01-4.02-3.98 4 4 0 014.01-3.98z" opacity=".647"/><path fill="#DADBDC" d="M201.83 13.57c2.22 0 4.01 1.78 4.01 3.98s-1.79 3.98-4 3.98a4 4 0 01-4.02-3.98 4 4 0 014.01-3.98z" opacity=".642"/><path fill="#DADBDD" d="M201.83 13.57c2.22 0 4.01 1.78 4.01 3.98s-1.79 3.98-4 3.98a4 4 0 01-4.02-3.98 4 4 0 014.01-3.98z" opacity=".637"/><path fill="#DADCDD" d="M201.83 13.57c2.22 0 4.01 1.78 4.01 3.98s-1.79 3.98-4 3.98a4 4 0 01-4.02-3.98 4 4 0 014.01-3.98z" opacity=".632"/><path fill="#DBDCDD" d="M201.83 13.57c2.22 0 4.01 1.78 4.01 3.98s-1.79 3.98-4 3.98a4 4 0 01-4.02-3.98 4 4 0 014.01-3.98z" opacity=".627"/><path fill="#DBDCDD" d="M201.85 13.57a4 4 0 014 3.98 4 4 0 01-4 3.98c-2.22 0-4.01-1.78-4.01-3.98s1.79-3.98 4-3.98z" opacity=".622"/><path fill="#DBDCDE" d="M201.85 13.57a4 4 0 014 3.98 4 4 0 01-4 3.98c-2.22 0-4.01-1.78-4.01-3.98s1.79-3.98 4-3.98z" opacity=".617"/><path fill="#DCDDDE" d="M201.85 13.59a4 4 0 014 3.98 4 4 0 01-4 3.97c-2.22 0-4.01-1.78-4.01-3.97 0-2.2 1.79-3.98 4-3.98z" opacity=".612"/><path fill="#DCDDDE" d="M201.85 13.59a4 4 0 014 3.98 4 4 0 01-4 3.97c-2.22 0-4.01-1.78-4.01-3.97 0-2.2 1.79-3.98 4-3.98z" opacity=".607"/><path fill="#DCDDDE" d="M201.85 13.59a4 4 0 014 3.98 4 4 0 01-4 3.97c-2.22 0-4.01-1.78-4.01-3.97a4 4 0 014-3.98z" opacity=".602"/><path fill="#DCDEDF" d="M201.85 13.59a4 4 0 014 3.98 4 4 0 01-4 3.97c-2.22 0-4.01-1.78-4.01-3.97a4 4 0 014-3.98z" opacity=".597"/><path fill="#DDDEDF" d="M201.85 13.59a4 4 0 014 3.98 4 4 0 01-4 3.97c-2.22 0-4.01-1.78-4.01-3.97a4 4 0 014-3.98z" opacity=".592"/><path fill="#DDDEDF" d="M201.86 13.59a4 4 0 014.01 3.98 4 4 0 01-4 3.97c-2.23 0-4.02-1.78-4.02-3.97 0-2.2 1.8-3.98 4.01-3.98z" opacity=".587"/><path fill="#DDDEE0" d="M201.86 13.6a4 4 0 014.01 3.98 4 4 0 01-4 3.98c-2.23 0-4.02-1.78-4.02-3.98s1.8-3.98 4.01-3.98z" opacity=".582"/><path fill="#DEDFE0" d="M201.86 13.6a4 4 0 014.01 3.98 4 4 0 01-4 3.98c-2.23 0-4.02-1.78-4.02-3.98s1.8-3.98 4.01-3.98z" opacity=".577"/><path fill="#DEDFE0" d="M201.86 13.6a4 4 0 014.01 3.98 4 4 0 01-4 3.98c-2.23 0-4.02-1.78-4.02-3.98s1.8-3.98 4.01-3.98z" opacity=".572"/><path fill="#DEDFE0" d="M201.86 13.6a4 4 0 014.01 3.98 4 4 0 01-4 3.98c-2.23 0-4.02-1.78-4.02-3.98a4 4 0 014.01-3.98z" opacity=".567"/><path fill="#DEE0E1" d="M201.86 13.6a4 4 0 014.01 3.98 4 4 0 01-4 3.98c-2.23 0-4.02-1.78-4.02-3.98a4 4 0 014.01-3.98z" opacity=".562"/><path fill="#DFE0E1" d="M201.86 13.6a4 4 0 014.01 3.98 4 4 0 01-4 3.98c-2.23 0-4.02-1.78-4.02-3.98a4 4 0 014.01-3.98z" opacity=".557"/><path fill="#DFE0E1" d="M201.88 13.62c2.21 0 4 1.77 4 3.97s-1.79 3.98-4 3.98a4 4 0 01-4.01-3.98 4 4 0 014-3.97z" opacity=".552"/><path fill="#DFE0E1" d="M201.88 13.62c2.21 0 4 1.77 4 3.97s-1.79 3.98-4 3.98a4 4 0 01-4.01-3.98 4 4 0 014-3.97z" opacity=".547"/><path fill="#E0E1E2" d="M201.88 13.62c2.21 0 4 1.77 4 3.97s-1.79 3.98-4 3.98a4 4 0 01-4.01-3.98 4 4 0 014-3.97z" opacity=".542"/><path fill="#E0E1E2" d="M201.88 13.62c2.21 0 4 1.77 4 3.97s-1.79 3.98-4 3.98a4 4 0 01-4.01-3.98 4 4 0 014-3.97z" opacity=".537"/><path fill="#E0E1E2" d="M201.88 13.62c2.21 0 4 1.77 4 3.97s-1.79 3.98-4 3.98a4 4 0 01-4.01-3.98 4 4 0 014-3.97z" opacity=".532"/><path fill="#E0E1E3" d="M201.88 13.62c2.21 0 4 1.77 4 3.97s-1.79 3.98-4 3.98a4 4 0 01-4.01-3.98 4 4 0 014-3.97z" opacity=".527"/><path fill="#E1E2E3" d="M201.88 13.63c2.21 0 4 1.78 4 3.98s-1.79 3.97-4 3.97a4 4 0 01-4.01-3.97 4 4 0 014-3.98z" opacity=".522"/><path fill="#E1E2E3" d="M201.89 13.63a4 4 0 014 3.98 4 4 0 01-4 3.97 4 4 0 01-4.01-3.97 4 4 0 014-3.98z" opacity=".517"/><path fill="#E1E2E3" d="M201.89 13.63a4 4 0 014 3.98 4 4 0 01-4 3.97 4 4 0 01-4.01-3.97 4 4 0 014-3.98z" opacity=".512"/><path fill="#E2E3E4" d="M201.89 13.63a4 4 0 014 3.98 4 4 0 01-4 3.97 4 4 0 01-4.01-3.97 4 4 0 014-3.98z" opacity=".507"/><path fill="#E2E3E4" d="M201.89 13.63a4 4 0 014 3.98 4 4 0 01-4 3.97 4 4 0 01-4.01-3.97 4 4 0 014-3.98z" opacity=".502"/><path fill="#E2E3E4" d="M201.89 13.63a4 4 0 014 3.98 4 4 0 01-4 3.97 4 4 0 01-4.01-3.97 4 4 0 014-3.98z" opacity=".497"/><path fill="#E2E3E4" d="M201.89 13.64a4 4 0 014 3.98 4 4 0 01-4 3.98 4 4 0 01-4.01-3.98 4 4 0 014-3.98z" opacity=".492"/><path fill="#E3E4E5" d="M201.89 13.64a4 4 0 014 3.98 4 4 0 01-4 3.98 4 4 0 01-4.01-3.98 4 4 0 014-3.98z" opacity=".488"/><path fill="#E3E4E5" d="M201.9 13.64a4 4 0 014.01 3.98 4 4 0 01-4 3.98c-2.22 0-4.02-1.78-4.02-3.98s1.8-3.98 4.01-3.98z" opacity=".483"/><path fill="#E3E4E5" d="M201.9 13.64a4 4 0 014.01 3.98 4 4 0 01-4 3.98c-2.22 0-4.02-1.78-4.02-3.98s1.8-3.98 4.01-3.98z" opacity=".478"/><path fill="#E4E5E5" d="M201.9 13.64a4 4 0 014.01 3.98 4 4 0 01-4 3.98c-2.22 0-4.02-1.78-4.02-3.98s1.8-3.98 4.01-3.98z" opacity=".473"/><path fill="#E4E5E6" d="M201.9 13.64a4 4 0 014.01 3.98 4 4 0 01-4 3.98c-2.22 0-4.02-1.78-4.02-3.98s1.8-3.98 4.01-3.98z" opacity=".468"/><path fill="#E4E5E6" d="M201.9 13.66a4 4 0 014.01 3.97 4 4 0 01-4 3.98c-2.22 0-4.02-1.78-4.02-3.98a4 4 0 014.01-3.97z" opacity=".463"/><path fill="#E4E5E6" d="M201.9 13.66a4 4 0 014.01 3.97 4 4 0 01-4 3.98c-2.22 0-4.02-1.78-4.02-3.98a4 4 0 014.01-3.97z" opacity=".458"/><path fill="#E5E6E7" d="M201.9 13.66a4 4 0 014.01 3.97 4 4 0 01-4 3.98c-2.22 0-4.02-1.78-4.02-3.98a4 4 0 014.01-3.97z" opacity=".453"/><path fill="#E5E6E7" d="M201.92 13.66c2.21 0 4 1.77 4 3.97s-1.79 3.98-4 3.98a4 4 0 01-4.01-3.98 4 4 0 014-3.97z" opacity=".448"/><path fill="#E5E6E7" d="M201.92 13.66c2.21 0 4 1.77 4 3.97s-1.79 3.98-4 3.98a4 4 0 01-4.01-3.98 4 4 0 014-3.97z" opacity=".443"/><path fill="#E6E6E7" d="M201.92 13.67c2.21 0 4 1.78 4 3.98s-1.79 3.97-4 3.97a3.98 3.98 0 110-7.95z" opacity=".438"/><path fill="#E6E7E8" d="M201.92 13.67c2.21 0 4 1.78 4 3.98s-1.79 3.97-4 3.97a4 4 0 01-4.01-3.97 4 4 0 014-3.98z" opacity=".433"/><path fill="#E6E7E8" d="M201.92 13.67c2.21 0 4 1.78 4 3.98s-1.79 3.97-4 3.97a4 4 0 01-4.01-3.97 4 4 0 014-3.98z" opacity=".428"/><path fill="#E6E7E8" d="M201.92 13.67c2.21 0 4 1.78 4 3.98s-1.79 3.97-4 3.97a4 4 0 01-4.01-3.97 4 4 0 014-3.98z" opacity=".423"/><path fill="#E7E8E8" d="M201.92 13.67c2.21 0 4 1.78 4 3.98s-1.79 3.97-4 3.97a4 4 0 01-4.01-3.97 4 4 0 014-3.98z" opacity=".418"/><path fill="#E7E8E9" d="M201.92 13.67c2.21 0 4 1.78 4 3.98s-1.79 3.97-4 3.97a4 4 0 01-4.01-3.97 4 4 0 014-3.98z" opacity=".413"/><path fill="#E7E8E9" d="M201.93 13.68a4 4 0 014 3.98 4 4 0 01-4 3.98 3.98 3.98 0 110-7.95z" opacity=".408"/><path fill="#E8E8E9" d="M201.93 13.68a4 4 0 014 3.98 4 4 0 01-4 3.98 4 4 0 01-4.01-3.98 4 4 0 014-3.98z" opacity=".403"/><path fill="#E8E9EA" d="M201.93 13.68a4 4 0 014 3.98 4 4 0 01-4 3.98 4 4 0 01-4.01-3.98 4 4 0 014-3.98z" opacity=".398"/><path fill="#E8E9EA" d="M201.93 13.68a4 4 0 014 3.98 4 4 0 01-4 3.98 4 4 0 01-4.01-3.98 4 4 0 014-3.98z" opacity=".393"/><path fill="#E8E9EA" d="M201.93 13.68a4 4 0 014 3.98 4 4 0 01-4 3.98 4 4 0 01-4.01-3.98 4 4 0 014-3.98z" opacity=".388"/><path fill="#E9EAEA" d="M201.93 13.68a4 4 0 014 3.98 4 4 0 01-4 3.98 4 4 0 01-4.01-3.98 4 4 0 014-3.98z" opacity=".383"/><path fill="#E9EAEB" d="M201.93 13.7a4 4 0 014 3.97 4 4 0 01-4 3.98 4 4 0 01-4.01-3.98 4 4 0 014-3.97z" opacity=".378"/><path fill="#E9EAEB" d="M201.94 13.7a4 4 0 014.01 3.97 4 4 0 01-4 3.98c-2.22 0-4.02-1.78-4.02-3.98s1.8-3.97 4.01-3.97z" opacity=".373"/><path fill="#EAEAEB" d="M201.94 13.7a4 4 0 014.01 3.97 4 4 0 01-4 3.98c-2.22 0-4.02-1.78-4.02-3.98s1.8-3.97 4.01-3.97z" opacity=".368"/><path fill="#EAEBEB" d="M201.94 13.7a4 4 0 014.01 3.97 4 4 0 01-4 3.98c-2.22 0-4.02-1.78-4.02-3.98s1.8-3.97 4.01-3.97z" opacity=".363"/><path fill="#EAEBEC" d="M201.94 13.7a4 4 0 014.01 3.97 4 4 0 01-4 3.98c-2.22 0-4.02-1.78-4.02-3.98s1.8-3.97 4.01-3.97z" opacity=".358"/><path fill="#EBEBEC" d="M201.94 13.7a4 4 0 014.01 3.97 4 4 0 01-4 3.98c-2.22 0-4.02-1.78-4.02-3.98a4 4 0 014.01-3.97z" opacity=".353"/><path fill="#EBEBEC" d="M201.94 13.71a4 4 0 014.01 3.98 4 4 0 01-4 3.98c-2.22 0-4.02-1.78-4.02-3.98a4 4 0 014.01-3.98z" opacity=".348"/><path fill="#EBECEC" d="M201.94 13.71a4 4 0 014.01 3.98 4 4 0 01-4 3.98c-2.22 0-4.02-1.78-4.02-3.98a4 4 0 014.01-3.98z" opacity=".343"/><path fill="#EBECED" d="M201.96 13.71c2.21 0 4 1.78 4 3.98s-1.79 3.98-4 3.98a4 4 0 01-4.01-3.98 4 4 0 014-3.98z" opacity=".338"/><path fill="#ECECED" d="M201.96 13.71c2.21 0 4 1.78 4 3.98s-1.79 3.98-4 3.98a4 4 0 01-4.01-3.98 4 4 0 014-3.98z" opacity=".333"/><path fill="#ECEDED" d="M201.96 13.71c2.21 0 4 1.78 4 3.98s-1.79 3.98-4 3.98a4 4 0 01-4.01-3.98 4 4 0 014-3.98z" opacity=".328"/><path fill="#ECEDEE" d="M201.96 13.71c2.21 0 4 1.78 4 3.98s-1.79 3.98-4 3.98a4 4 0 01-4.01-3.98 4 4 0 014-3.98z" opacity=".323"/><path fill="#EDEDEE" d="M201.96 13.72c2.21 0 4 1.78 4 3.98s-1.79 3.98-4 3.98a4 4 0 01-4.01-3.98 4 4 0 014-3.98z" opacity=".318"/><path fill="#EDEDEE" d="M201.96 13.72c2.21 0 4 1.78 4 3.98s-1.79 3.98-4 3.98a4 4 0 01-4.01-3.98 4 4 0 014-3.98z" opacity=".313"/><path fill="#EDEEEE" d="M201.96 13.72c2.21 0 4 1.78 4 3.98s-1.79 3.98-4 3.98a4 4 0 01-4.01-3.98 4 4 0 014-3.98z" opacity=".308"/><path fill="#EDEEEF" d="M201.97 13.72a4 4 0 014.01 3.98 4 4 0 01-4 3.98 4 4 0 01-4.02-3.98 4 4 0 014.01-3.98z" opacity=".303"/><path fill="#EEEEEF" d="M201.97 13.72a4 4 0 014.01 3.98 4 4 0 01-4 3.98 4 4 0 01-4.02-3.98 4 4 0 014.01-3.98z" opacity=".298"/><path fill="#EEEFEF" d="M201.97 13.72a4 4 0 014.01 3.98 4 4 0 01-4 3.98 4 4 0 01-4.02-3.98 4 4 0 014.01-3.98z" opacity=".293"/><path fill="#EEEFEF" d="M201.97 13.74a4 4 0 014.01 3.98c0 2.2-1.8 3.97-4 3.97a4 4 0 01-4.02-3.97 4 4 0 014.01-3.98z" opacity=".289"/><path fill="#EFEFF0" d="M201.97 13.74a4 4 0 014.01 3.98c0 2.2-1.8 3.97-4 3.97a4 4 0 01-4.02-3.97 4 4 0 014.01-3.98z" opacity=".284"/><path fill="#EFEFF0" d="M201.97 13.74a4 4 0 014.01 3.98c0 2.2-1.8 3.97-4 3.97a4 4 0 01-4.02-3.97 4 4 0 014.01-3.98z" opacity=".279"/><path fill="#EFF0F0" d="M201.97 13.74a4 4 0 014.01 3.98c0 2.2-1.8 3.97-4 3.97a4 4 0 01-4.02-3.97 4 4 0 014.01-3.98z" opacity=".274"/><path fill="#EFF0F0" d="M201.98 13.74a4 4 0 014.01 3.98 4 4 0 01-4 3.97c-2.22 0-4.02-1.78-4.02-3.97 0-2.2 1.8-3.98 4.01-3.98z" opacity=".269"/><path fill="#F0F0F1" d="M201.98 13.74a4 4 0 014.01 3.98 4 4 0 01-4 3.97c-2.22 0-4.02-1.78-4.02-3.97 0-2.2 1.8-3.98 4.01-3.98z" opacity=".264"/><path fill="#F0F1F1" d="M201.98 13.75a4 4 0 014.01 3.98 4 4 0 01-4 3.98c-2.22 0-4.02-1.78-4.02-3.98s1.8-3.98 4.01-3.98z" opacity=".259"/><path fill="#F0F1F1" d="M201.98 13.75a4 4 0 014.01 3.98 4 4 0 01-4 3.98c-2.22 0-4.02-1.78-4.02-3.98s1.8-3.98 4.01-3.98z" opacity=".254"/><path fill="#F1F1F2" d="M201.98 13.75a4 4 0 014.01 3.98 4 4 0 01-4 3.98c-2.22 0-4.02-1.78-4.02-3.98a4 4 0 014.01-3.98z" opacity=".249"/><path fill="#F1F1F2" d="M201.98 13.75a4 4 0 014.01 3.98 4 4 0 01-4 3.98c-2.22 0-4.02-1.78-4.02-3.98a4 4 0 014.01-3.98z" opacity=".244"/><path fill="#F1F2F2" d="M201.98 13.75a4 4 0 014.01 3.98 4 4 0 01-4 3.98c-2.22 0-4.02-1.78-4.02-3.98a4 4 0 014.01-3.98z" opacity=".239"/><path fill="#F1F2F2" d="M202 13.75c2.22 0 4 1.78 4 3.98s-1.78 3.98-4 3.98a4 4 0 01-4.01-3.98 4 4 0 014-3.98z" opacity=".234"/><path fill="#F2F2F3" d="M202 13.76c2.22 0 4 1.78 4 3.98s-1.78 3.98-4 3.98a4 4 0 01-4.01-3.98 4 4 0 014-3.98z" opacity=".229"/><path fill="#F2F2F3" d="M202 13.76c2.22 0 4 1.78 4 3.98s-1.78 3.98-4 3.98a4 4 0 01-4.01-3.98 4 4 0 014-3.98z" opacity=".224"/><path fill="#F2F3F3" d="M202 13.76c2.22 0 4 1.78 4 3.98s-1.78 3.98-4 3.98a4 4 0 01-4.01-3.98 4 4 0 014-3.98z" opacity=".219"/><path fill="#F3F3F3" d="M202 13.76c2.22 0 4 1.78 4 3.98s-1.78 3.98-4 3.98a4 4 0 01-4.01-3.98 4 4 0 014-3.98z" opacity=".214"/><path fill="#F3F3F4" d="M202 13.76c2.22 0 4 1.78 4 3.98s-1.78 3.98-4 3.98a4 4 0 01-4.01-3.98 4 4 0 014-3.98z" opacity=".209"/><path fill="#F3F4F4" d="M202 13.76c2.22 0 4 1.78 4 3.98s-1.78 3.98-4 3.98a4 4 0 01-4.01-3.98 4 4 0 014-3.98z" opacity=".204"/><path fill="#F3F4F4" d="M202 13.78c2.22 0 4 1.78 4 3.98s-1.78 3.97-4 3.97a4 4 0 01-4.01-3.97 4 4 0 014-3.98z" opacity=".199"/><path fill="#F4F4F5" d="M202.01 13.78a4 4 0 014.01 3.98 4 4 0 01-4 3.97 4 4 0 01-4.02-3.97 4 4 0 014.01-3.98z" opacity=".194"/><path fill="#F4F4F5" d="M202.01 13.78a4 4 0 014.01 3.98 4 4 0 01-4 3.97 4 4 0 01-4.02-3.97 4 4 0 014.01-3.98z" opacity=".189"/><path fill="#F4F5F5" d="M202.01 13.78a4 4 0 014.01 3.98 4 4 0 01-4 3.97 4 4 0 01-4.02-3.97 4 4 0 014.01-3.98z" opacity=".184"/><path fill="#F5F5F5" d="M202.01 13.78a4 4 0 014.01 3.98 4 4 0 01-4 3.97 4 4 0 01-4.02-3.97 4 4 0 014.01-3.98z" opacity=".179"/><path fill="#F5F5F6" d="M202.01 13.78a4 4 0 014.01 3.98 4 4 0 01-4 3.97 4 4 0 01-4.02-3.97 4 4 0 014.01-3.98z" opacity=".174"/><path fill="#F5F6F6" d="M202.01 13.8a4 4 0 014.01 3.97 4 4 0 01-4 3.98 4 4 0 01-4.02-3.98 4 4 0 014.01-3.98z" opacity=".169"/><path fill="#F5F6F6" d="M202.01 13.8a4 4 0 014.01 3.97 4 4 0 01-4 3.98 4 4 0 01-4.02-3.98 4 4 0 014.01-3.98z" opacity=".164"/><path fill="#F6F6F6" d="M202.03 13.8a4 4 0 014 3.97 4 4 0 01-4 3.98c-2.22 0-4.01-1.78-4.01-3.98s1.79-3.98 4-3.98z" opacity=".159"/><path fill="#F6F6F7" d="M202.03 13.8a4 4 0 014 3.97 4 4 0 01-4 3.98c-2.22 0-4.01-1.78-4.01-3.98s1.79-3.98 4-3.98z" opacity=".154"/><path fill="#F6F7F7" d="M202.03 13.8a4 4 0 014 3.97 4 4 0 01-4 3.98c-2.22 0-4.01-1.78-4.01-3.98s1.79-3.98 4-3.98z" opacity=".149"/><path fill="#F7F7F7" d="M202.03 13.8a4 4 0 014 3.97 4 4 0 01-4 3.98c-2.22 0-4.01-1.78-4.01-3.98s1.79-3.98 4-3.98z" opacity=".144"/><path fill="#F7F7F7" d="M202.03 13.8a4 4 0 014 3.98 4 4 0 01-4 3.98c-2.22 0-4.01-1.78-4.01-3.98a4 4 0 014-3.97z" opacity=".139"/><path fill="#F7F7F8" d="M202.03 13.8a4 4 0 014 3.98 4 4 0 01-4 3.98c-2.22 0-4.01-1.78-4.01-3.98a4 4 0 014-3.97z" opacity=".134"/><path fill="#F7F8F8" d="M202.03 13.8a4 4 0 014 3.98 4 4 0 01-4 3.98c-2.22 0-4.01-1.78-4.01-3.98a4 4 0 014-3.97z" opacity=".129"/><path fill="#F8F8F8" d="M202.04 13.8c2.22 0 4 1.78 4 3.98s-1.78 3.98-4 3.98a4 4 0 01-4.01-3.98 4 4 0 014-3.97z" opacity=".124"/><path fill="#F8F8F9" d="M202.04 13.8c2.22 0 4 1.78 4 3.98s-1.78 3.98-4 3.98a4 4 0 01-4.01-3.98 4 4 0 014-3.97z" opacity=".119"/><path fill="#F8F9F9" d="M202.04 13.8c2.22 0 4 1.78 4 3.98s-1.78 3.98-4 3.98a4 4 0 01-4.01-3.98 4 4 0 014-3.97z" opacity=".114"/><path fill="#F9F9F9" d="M202.04 13.82c2.22 0 4 1.78 4 3.98s-1.78 3.97-4 3.97a4 4 0 01-4.01-3.97 4 4 0 014-3.98z" opacity=".11"/><path fill="#F9F9F9" d="M202.04 13.82c2.22 0 4 1.78 4 3.98s-1.78 3.97-4 3.97a4 4 0 01-4.01-3.97 4 4 0 014-3.98z" opacity=".104"/><path fill="#F9F9FA" d="M202.04 13.82c2.22 0 4 1.78 4 3.98s-1.78 3.97-4 3.97a4 4 0 01-4.01-3.97 4 4 0 014-3.98z" opacity=".1"/><path fill="#FAFAFA" d="M202.04 13.82c2.22 0 4 1.78 4 3.98s-1.78 3.97-4 3.97a4 4 0 01-4.01-3.97 4 4 0 014-3.98z" opacity=".095"/><path fill="#FAFAFA" d="M202.05 13.82a4 4 0 014.01 3.98 4 4 0 01-4 3.97 4 4 0 01-4.02-3.97 4 4 0 014.01-3.98z" opacity=".09"/><path fill="#FAFAFA" d="M202.05 13.82a4 4 0 014.01 3.98 4 4 0 01-4 3.97 4 4 0 01-4.02-3.97 4 4 0 014.01-3.98z" opacity=".085"/><path fill="#FAFBFB" d="M202.05 13.83a4 4 0 014.01 3.98 4 4 0 01-4 3.98 4 4 0 01-4.02-3.98 4 4 0 014.01-3.98z" opacity=".08"/><path fill="#FBFBFB" d="M202.05 13.83a4 4 0 014.01 3.98 4 4 0 01-4 3.98 4 4 0 01-4.02-3.98 4 4 0 014.01-3.98z" opacity=".075"/><path fill="#FBFBFB" d="M202.05 13.83a4 4 0 014.01 3.98 4 4 0 01-4 3.98 4 4 0 01-4.02-3.98 4 4 0 014.01-3.98z" opacity=".07"/><path fill="#FBFBFC" d="M202.05 13.83a4 4 0 014.01 3.98 4 4 0 01-4 3.98 4 4 0 01-4.02-3.98 4 4 0 014.01-3.98z" opacity=".065"/><path fill="#FCFCFC" d="M202.05 13.83a4 4 0 014.01 3.98 4 4 0 01-4 3.98 4 4 0 01-4.02-3.98 4 4 0 014.01-3.98z" opacity=".06"/><path fill="#FCFCFC" d="M202.07 13.83a4 4 0 014 3.98 4 4 0 01-4 3.98c-2.22 0-4.01-1.78-4.01-3.98s1.79-3.98 4-3.98z" opacity=".055"/><path fill="#FCFCFC" d="M202.07 13.85a4 4 0 014 3.97 4 4 0 01-4 3.98c-2.22 0-4.01-1.78-4.01-3.98s1.79-3.97 4-3.97z" opacity=".05"/><path fill="#FCFCFD" d="M202.07 13.85a4 4 0 014 3.97 4 4 0 01-4 3.98c-2.22 0-4.01-1.78-4.01-3.98s1.79-3.97 4-3.97z" opacity=".045"/><path fill="#FDFDFD" d="M202.07 13.85a4 4 0 014 3.97 4 4 0 01-4 3.98c-2.22 0-4.01-1.78-4.01-3.98s1.79-3.97 4-3.97z" opacity=".04"/><path fill="#FDFDFD" d="M202.07 13.85a4 4 0 014 3.97 4 4 0 01-4 3.98c-2.22 0-4.01-1.78-4.01-3.98a4 4 0 014-3.97z" opacity=".035"/><path fill="#FDFDFD" d="M202.07 13.85a4 4 0 014 3.97 4 4 0 01-4 3.98c-2.22 0-4.01-1.78-4.01-3.98a4 4 0 014-3.97z" opacity=".03"/><path fill="#FEFEFE" d="M202.07 13.85a4 4 0 014 3.97 4 4 0 01-4 3.98c-2.22 0-4.01-1.78-4.01-3.98a4 4 0 014-3.97z" opacity=".025"/><path fill="#FEFEFE" d="M202.08 13.86c2.22 0 4 1.78 4 3.98s-1.78 3.97-4 3.97c-2.22 0-4-1.77-4-3.97s1.78-3.98 4-3.98z" opacity=".02"/><path fill="#FEFEFE" d="M202.08 13.86c2.22 0 4 1.78 4 3.98s-1.78 3.97-4 3.97c-2.22 0-4-1.77-4-3.97s1.78-3.98 4-3.98z" opacity=".015"/><path fill="#FEFEFE" d="M202.08 13.86c2.22 0 4 1.78 4 3.98s-1.78 3.97-4 3.97c-2.22 0-4-1.77-4-3.97s1.78-3.98 4-3.98z" opacity=".01"/><path fill="#fff" d="M202.08 13.86c2.22 0 4 1.78 4 3.98s-1.78 3.97-4 3.97c-2.22 0-4-1.77-4-3.97s1.78-3.98 4-3.98z" opacity=".01"/></g><path fill="#231F20" d="M223.6 13.37c0-.13-.1-.2-.25-.2h-.22v.65h.16v-.26l.2.26h.18l-.21-.27c.08-.02.13-.08.13-.18zm-.28.1h-.03v-.18h.03c.08 0 .12.03.12.08 0 .07-.04.1-.12.1z"/><path fill="#231F20" d="M223.37 12.92a.58.58 0 00-.57.57.58.58 0 001.15 0 .58.58 0 00-.58-.57zm0 1.05a.47.47 0 01-.46-.48c0-.25.2-.47.46-.47.25 0 .45.22.45.47 0 .28-.2.48-.45.48z"/><defs><linearGradient id="paint1_linear" x1="203.289" x2="200.549" y1="20.036" y2="15.712" gradientUnits="userSpaceOnUse"><stop stop-color="#F89F20"/><stop offset=".25" stop-color="#F79A20"/><stop offset=".533" stop-color="#F68D20"/><stop offset=".62" stop-color="#F58720"/><stop offset=".723" stop-color="#F48120"/><stop offset="1" stop-color="#F37521"/></linearGradient><linearGradient id="paint2_linear" x1="202.851" x2="198.852" y1="19.978" y2="12.098" gradientUnits="userSpaceOnUse"><stop/><stop offset=".026" stop-color="#080808"/><stop offset=".21" stop-color="#3F3F3F"/><stop offset=".389" stop-color="#6C6C6C"/><stop offset=".559" stop-color="#8F8F8F"/><stop offset=".719" stop-color="#A8A8A8"/><stop offset=".864" stop-color="#B7B7B7"/><stop offset=".982" stop-color="#BDBDBD"/></linearGradient><linearGradient id="paint3_linear" x1="202.851" x2="198.852" y1="19.978" y2="12.098" gradientUnits="userSpaceOnUse"><stop stop-color="#F58720"/><stop offset=".359" stop-color="#E16F27"/><stop offset=".703" stop-color="#D4602C"/><stop offset=".982" stop-color="#D05B2E"/></linearGradient><radialGradient id="paint0_radial" cx="0" cy="0" r="1" gradientTransform="matrix(50.9254 0 0 49.3294 124.496 -.144)" gradientUnits="userSpaceOnUse"><stop stop-color="#9DD5F6"/><stop offset=".07" stop-color="#98D3F5"/><stop offset=".16" stop-color="#89CEF3"/><stop offset=".25" stop-color="#70C6EF"/><stop offset=".35" stop-color="#4EBBEA"/><stop offset=".45" stop-color="#23ADE3"/><stop offset=".5" stop-color="#0DA6E0"/><stop offset="1" stop-color="#2E77BC"/></radialGradient></defs></svg>