<svg width="551" height="516" viewBox="0 0 551 516" fill="none" xmlns="http://www.w3.org/2000/svg">
<path d="M242.695 397.511L411.658 366.137L409.906 357.06L240.943 388.434L242.695 397.511Z" fill="#05ADA3"/>
<path opacity="0.6" d="M61.6292 181.715L195.239 208.948L196.99 199.871L63.3809 172.637L61.6292 181.715Z" fill="#05ADA3"/>
<path opacity="0.4" d="M141.731 137.122L253.364 153.844L254.638 144.767L143.005 128.044L141.731 137.122Z" fill="#05ADA3"/>
<path d="M189.665 354.83L301.298 371.393L302.732 362.315L191.098 345.752L189.665 354.83Z" fill="#05ADA3"/>
<path opacity="0.25" d="M120.551 113.074L233.299 114.349L233.458 105.271L120.551 103.837V113.074Z" fill="#05ADA3"/>
<path opacity="0.1" d="M60.0368 100.652L172.148 87.1149L171.033 78.0371L58.922 91.5741L60.0368 100.652Z" fill="#05ADA3"/>
<path opacity="0.6" d="M95.8676 225.033H232.184V234.27H95.8676V225.033Z" fill="#05ADA3"/>
<path opacity="0.8" d="M117.366 267.556L288.877 277.271L289.514 268.034L117.844 258.319L117.366 267.556Z" fill="#05ADA3"/>
<path d="M252.568 117.693C247.907 117.693 244.128 113.913 244.128 109.252C244.128 104.59 247.907 100.811 252.568 100.811C257.23 100.811 261.008 104.59 261.008 109.252C261.008 113.913 257.23 117.693 252.568 117.693Z" fill="white"/>
<path fill-rule="evenodd" clip-rule="evenodd" d="M252.568 101.607C256.79 101.607 260.212 105.03 260.212 109.252C260.212 113.474 256.79 116.896 252.568 116.896C248.347 116.896 244.924 113.474 244.924 109.252C244.924 105.03 248.347 101.607 252.568 101.607ZM261.805 109.252C261.805 104.15 257.669 100.015 252.568 100.015C247.467 100.015 243.332 104.15 243.332 109.252C243.332 114.353 247.467 118.489 252.568 118.489C257.669 118.489 261.805 114.353 261.805 109.252Z" fill="black"/>
<path opacity="0.8" d="M99.3711 270.263C94.7097 270.263 90.931 266.484 90.931 261.822C90.931 257.16 94.7097 253.381 99.3711 253.381C104.032 253.381 107.811 257.16 107.811 261.822C107.811 266.484 104.032 270.263 99.3711 270.263Z" fill="#05ADA3"/>
<path d="M144.5 251.5L78 293.5L133 382L200 340L144.5 251.5Z" fill="white"/>
<path fill-rule="evenodd" clip-rule="evenodd" d="M201.176 341.005C201.781 340.626 201.964 339.828 201.585 339.224L145.861 250.335C145.482 249.73 144.685 249.547 144.081 249.926L76.6492 292.204C76.0446 292.583 75.8617 293.381 76.2407 293.985L131.964 382.874C132.343 383.479 133.14 383.662 133.745 383.283L201.176 341.005ZM198.709 339.502L133.467 380.407L79.1163 293.707L144.358 252.802L198.709 339.502Z" fill="black"/>
<path fill-rule="evenodd" clip-rule="evenodd" d="M158.003 297.134C157.622 296.53 156.825 296.349 156.221 296.729L117.74 320.983C117.136 321.363 116.955 322.161 117.335 322.765C117.716 323.369 118.514 323.55 119.117 323.169L157.599 298.916C158.202 298.535 158.383 297.737 158.003 297.134Z" fill="black"/>
<path fill-rule="evenodd" clip-rule="evenodd" d="M168.838 314.261C168.46 313.656 167.663 313.471 167.058 313.849L128.334 338.014C127.728 338.392 127.544 339.189 127.922 339.794C128.299 340.4 129.096 340.584 129.702 340.206L168.426 316.041C169.031 315.663 169.216 314.866 168.838 314.261Z" fill="black"/>
<path fill-rule="evenodd" clip-rule="evenodd" d="M149.293 283.255C148.912 282.652 148.115 282.471 147.511 282.851L109.03 307.104C108.426 307.485 108.245 308.283 108.626 308.886C109.006 309.49 109.804 309.671 110.407 309.291L148.889 285.037C149.492 284.657 149.673 283.859 149.293 283.255Z" fill="black"/>
<path fill-rule="evenodd" clip-rule="evenodd" d="M141.697 339.047C142.136 338.908 142.613 339.086 142.853 339.479L152.853 355.852C153.141 356.323 152.993 356.939 152.521 357.226C152.05 357.514 151.434 357.366 151.147 356.894L143.27 343.997L144.536 362.933C144.573 363.484 144.156 363.961 143.605 363.998C143.054 364.035 142.578 363.618 142.541 363.067L141.002 340.067C140.972 339.607 141.258 339.186 141.697 339.047Z" fill="black"/>
<path fill-rule="evenodd" clip-rule="evenodd" d="M149.858 351.486C150.142 351.959 149.988 352.573 149.515 352.858L139.515 358.858C139.041 359.142 138.427 358.988 138.143 358.515C137.858 358.041 138.012 357.427 138.486 357.143L148.486 351.143C148.959 350.859 149.573 351.012 149.858 351.486Z" fill="black"/>
<path fill-rule="evenodd" clip-rule="evenodd" d="M155.858 335.486C156.142 335.959 155.988 336.573 155.515 336.858L150.515 339.858C150.041 340.142 149.427 339.988 149.143 339.515C148.858 339.041 149.012 338.427 149.486 338.143L154.486 335.143C154.959 334.859 155.573 335.012 155.858 335.486Z" fill="black"/>
<path fill-rule="evenodd" clip-rule="evenodd" d="M154.701 340.838C154.237 341.137 153.618 341.003 153.319 340.539L150.159 335.638C149.86 335.174 149.994 334.555 150.458 334.256C150.922 333.957 151.541 334.09 151.841 334.555L155 339.456C155.299 339.92 155.165 340.539 154.701 340.838Z" fill="black"/>
<path d="M192.16 448.949C182.471 423.482 172.658 398.139 162.969 372.673C160.733 366.834 157.006 347.579 162.596 345.591C167.192 343.976 178.869 359.877 181.105 365.716C190.794 391.183 200.607 416.525 210.297 441.992C214.768 453.669 196.632 460.626 192.16 448.949Z" fill="black"/>
<path fill-rule="evenodd" clip-rule="evenodd" d="M169.455 411.845C169.134 411.968 168.974 412.327 169.097 412.648L183.755 450.91C183.877 451.229 184.235 451.39 184.555 451.268L198.964 445.802C199.285 445.681 199.446 445.322 199.325 445.001C199.203 444.681 198.845 444.519 198.524 444.641L184.693 449.887L170.257 412.203C170.134 411.883 169.775 411.723 169.455 411.845Z" fill="black"/>
<path fill-rule="evenodd" clip-rule="evenodd" d="M208.64 424.501C208.517 424.181 208.158 424.021 207.837 424.144L182.994 433.71C182.673 433.833 182.514 434.192 182.637 434.513C182.76 434.833 183.12 434.992 183.44 434.869L208.284 425.304C208.604 425.18 208.763 424.821 208.64 424.501Z" fill="white"/>
<path fill-rule="evenodd" clip-rule="evenodd" d="M184.169 362.76C184.047 362.44 183.687 362.28 183.367 362.403L158.399 371.968C158.079 372.091 157.919 372.45 158.041 372.77C158.164 373.091 158.523 373.251 158.843 373.128L183.811 363.563C184.132 363.44 184.292 363.081 184.169 362.76Z" fill="white"/>
<path fill-rule="evenodd" clip-rule="evenodd" d="M159.827 340.12C158.864 340.483 158.378 341.558 158.741 342.521L164.455 357.677C164.818 358.64 165.893 359.126 166.856 358.763C167.819 358.4 168.305 357.325 167.942 356.362L162.228 341.207C161.865 340.244 160.79 339.757 159.827 340.12Z" fill="black"/>
<path fill-rule="evenodd" clip-rule="evenodd" d="M119.452 382.032C119.029 381.909 118.588 382.152 118.465 382.574L117.032 387.512C116.909 387.934 117.152 388.376 117.574 388.498C117.997 388.621 118.439 388.378 118.561 387.956L119.994 383.019C120.117 382.596 119.874 382.154 119.452 382.032Z" fill="black"/>
<path fill-rule="evenodd" clip-rule="evenodd" d="M265.617 405.96C265.269 406.229 265.206 406.729 265.475 407.077L270.412 413.447C270.681 413.795 271.181 413.858 271.529 413.589C271.876 413.32 271.94 412.819 271.67 412.472L266.734 406.102C266.464 405.754 265.964 405.69 265.617 405.96Z" fill="black"/>
<path fill-rule="evenodd" clip-rule="evenodd" d="M278.665 245.712C278.387 245.371 277.886 245.32 277.545 245.597L273.245 249.101C272.904 249.379 272.853 249.881 273.131 250.221C273.409 250.562 273.91 250.614 274.251 250.336L278.551 246.832C278.892 246.554 278.943 246.053 278.665 245.712Z" fill="black"/>
<path fill-rule="evenodd" clip-rule="evenodd" d="M150.279 162.964C149.951 163.257 149.921 163.76 150.213 164.089L155.309 169.822C155.601 170.151 156.105 170.18 156.433 169.888C156.762 169.596 156.792 169.092 156.499 168.764L151.403 163.03C151.111 162.702 150.608 162.672 150.279 162.964Z" fill="black"/>
<path fill-rule="evenodd" clip-rule="evenodd" d="M150.942 181.835C150.832 181.409 150.398 181.153 149.972 181.263L145.036 182.537C144.61 182.647 144.354 183.081 144.464 183.507C144.574 183.933 145.008 184.189 145.434 184.079L150.37 182.805C150.796 182.695 151.052 182.261 150.942 181.835Z" fill="black"/>
<path fill-rule="evenodd" clip-rule="evenodd" d="M400.218 379.629C400.106 380.054 400.359 380.49 400.784 380.603L408.587 382.674C409.012 382.786 409.448 382.533 409.561 382.108C409.673 381.683 409.42 381.247 408.995 381.134L401.192 379.064C400.767 378.951 400.331 379.204 400.218 379.629Z" fill="black"/>
<path fill-rule="evenodd" clip-rule="evenodd" d="M429.701 305.507C429.287 305.656 429.073 306.113 429.222 306.526L431.292 312.26C431.442 312.673 431.898 312.888 432.312 312.738C432.725 312.589 432.94 312.132 432.79 311.719L430.72 305.986C430.571 305.572 430.114 305.358 429.701 305.507Z" fill="black"/>
<path fill-rule="evenodd" clip-rule="evenodd" d="M489.976 328.012C489.854 327.589 489.412 327.346 488.99 327.469L484.053 328.902C483.631 329.025 483.388 329.467 483.51 329.889C483.633 330.311 484.075 330.554 484.497 330.432L489.434 328.998C489.856 328.876 490.099 328.434 489.976 328.012Z" fill="black"/>
<path d="M382.674 191.27C382.993 191.43 383.471 191.589 383.789 191.748C391.911 195.411 400.51 200.03 405.447 207.674C406.402 209.107 407.039 210.7 407.676 212.293C414.683 209.107 421.531 205.126 426.627 200.189C426.468 199.87 426.468 199.711 426.308 199.393C420.098 187.607 409.747 179.644 398.281 173.752C396.051 172.637 393.822 171.522 391.592 170.567C390.796 170.248 390 169.93 389.203 169.77C385.222 168.974 381.878 170.407 379.489 172.956C374.712 178.37 374.393 187.767 382.674 191.27Z" fill="black"/>
<path fill-rule="evenodd" clip-rule="evenodd" d="M380.078 173.492C382.304 171.123 385.375 169.817 389.047 170.551C389.756 170.693 390.48 170.98 391.287 171.303C393.487 172.246 395.692 173.348 397.921 174.462C409.303 180.313 419.494 188.175 425.6 199.756C425.64 199.838 425.664 199.902 425.692 199.982C420.914 204.488 414.627 208.195 408.103 211.22C407.559 209.88 406.956 208.504 406.113 207.237C401.04 199.386 392.249 194.691 384.13 191.029C383.944 190.937 383.726 190.849 383.544 190.777L383.527 190.77C383.319 190.687 383.154 190.62 383.03 190.558C383.015 190.551 383 190.544 382.985 190.537C379.121 188.902 377.306 185.933 376.977 182.748C376.644 179.526 377.83 176.045 380.078 173.492ZM389.36 168.99C385.074 168.133 381.46 169.689 378.908 172.411L378.892 172.429C376.368 175.29 375.01 179.209 375.393 182.912C375.779 186.648 377.94 190.123 382.342 191.995C382.526 192.085 382.74 192.171 382.919 192.242L382.936 192.249C383.144 192.332 383.309 192.399 383.433 192.461C383.442 192.465 383.452 192.47 383.462 192.474C391.581 196.136 399.98 200.676 404.778 208.106L404.784 208.116L404.784 208.116C405.686 209.469 406.295 210.983 406.937 212.589C407.018 212.791 407.178 212.951 407.38 213.032C407.581 213.113 407.808 213.108 408.006 213.018C415.051 209.815 421.992 205.788 427.181 200.761C427.43 200.519 427.494 200.144 427.339 199.833C427.286 199.727 427.261 199.653 427.223 199.539L427.221 199.534C427.18 199.41 427.126 199.247 427.021 199.037L427.013 199.021L427.013 199.022C420.697 187.037 410.19 178.977 398.645 173.044L398.637 173.04L398.637 173.04L398.626 173.034C396.404 171.923 394.157 170.8 391.906 169.835L391.888 169.827L391.888 169.828L391.855 169.814C391.081 169.505 390.228 169.163 389.36 168.99Z" fill="black"/>
<path d="M297.954 143.652C300.821 160.852 313.879 173.433 329.804 179.326C347.003 185.696 365.794 184.581 382.834 191.43C383.152 191.589 383.471 191.589 383.789 191.748C394.14 194.933 401.306 182.989 397.007 175.344C395.892 173.433 394.14 171.841 391.592 170.885C390.796 170.567 389.84 170.248 389.044 169.93C385.382 168.656 381.719 167.7 378.056 166.744C367.546 164.356 356.876 163.4 346.366 161.011C335.537 158.622 322.16 152.889 320.09 140.467C319.93 139.83 319.771 139.193 319.612 138.715C312.286 139.511 305.12 139.989 297.795 140.467C297.795 141.582 297.795 142.696 297.954 143.652Z" fill="black"/>
<path fill-rule="evenodd" clip-rule="evenodd" d="M320.367 138.463C320.249 138.107 319.898 137.883 319.526 137.923C312.22 138.717 305.07 139.194 297.743 139.672C297.324 139.699 296.999 140.047 296.999 140.467V140.507C296.999 141.592 296.999 142.762 297.169 143.783C300.093 161.332 313.406 174.107 329.528 180.073C337.934 183.186 346.708 184.527 355.382 185.852C355.674 185.896 355.966 185.941 356.258 185.986C365.236 187.359 374.096 188.781 382.51 192.158C382.737 192.266 382.955 192.321 383.099 192.357L383.118 192.361C383.287 192.404 383.363 192.426 383.433 192.46C383.472 192.48 383.513 192.496 383.555 192.509C389.108 194.218 393.824 191.847 396.538 188.072C399.228 184.331 400.033 179.1 397.701 174.954L397.695 174.943L397.694 174.943C396.489 172.876 394.596 171.163 391.88 170.143C391.472 169.98 391.028 169.818 390.597 169.662L390.59 169.659C390.15 169.499 389.724 169.344 389.34 169.19C389.329 169.186 389.317 169.182 389.306 169.178C385.613 167.893 381.925 166.931 378.271 165.978L378.257 165.974L378.233 165.968C372.951 164.768 367.634 163.928 362.348 163.093L362.335 163.091C357.036 162.254 351.767 161.422 346.542 160.235L346.537 160.233C341.174 159.05 335.227 157.048 330.383 153.838C325.548 150.633 321.863 146.265 320.875 140.336C320.872 140.315 320.867 140.294 320.862 140.274L320.856 140.251C320.701 139.631 320.536 138.97 320.367 138.463ZM319.038 139.577C319.126 139.897 319.216 140.256 319.31 140.629C320.4 147.106 324.434 151.805 329.503 155.165C334.572 158.524 340.726 160.582 346.192 161.788C351.472 162.988 356.788 163.828 362.074 164.662L362.087 164.664C367.382 165.5 372.646 166.332 377.867 167.518C381.525 168.472 385.147 169.418 388.766 170.676C389.171 170.837 389.612 170.998 390.039 171.153L390.046 171.156C390.487 171.316 390.912 171.471 391.297 171.625L391.313 171.631L391.313 171.631C393.686 172.521 395.293 173.989 396.316 175.74C398.28 179.238 397.65 183.798 395.245 187.142C392.873 190.442 388.851 192.448 384.078 191.004C383.863 190.906 383.66 190.855 383.523 190.821L383.504 190.816C383.336 190.774 383.259 190.752 383.19 190.717C383.17 190.708 383.151 190.699 383.13 190.691C374.513 187.227 365.467 185.784 356.499 184.411C356.226 184.37 355.953 184.328 355.681 184.286C346.962 182.954 338.332 181.635 330.08 178.579L330.08 178.579C314.352 172.759 301.548 160.372 298.74 143.521C298.626 142.84 298.599 142.058 298.593 141.213C305.44 140.765 312.172 140.307 319.038 139.577Z" fill="black"/>
<path fill-rule="evenodd" clip-rule="evenodd" d="M308.754 117.664C308.821 117.622 308.93 117.576 309.179 117.655C309.189 117.658 309.2 117.662 309.21 117.664C309.647 117.783 310.097 118.311 310.479 119.537C310.84 120.698 311.047 122.181 311.238 123.685C311.255 123.822 311.272 123.96 311.29 124.097C311.456 125.423 311.623 126.757 311.902 127.731C312.052 128.258 312.268 128.804 312.626 129.186C312.817 129.39 313.067 129.566 313.382 129.646C313.699 129.727 314.014 129.694 314.303 129.592C315.277 129.248 315.896 128.388 316.316 127.558C316.745 126.711 317.052 125.719 317.307 124.896L317.315 124.87C317.443 124.457 317.557 124.089 317.671 123.773C317.74 123.581 317.803 123.426 317.86 123.305C318.078 123.623 318.261 124.157 318.383 125.016C318.522 125.991 318.567 127.238 318.597 128.777C318.603 129.107 318.609 129.449 318.615 129.803C318.664 132.718 318.726 136.422 319.3 140.731C319.359 141.167 319.759 141.473 320.195 141.415C320.631 141.357 320.937 140.957 320.879 140.521C320.317 136.308 320.256 132.694 320.207 129.777C320.201 129.423 320.196 129.079 320.189 128.745C320.159 127.218 320.114 125.877 319.96 124.792C319.808 123.73 319.534 122.756 318.925 122.091C318.655 121.797 318.239 121.467 317.691 121.515C317.146 121.564 316.816 121.957 316.642 122.223C316.452 122.513 316.301 122.877 316.172 123.233C316.046 123.584 315.923 123.982 315.8 124.38L315.786 124.425C315.523 125.274 315.253 126.133 314.895 126.839C314.531 127.558 314.157 127.951 313.779 128.088C313.692 127.989 313.564 127.752 313.433 127.293C313.19 126.445 313.038 125.239 312.866 123.868C312.85 123.742 312.834 123.614 312.818 123.485C312.63 122.003 312.409 120.381 311.999 119.063C311.611 117.816 310.95 116.498 309.646 116.132C309.024 115.939 308.417 115.989 307.896 116.323C307.408 116.635 307.094 117.134 306.884 117.637C306.783 117.879 306.697 118.143 306.625 118.423C306.591 118.346 306.555 118.271 306.519 118.197C306.283 117.717 305.985 117.258 305.599 116.924C305.196 116.576 304.677 116.353 304.072 116.424C303.466 116.495 303.011 116.835 302.694 117.263C302.388 117.674 302.189 118.19 302.053 118.718C301.982 118.993 301.924 119.286 301.878 119.592C301.812 119.411 301.744 119.239 301.676 119.077C301.491 118.641 301.275 118.219 301.017 117.912C300.788 117.639 300.287 117.19 299.613 117.415C298.995 117.621 298.424 118.157 297.947 119.042C297.469 119.931 297.046 121.242 296.749 123.144C296.156 126.948 296.045 133.279 297.162 143.736C297.209 144.174 297.601 144.49 298.039 144.444C298.476 144.397 298.793 144.004 298.746 143.567C297.634 133.162 297.761 126.991 298.323 123.389C298.604 121.588 298.987 120.47 299.349 119.797C299.559 119.407 299.749 119.188 299.891 119.066C299.981 119.206 300.089 119.414 300.209 119.698C300.535 120.466 300.856 121.566 301.143 122.722C301.427 123.868 301.668 125.033 301.838 125.914C301.923 126.353 301.99 126.721 302.036 126.978C302.059 127.106 302.076 127.207 302.088 127.276L302.101 127.354L302.104 127.373L302.105 127.378C302.177 127.809 302.583 128.102 303.014 128.035C303.446 127.967 303.742 127.564 303.679 127.132C303.679 127.132 303.679 127.132 303.679 127.132L303.678 127.127L303.675 127.107L303.664 127.03C303.655 126.961 303.641 126.86 303.624 126.729C303.591 126.469 303.547 126.095 303.501 125.645C303.411 124.743 303.318 123.545 303.309 122.344C303.299 121.13 303.375 119.969 303.595 119.116C303.705 118.688 303.838 118.392 303.972 118.212C304.094 118.047 304.187 118.014 304.258 118.006C304.329 117.997 304.417 118.008 304.558 118.13C304.717 118.267 304.901 118.514 305.09 118.9C305.468 119.668 305.765 120.768 305.99 121.943C306.134 122.691 306.243 123.445 306.326 124.125C306.344 124.436 306.365 124.73 306.387 125C306.427 125.508 306.47 125.934 306.504 126.235C306.52 126.385 306.534 126.504 306.544 126.586L306.556 126.681L306.559 126.706L306.56 126.715C306.56 126.715 306.56 126.715 307.35 126.611C308.145 126.572 308.145 126.572 308.145 126.572L308.145 126.569L308.145 126.563L308.143 126.54L308.139 126.455C308.134 126.382 308.128 126.275 308.118 126.139C308.1 125.868 308.07 125.483 308.025 125.022C307.995 124.708 307.958 124.357 307.913 123.983C307.866 123.172 307.839 122.255 307.867 121.36C307.906 120.092 308.054 118.967 308.353 118.251C308.502 117.895 308.651 117.731 308.754 117.664ZM307.35 126.611L308.145 126.572C308.166 126.998 307.847 127.366 307.422 127.404C306.996 127.443 306.616 127.138 306.56 126.715L307.35 126.611Z" fill="black"/>
<path d="M314.038 128.84C309.738 131.388 308.464 134.733 308.464 134.733L314.038 128.84Z" fill="black"/>
<path fill-rule="evenodd" clip-rule="evenodd" d="M314.723 128.434C314.499 128.056 314.011 127.931 313.632 128.155C311.379 129.491 309.909 131.041 308.999 132.268C308.545 132.881 308.23 133.414 308.027 133.799C307.925 133.991 307.851 134.147 307.801 134.258C307.776 134.314 307.757 134.358 307.744 134.391L307.728 134.43L307.723 134.442L307.722 134.446L307.721 134.448L307.721 134.449C307.721 134.449 307.72 134.449 308.464 134.733L307.72 134.449C307.564 134.86 307.77 135.321 308.181 135.477C308.591 135.633 309.051 135.428 309.208 135.018C309.208 135.018 309.208 135.017 309.208 135.017C309.208 135.017 309.208 135.017 309.208 135.017C309.208 135.017 309.208 135.017 309.208 135.017L309.208 135.017L309.208 135.018L309.208 135.018L309.208 135.018L309.208 135.019C309.207 135.019 309.208 135.018 309.208 135.017L309.216 134.999C309.223 134.981 309.236 134.951 309.254 134.91C309.291 134.828 309.35 134.703 309.435 134.542C309.605 134.221 309.877 133.758 310.279 133.216C311.081 132.134 312.398 130.738 314.444 129.525C314.822 129.301 314.947 128.813 314.723 128.434Z" fill="black"/>
<path d="M202.883 212.77C202.883 212.77 185.684 222.326 182.34 225.033L161 185.696C161 185.696 173.899 180.759 179.155 189.996L195.398 183.467L202.883 212.77Z" fill="black"/>
<path fill-rule="evenodd" clip-rule="evenodd" d="M195.758 182.756C195.553 182.653 195.314 182.642 195.101 182.728L179.485 189.005C176.61 184.532 171.948 183.507 168.09 183.586C166.074 183.628 164.236 183.968 162.907 184.296C162.241 184.46 161.699 184.622 161.321 184.744C161.131 184.805 160.983 184.856 160.881 184.893C160.829 184.911 160.79 184.925 160.762 184.935L160.73 184.947L160.72 184.951L160.717 184.952C160.717 184.952 160.716 184.953 161 185.696L160.716 184.953C160.501 185.035 160.333 185.205 160.253 185.42C160.174 185.635 160.191 185.874 160.3 186.076L181.64 225.413C181.753 225.621 181.952 225.768 182.184 225.814C182.416 225.861 182.657 225.801 182.841 225.652C184.452 224.348 189.517 221.32 194.264 218.576C196.619 217.214 198.871 215.937 200.534 214.999C201.365 214.531 202.05 214.148 202.526 213.881C202.764 213.748 202.95 213.644 203.076 213.574L203.269 213.467C203.269 213.467 203.269 213.466 202.883 212.77L203.269 213.467C203.585 213.291 203.744 212.924 203.654 212.573L196.169 183.27C196.113 183.047 195.963 182.86 195.758 182.756ZM201.959 212.373C201.895 212.41 201.824 212.449 201.749 212.491C201.271 212.758 200.585 213.142 199.752 213.612C198.086 214.551 195.829 215.832 193.467 217.197C189.337 219.585 184.806 222.277 182.6 223.843L162.154 186.153C162.463 186.059 162.846 185.952 163.289 185.842C164.542 185.533 166.258 185.217 168.123 185.179C171.863 185.102 176.041 186.134 178.463 190.39C178.66 190.736 179.082 190.884 179.452 190.735L194.851 184.545L201.959 212.373Z" fill="black"/>
<path fill-rule="evenodd" clip-rule="evenodd" d="M178.744 189.241C178.326 189.38 178.101 189.831 178.24 190.248L180.31 196.459C180.449 196.876 180.9 197.102 181.317 196.963C181.735 196.824 181.96 196.373 181.821 195.955L179.751 189.744C179.612 189.327 179.161 189.102 178.744 189.241Z" fill="white"/>
<path fill-rule="evenodd" clip-rule="evenodd" d="M182.014 187.677C181.613 187.857 181.433 188.328 181.613 188.729L184.32 194.781C184.5 195.182 184.971 195.362 185.372 195.183C185.773 195.003 185.953 194.532 185.774 194.131L183.066 188.079C182.887 187.677 182.416 187.497 182.014 187.677Z" fill="white"/>
<path d="M319.93 379.993C319.93 379.993 326.778 394.326 329.008 398.148L287.284 414.393C287.284 414.393 284.099 401.015 293.814 397.033L289.514 380.152L319.93 379.993Z" fill="black"/>
<path fill-rule="evenodd" clip-rule="evenodd" d="M320.649 379.649C320.516 379.371 320.234 379.195 319.926 379.196L289.51 379.356C289.265 379.357 289.034 379.471 288.884 379.665C288.734 379.859 288.682 380.111 288.742 380.348L292.876 396.577C288.127 398.835 286.53 403.305 286.115 407.12C285.897 409.116 285.996 410.974 286.147 412.328C286.223 413.007 286.312 413.564 286.383 413.953C286.419 414.147 286.45 414.301 286.472 414.406C286.483 414.459 286.492 414.5 286.499 414.529L286.506 414.563L286.509 414.572L286.509 414.575C286.509 414.576 286.51 414.577 287.284 414.393L286.51 414.577C286.563 414.801 286.711 414.991 286.915 415.098C287.119 415.205 287.359 415.218 287.573 415.135L329.296 398.89C329.513 398.806 329.683 398.63 329.759 398.41C329.836 398.191 329.813 397.948 329.695 397.747C328.598 395.866 326.343 391.358 324.348 387.287C323.354 385.258 322.429 383.348 321.752 381.946C321.414 381.245 321.138 380.67 320.947 380.271L320.649 379.649C320.649 379.649 320.649 379.649 319.93 379.993L320.649 379.649ZM319.43 380.792L319.511 380.96C319.703 381.36 319.979 381.936 320.318 382.638C320.995 384.042 321.922 385.955 322.918 387.988C324.665 391.551 326.642 395.515 327.863 397.739L287.887 413.303C287.836 412.987 287.78 412.599 287.73 412.152C287.587 410.874 287.497 409.138 287.698 407.292C288.101 403.588 289.645 399.602 294.116 397.77C294.483 397.62 294.683 397.221 294.585 396.837L290.537 380.943L319.43 380.792Z" fill="black"/>
<path d="M324.867 379.674C312.127 321.226 345.569 275.041 384.585 255.452C396.688 249.4 393.503 239.208 385.859 232.041C385.381 228.697 383.789 225.352 381.56 222.485C335.696 162.922 248.587 151.615 186.639 184.263L203.838 216.593C251.135 192.067 313.242 193.819 351.939 234.43C306.394 261.982 268.493 318.997 287.603 385.567C299.069 383.974 313.72 380.471 324.867 379.674Z" fill="white"/>
<path fill-rule="evenodd" clip-rule="evenodd" d="M187.719 184.597C249.329 152.56 335.51 163.985 380.929 222.971L380.931 222.974C383.095 225.756 384.617 228.974 385.071 232.153C385.097 232.333 385.183 232.498 385.315 232.622C389.066 236.139 391.61 240.3 391.832 244.21C391.942 246.145 391.487 248.038 390.303 249.806C389.115 251.582 387.165 253.272 384.229 254.74L384.228 254.74C345.154 274.358 311.598 320.5 323.898 378.95C318.492 379.398 312.353 380.427 306.213 381.538C304.793 381.795 303.374 382.056 301.963 382.316C297.164 383.199 292.463 384.065 288.179 384.681C269.639 318.843 307.166 262.445 352.351 235.111C352.558 234.986 352.697 234.774 352.729 234.535C352.76 234.296 352.682 234.055 352.516 233.88C313.702 193.147 251.606 191.261 204.172 215.525L187.719 184.597ZM382.189 221.998C336.055 162.085 248.506 150.757 186.268 183.559C186.081 183.657 185.94 183.826 185.878 184.029C185.816 184.231 185.837 184.45 185.936 184.637L203.135 216.967C203.34 217.352 203.817 217.5 204.205 217.3C250.998 193.035 312.242 194.67 350.677 234.266C305.303 262.137 267.719 319.185 286.838 385.786C286.947 386.167 287.32 386.41 287.712 386.355C292.216 385.73 297.211 384.81 302.272 383.879C303.678 383.62 305.089 383.36 306.496 383.105C312.986 381.931 319.398 380.863 324.924 380.468C325.154 380.452 325.366 380.336 325.505 380.151C325.643 379.966 325.694 379.73 325.645 379.504C312.998 321.481 346.183 275.623 384.943 256.164C388.057 254.606 390.248 252.752 391.627 250.691C393.012 248.622 393.551 246.384 393.422 244.119C393.171 239.706 390.395 235.266 386.605 231.65C386.058 228.236 384.423 224.871 382.189 221.998Z" fill="black"/>
<path fill-rule="evenodd" clip-rule="evenodd" d="M300.964 395.444C300.878 395.013 300.459 394.733 300.027 394.819L293.657 396.093C293.226 396.18 292.947 396.599 293.033 397.03C293.119 397.462 293.538 397.741 293.97 397.655L300.34 396.381C300.771 396.295 301.051 395.875 300.964 395.444Z" fill="white"/>
<path fill-rule="evenodd" clip-rule="evenodd" d="M299.677 391.408C299.561 390.984 299.122 390.734 298.698 390.851L292.328 392.603C291.904 392.719 291.655 393.158 291.772 393.582C291.888 394.006 292.327 394.255 292.751 394.138L299.121 392.387C299.545 392.27 299.794 391.832 299.677 391.408Z" fill="white"/>
<path fill-rule="evenodd" clip-rule="evenodd" d="M324.704 373.385C324.661 372.947 324.271 372.627 323.833 372.67L286.728 376.333C286.291 376.377 285.971 376.766 286.014 377.204C286.057 377.642 286.447 377.962 286.885 377.918L323.99 374.255C324.427 374.212 324.747 373.822 324.704 373.385Z" fill="black"/>
<path fill-rule="evenodd" clip-rule="evenodd" d="M194.081 180.528C193.689 180.727 193.533 181.207 193.733 181.599L209.817 213.132C210.017 213.524 210.497 213.679 210.888 213.48C211.28 213.28 211.436 212.8 211.236 212.408L195.152 180.875C194.952 180.483 194.472 180.328 194.081 180.528Z" fill="black"/>
<path fill-rule="evenodd" clip-rule="evenodd" d="M470.324 245.709C470.249 245.276 469.837 244.985 469.404 245.06L411.656 255.053C411.223 255.128 410.932 255.54 411.007 255.973L418.583 299.758C418.658 300.191 419.07 300.482 419.503 300.407L477.251 290.414C477.684 290.339 477.975 289.927 477.9 289.494L470.324 245.709ZM468.891 246.765L476.195 288.98L420.016 298.701L412.712 256.486L468.891 246.765Z" fill="black"/>
<path fill-rule="evenodd" clip-rule="evenodd" d="M462.323 254.189C461.889 254.264 461.599 254.676 461.673 255.109L465.973 280.113C466.047 280.546 466.459 280.837 466.892 280.763C467.326 280.688 467.617 280.276 467.542 279.843L463.243 254.839C463.168 254.406 462.756 254.115 462.323 254.189Z" fill="black"/>
<path fill-rule="evenodd" clip-rule="evenodd" d="M453.241 255.783C452.808 255.86 452.52 256.273 452.597 256.706L457.056 281.71C457.133 282.143 457.546 282.431 457.979 282.354C458.412 282.277 458.701 281.863 458.623 281.43L454.164 256.427C454.087 255.994 453.674 255.705 453.241 255.783Z" fill="black"/>
<path d="M406.713 230.319L439.332 279.01L402.419 303.741L369.801 255.05L406.713 230.319Z" fill="white"/>
<path fill-rule="evenodd" clip-rule="evenodd" d="M439.775 279.671C440.141 279.426 440.238 278.932 439.994 278.566L407.375 229.875C407.13 229.51 406.635 229.412 406.27 229.657L369.357 254.389C368.992 254.633 368.894 255.128 369.139 255.493L401.758 304.185C402.003 304.55 402.497 304.648 402.862 304.403L439.775 279.671ZM438.227 278.791L402.638 302.637L370.905 255.269L406.495 231.423L438.227 278.791Z" fill="black"/>
<path fill-rule="evenodd" clip-rule="evenodd" d="M428.72 275.87C428.474 275.505 427.98 275.409 427.615 275.655L406.594 289.829C406.23 290.075 406.133 290.569 406.379 290.934C406.625 291.299 407.12 291.395 407.484 291.149L428.505 276.975C428.87 276.729 428.966 276.234 428.72 275.87Z" fill="black"/>
<path fill-rule="evenodd" clip-rule="evenodd" d="M423.624 268.225C423.379 267.861 422.884 267.764 422.519 268.01L401.498 282.184C401.134 282.43 401.037 282.925 401.283 283.29C401.529 283.654 402.024 283.751 402.388 283.505L423.409 269.331C423.774 269.085 423.87 268.59 423.624 268.225Z" fill="black"/>
<path fill-rule="evenodd" clip-rule="evenodd" d="M504.821 357.01C505.092 356.663 505.031 356.163 504.684 355.892L453.723 316.101C453.376 315.83 452.876 315.892 452.605 316.239L422.421 354.901C422.15 355.248 422.212 355.748 422.558 356.019L473.519 395.81C473.866 396.081 474.366 396.019 474.637 395.673L504.821 357.01ZM503.076 356.658L473.872 394.065L424.166 355.254L453.37 317.846L503.076 356.658Z" fill="black"/>
<path fill-rule="evenodd" clip-rule="evenodd" d="M470.59 340.664C470.243 340.394 469.743 340.457 469.473 340.804L452.274 362.941C452.004 363.288 452.067 363.788 452.414 364.058C452.762 364.328 453.262 364.265 453.532 363.918L470.73 341.781C471 341.434 470.938 340.933 470.59 340.664Z" fill="black"/>
<path fill-rule="evenodd" clip-rule="evenodd" d="M480.466 348.31C480.12 348.039 479.62 348.1 479.349 348.446L461.99 370.583C461.719 370.929 461.78 371.429 462.126 371.701C462.472 371.972 462.972 371.911 463.244 371.565L480.602 349.428C480.873 349.082 480.813 348.582 480.466 348.31Z" fill="black"/>
<path fill-rule="evenodd" clip-rule="evenodd" d="M462.628 334.453C462.281 334.183 461.78 334.246 461.511 334.593L444.312 356.73C444.042 357.077 444.105 357.577 444.452 357.847C444.799 358.117 445.299 358.054 445.569 357.707L462.768 335.57C463.038 335.223 462.975 334.723 462.628 334.453Z" fill="black"/>
<path d="M334.9 221.052L388.885 241.596C390.955 242.393 393.185 241.278 393.981 239.367L408.313 201.622C409.109 199.552 407.995 197.322 406.084 196.526L352.099 175.982C350.028 175.185 347.799 176.3 347.003 178.211L332.67 215.956C331.715 217.867 332.829 220.256 334.9 221.052Z" fill="white"/>
<path fill-rule="evenodd" clip-rule="evenodd" d="M347.742 178.506C348.39 176.967 350.181 176.097 351.813 176.725L351.815 176.726L405.788 197.265C407.328 197.913 408.198 199.705 407.57 201.336L407.569 201.339L393.241 239.071C392.593 240.611 390.802 241.48 389.171 240.853L389.168 240.852L335.186 220.309C335.185 220.308 335.185 220.308 335.184 220.308C333.478 219.651 332.672 217.733 333.382 216.312C333.388 216.301 333.392 216.291 333.397 216.28C333.403 216.266 333.409 216.252 333.415 216.238L347.742 178.506ZM352.383 175.238C349.878 174.275 347.216 175.629 346.268 177.905L346.258 177.928L331.939 215.637C330.773 218.03 332.193 220.864 334.614 221.795L334.616 221.796L388.599 242.339C388.6 242.34 388.6 242.34 388.601 242.34C391.106 243.302 393.768 241.949 394.716 239.673L394.725 239.649L409.056 201.908C409.057 201.907 409.057 201.907 409.057 201.906C410.019 199.401 408.666 196.739 406.39 195.791L406.367 195.782L352.384 175.238C352.384 175.238 352.383 175.238 352.383 175.238Z" fill="black"/>
<path fill-rule="evenodd" clip-rule="evenodd" d="M376.338 205.682C376.495 205.271 376.289 204.811 375.878 204.654L369.777 202.328C369.366 202.171 368.906 202.377 368.75 202.788L366.31 209.187C366.153 209.598 366.359 210.058 366.77 210.215L372.871 212.541C373.282 212.698 373.742 212.492 373.899 212.081L376.338 205.682ZM374.567 205.859L372.694 210.769L368.081 209.01L369.954 204.1L374.567 205.859Z" fill="black"/>
<path fill-rule="evenodd" clip-rule="evenodd" d="M403.698 213.883C403.345 214.146 403.271 214.644 403.534 214.997C408.951 222.287 412.159 227.027 413.763 230.112C414.57 231.663 414.928 232.716 414.998 233.422C415.031 233.763 414.993 233.986 414.936 234.132C414.883 234.269 414.797 234.38 414.658 234.479C414.339 234.707 413.763 234.866 412.819 234.944C412.057 235.008 411.17 235.013 410.153 235.02C409.94 235.021 409.721 235.023 409.496 235.025C406.949 235.047 403.806 235.144 400.724 236.227C399.042 236.818 397.87 237.931 397.15 239.455C396.444 240.951 396.189 242.808 396.241 244.903C396.343 249.087 397.678 254.5 399.55 260.564C400.837 264.731 402.379 269.217 403.978 273.871C407.071 282.867 410.379 292.49 412.474 301.655C413.277 305.241 413.228 307.676 412.642 309.281C412.081 310.818 410.998 311.676 409.429 312.073C407.807 312.484 405.679 312.393 403.157 311.948C400.649 311.505 397.834 310.728 394.868 309.833C393.693 309.479 392.494 309.106 391.282 308.729C386.422 307.217 381.368 305.645 376.931 304.99C371.439 304.18 366.405 304.705 363.984 309.052C362.7 311.346 362.925 314.591 364.13 318.304C365.347 322.059 367.629 326.487 370.749 331.307C376.993 340.951 386.673 352.283 398.213 363.115C409.756 373.949 423.184 384.308 436.938 391.993C450.681 399.672 464.811 404.716 477.738 404.837C478.178 404.841 478.538 404.488 478.542 404.048C478.546 403.609 478.193 403.249 477.753 403.245C465.201 403.127 451.342 398.217 437.715 390.603C424.098 382.994 410.773 372.719 399.303 361.953C387.832 351.186 378.243 339.952 372.086 330.441C369.005 325.682 366.803 321.385 365.644 317.813C364.472 314.2 364.429 311.517 365.374 309.83L365.375 309.828C367.254 306.453 371.257 305.763 376.698 306.566C381 307.2 385.895 308.722 390.744 310.23C391.972 310.612 393.197 310.993 394.408 311.358C397.384 312.255 400.274 313.056 402.88 313.516C405.472 313.974 407.867 314.112 409.82 313.617C411.826 313.109 413.372 311.926 414.138 309.827C414.879 307.797 414.855 305.002 414.027 301.304L414.026 301.301C411.914 292.061 408.551 282.273 405.442 273.225C403.852 268.597 402.328 264.163 401.072 260.095C399.201 254.035 397.929 248.808 397.833 244.864C397.784 242.896 398.032 241.318 398.59 240.135C399.135 238.981 399.987 238.174 401.252 237.729C404.062 236.742 406.971 236.639 409.51 236.617C409.722 236.615 409.933 236.614 410.142 236.613C411.159 236.606 412.123 236.6 412.951 236.531C413.927 236.45 414.888 236.273 415.585 235.774C415.953 235.51 416.244 235.16 416.419 234.712C416.591 234.272 416.634 233.785 416.582 233.265C416.482 232.248 416.006 230.973 415.176 229.377C413.505 226.165 410.224 221.33 404.812 214.047C404.55 213.694 404.051 213.621 403.698 213.883Z" fill="black"/>
<path fill-rule="evenodd" clip-rule="evenodd" d="M345.781 177.927C345.624 178.338 345.83 178.798 346.241 178.955L407.074 202.207C407.484 202.364 407.945 202.158 408.102 201.747C408.259 201.336 408.053 200.876 407.642 200.719L346.809 177.467C346.398 177.31 345.938 177.516 345.781 177.927Z" fill="black"/>
<path d="M404.173 212.93L402.262 218.822C402.262 218.822 404.491 220.096 406.084 217.389C407.676 214.682 404.173 212.93 404.173 212.93Z" fill="black"/>
<path d="M422.526 377.203L443.075 389.067L438.297 397.343L417.749 385.478L422.526 377.203Z" fill="black"/>
<path d="M352.576 228.696C354.806 224.396 357.513 220.415 360.22 216.274C371.686 227.741 391.274 242.074 404.969 228.219C410.224 222.963 409.428 215.319 406.243 209.267C411.658 204.011 417.072 198.596 422.168 193.182C423.601 195.093 425.034 197.322 426.149 199.552C433.315 213.089 432.838 230.767 422.168 242.393C411.498 254.178 395.096 258 379.808 254.178C367.705 251.152 357.672 244.463 348.754 236.182C350.028 233.633 351.302 231.085 352.576 228.696Z" fill="black"/>
<path fill-rule="evenodd" clip-rule="evenodd" d="M422.212 192.386C421.978 192.373 421.749 192.465 421.588 192.636C416.503 198.039 411.098 203.445 405.689 208.695C405.435 208.941 405.374 209.325 405.538 209.638C408.649 215.549 409.303 222.759 404.406 227.656L404.403 227.659C401.104 230.996 397.48 232.613 393.726 233.018C389.955 233.426 386.001 232.615 382.06 231.005C374.164 227.78 366.49 221.418 360.783 215.711C360.614 215.542 360.377 215.457 360.138 215.482C359.9 215.507 359.685 215.638 359.554 215.838C359.198 216.383 358.841 216.926 358.485 217.468C356.145 221.028 353.826 224.556 351.872 228.326C350.593 230.723 349.316 233.278 348.044 235.821L348.042 235.825C347.884 236.142 347.953 236.524 348.213 236.765C357.19 245.102 367.338 251.881 379.615 254.95C395.143 258.833 411.861 254.962 422.756 242.929C433.696 231.007 434.142 212.956 426.857 199.188C425.718 196.91 424.259 194.643 422.805 192.704C422.664 192.516 422.447 192.4 422.212 192.386ZM422.091 194.423C423.309 196.12 424.492 198.018 425.437 199.908L425.445 199.925L425.445 199.925C432.488 213.228 431.977 230.527 421.581 241.854L421.578 241.858C411.134 253.394 395.048 257.167 380.001 253.405C368.268 250.472 358.481 244.04 349.734 236.003C350.919 233.633 352.099 231.283 353.279 229.071L353.283 229.063L353.283 229.063C355.198 225.371 357.467 221.916 359.811 218.349C359.991 218.076 360.171 217.801 360.352 217.526C366.04 223.11 373.594 229.268 381.458 232.479C385.559 234.154 389.785 235.046 393.897 234.602C398.025 234.156 401.985 232.37 405.534 228.78C410.986 223.325 410.255 215.545 407.22 209.428C412.267 204.521 417.311 199.476 422.091 194.423Z" fill="black"/>
<path d="M360.22 216.274C349.391 205.763 343.499 201.304 348.277 209.744C351.143 215 347.64 212.93 341.429 207.992C335.218 203.055 339.836 212.133 342.384 215.478C342.384 215.478 335.696 208.63 333.944 210.381C332.193 212.292 339.04 219.3 339.04 219.3C339.04 219.3 332.193 212.611 331.396 215.478C330.759 217.867 344.773 231.722 348.914 236.181" fill="white"/>
<path fill-rule="evenodd" clip-rule="evenodd" d="M347.978 206.58C350.118 207.899 354.233 211.572 359.666 216.846C359.981 217.152 360.485 217.144 360.792 216.829C361.098 216.513 361.09 216.009 360.775 215.703C355.379 210.465 351.133 206.653 348.814 205.224C348.251 204.878 347.683 204.594 347.19 204.538C346.927 204.509 346.567 204.531 346.256 204.776C345.938 205.026 345.834 205.38 345.811 205.66C345.769 206.171 345.962 206.806 346.238 207.475C346.53 208.182 346.977 209.065 347.581 210.131C347.928 210.769 348.168 211.275 348.316 211.664C348.348 211.748 348.374 211.823 348.396 211.89C347.851 211.661 347.04 211.176 345.977 210.435C344.84 209.643 343.472 208.6 341.924 207.369C341.129 206.737 340.466 206.295 339.921 206.039C339.648 205.911 339.374 205.814 339.106 205.775C338.838 205.737 338.525 205.75 338.231 205.903C337.595 206.235 337.52 206.926 337.534 207.337C337.55 207.802 337.685 208.341 337.868 208.884C338.116 209.622 338.493 210.477 338.933 211.352C338.079 210.701 337.168 210.093 336.331 209.713C335.851 209.496 335.344 209.33 334.854 209.303C334.349 209.274 333.805 209.395 333.381 209.819C333.373 209.827 333.365 209.835 333.357 209.844C332.952 210.286 332.838 210.839 332.865 211.355C332.892 211.861 333.053 212.389 333.269 212.894C333.492 213.415 333.794 213.962 334.139 214.508C333.801 214.337 333.469 214.196 333.153 214.102C332.71 213.971 332.186 213.896 331.692 214.067C331.138 214.259 330.785 214.703 330.629 215.265L330.627 215.273L330.627 215.273C330.532 215.628 330.593 215.989 330.679 216.279C330.768 216.586 330.915 216.913 331.094 217.247C331.453 217.916 331.993 218.709 332.647 219.574C333.959 221.309 335.8 223.426 337.775 225.59C340.247 228.299 342.994 231.152 345.193 233.436C346.483 234.776 347.584 235.92 348.33 236.723C348.629 237.046 349.133 237.064 349.455 236.765C349.778 236.466 349.796 235.962 349.497 235.64C348.702 234.784 347.579 233.617 346.276 232.265C344.102 230.007 341.429 227.232 338.952 224.517C336.985 222.361 335.184 220.288 333.917 218.613C333.282 217.774 332.8 217.057 332.498 216.494C332.347 216.212 332.254 215.992 332.207 215.831C332.178 215.733 332.173 215.68 332.172 215.663C332.191 215.604 332.208 215.579 332.214 215.572C332.214 215.572 332.214 215.571 332.214 215.571C332.248 215.56 332.389 215.537 332.7 215.629C333.315 215.812 334.153 216.308 335.049 216.959C335.925 217.594 336.784 218.321 337.429 218.895C337.75 219.18 338.015 219.425 338.199 219.599C338.292 219.685 338.363 219.754 338.412 219.8L338.467 219.853L338.48 219.866L338.483 219.869L338.484 219.87L338.484 219.87C338.484 219.87 338.484 219.87 338.484 219.87M339.61 218.744L339.61 218.744L339.609 218.743L339.606 218.74L339.592 218.726L339.538 218.669C339.49 218.619 339.419 218.545 339.329 218.45C339.149 218.258 338.893 217.982 338.591 217.644C337.985 216.967 337.2 216.05 336.472 215.08C335.737 214.1 335.091 213.105 334.734 212.268C334.554 211.849 334.468 211.515 334.455 211.272C334.445 211.066 334.487 210.976 334.519 210.934C334.544 210.914 334.606 210.884 334.765 210.893C334.977 210.904 335.28 210.986 335.673 211.164C336.457 211.519 337.397 212.163 338.328 212.898C339.249 213.625 340.122 214.41 340.767 215.016C341.089 215.318 341.352 215.574 341.534 215.754C341.626 215.844 341.696 215.915 341.744 215.963L341.798 216.017L341.811 216.031L341.814 216.034L341.815 216.034L341.815 216.034C342.109 216.335 342.586 216.356 342.905 216.081C343.223 215.805 343.273 215.33 343.018 214.995C341.782 213.373 340.039 210.344 339.377 208.376C339.243 207.979 339.167 207.664 339.139 207.434C339.171 207.447 339.206 207.463 339.244 207.48C339.625 207.66 340.176 208.014 340.933 208.616C342.491 209.854 343.89 210.921 345.067 211.742C346.225 212.549 347.229 213.16 347.981 213.438C348.33 213.567 348.789 213.689 349.221 213.569C349.469 213.5 349.703 213.351 349.868 213.11C350.022 212.882 350.074 212.633 350.085 212.42C350.104 212.017 349.98 211.559 349.804 211.097C349.62 210.614 349.343 210.037 348.976 209.363L348.97 209.352L348.97 209.352C348.38 208.31 347.967 207.489 347.71 206.866C347.618 206.645 347.552 206.461 347.505 206.312C347.636 206.379 347.793 206.466 347.978 206.58M339.134 207.133C339.134 207.133 339.132 207.138 339.13 207.15C339.133 207.14 339.134 207.134 339.134 207.133ZM339.61 218.744C339.61 218.744 339.61 218.744 339.61 218.744L339.61 218.744Z" fill="black"/>
<path d="M376.782 147.633L375.19 146.041C375.19 146.041 376.941 143.015 381.719 139.989C386.655 136.963 395.892 140.626 393.981 148.43C393.185 151.933 391.592 154.163 389.681 155.437L392.707 171.682C394.459 172.478 396.051 173.274 397.803 174.07C397.484 174.548 397.166 175.026 396.688 175.504C394.777 177.574 392.229 178.848 388.726 178.848C383.948 178.848 380.763 176.459 379.171 173.274C378.215 171.363 377.738 169.133 377.897 166.904C379.33 167.222 380.763 167.541 382.037 168.019L379.967 155.437C375.19 153.048 376.782 147.633 376.782 147.633Z" fill="white"/>
<path fill-rule="evenodd" clip-rule="evenodd" d="M390.808 139.454C387.919 137.828 384.062 137.618 381.303 139.31L381.293 139.316C378.839 140.87 377.153 142.43 376.074 143.613C375.535 144.204 375.148 144.701 374.892 145.055C374.765 145.232 374.67 145.373 374.605 145.473C374.573 145.523 374.548 145.562 374.531 145.591L374.51 145.625L374.504 145.636L374.502 145.639L374.501 145.641C374.501 145.641 374.5 145.642 375.19 146.041L374.501 145.641C374.32 145.953 374.371 146.349 374.627 146.604L375.906 147.884C375.877 148.03 375.847 148.207 375.819 148.409C375.738 149.001 375.683 149.823 375.792 150.735C376.004 152.492 376.839 154.598 379.245 155.955L381.038 166.852C380.075 166.572 379.072 166.349 378.1 166.133L378.07 166.126C377.843 166.076 377.607 166.127 377.421 166.265C377.235 166.404 377.119 166.616 377.103 166.847C376.933 169.224 377.442 171.596 378.459 173.63C380.183 177.08 383.64 179.644 388.726 179.644C392.446 179.644 395.203 178.281 397.263 176.055C397.79 175.525 398.142 174.997 398.454 174.529L398.465 174.512C398.595 174.318 398.633 174.076 398.569 173.852C398.504 173.627 398.345 173.442 398.132 173.345C397.264 172.951 396.434 172.556 395.597 172.157L395.594 172.155C394.88 171.815 394.16 171.473 393.414 171.129L390.557 155.791C392.465 154.349 393.981 152.016 394.756 148.613C395.806 144.314 393.756 141.114 390.808 139.454ZM377.546 147.857C377.628 147.578 377.551 147.276 377.345 147.07L376.216 145.942C376.44 145.636 376.779 145.204 377.251 144.686C378.242 143.6 379.819 142.136 382.14 140.665C384.317 139.334 387.544 139.444 390.027 140.842C392.453 142.208 394.065 144.738 393.208 148.24L393.204 148.253C392.444 151.599 390.949 153.635 389.24 154.775C388.974 154.951 388.84 155.269 388.898 155.583L391.924 171.827C391.972 172.083 392.141 172.299 392.377 172.406C393.246 172.801 394.076 173.196 394.913 173.595L394.916 173.597C395.472 173.861 396.031 174.128 396.603 174.394C396.46 174.58 396.305 174.76 396.125 174.941C396.118 174.948 396.11 174.956 396.103 174.964C394.342 176.872 392.005 178.052 388.726 178.052C384.256 178.052 381.343 175.839 379.883 172.918C379.122 171.397 378.686 169.659 378.664 167.892C379.765 168.144 380.811 168.409 381.758 168.764C382.024 168.864 382.323 168.814 382.543 168.634C382.762 168.454 382.869 168.17 382.823 167.889L380.753 155.308C380.711 155.056 380.551 154.839 380.323 154.725C378.234 153.68 377.55 152.005 377.374 150.544C377.284 149.803 377.329 149.123 377.397 148.625C377.431 148.377 377.47 148.179 377.5 148.045C377.515 147.978 377.527 147.928 377.536 147.896L377.545 147.862L377.546 147.857Z" fill="black"/>
<path d="M382.674 139.511C381.4 142.855 386.018 146.041 388.407 147.315C390.159 148.27 389.044 150.659 387.292 150.659C385.859 150.659 387.929 154.322 388.726 154.8C389.044 154.959 389.363 155.118 389.681 155.278C391.751 154.163 393.185 151.933 394.14 148.111C396.051 140.785 384.745 127.726 382.674 139.511Z" fill="black"/>
<path d="M383.63 144.607L386.018 142.218C386.655 141.581 387.929 141.581 388.566 142.218C389.203 142.856 389.203 143.97 388.407 144.767C387.611 145.563 386.815 146.359 386.018 147.155C385.381 147.793 384.107 147.793 383.47 147.155C382.833 146.359 382.833 145.244 383.63 144.607Z" fill="black"/>
</svg>
